<?xml version="1.0" standalone="no"?>
<!DOCTYPE svg PUBLIC "-//W3C//DTD SVG 20010904//EN"
 "http://www.w3.org/TR/2001/REC-SVG-20010904/DTD/svg10.dtd">
<svg version="1.0" xmlns="http://www.w3.org/2000/svg"
 width="700.000000pt" height="700.000000pt" viewBox="0 0 700.000000 700.000000"
 preserveAspectRatio="xMidYMid meet">
<metadata>
Created by potrace 1.14, written by Peter Selinger 2001-2017
</metadata>
<g transform="translate(0.000000,700.000000) scale(0.100000,-0.100000)"
fill="#000000" stroke="none">
<path d="M0 3500 l0 -3500 3500 0 3500 0 0 3500 0 3500 -3500 0 -3500 0 0
-3500z m3810 2555 c503 -59 974 -256 1370 -572 120 -96 320 -300 417 -423 159
-206 302 -461 388 -694 48 -130 108 -370 131 -521 25 -168 25 -532 0 -700
-148 -978 -822 -1775 -1766 -2089 -286 -94 -546 -136 -855 -136 -435 0 -801
85 -1190 275 -552 270 -997 731 -1241 1286 -89 204 -154 433 -191 676 -23 153
-23 517 0 678 106 739 514 1378 1147 1800 322 214 754 372 1148 420 150 18
489 18 642 0z"/>
<path d="M2960 5059 c0 -35 5 -241 11 -457 7 -216 9 -395 6 -398 -3 -4 -195
38 -426 91 -231 53 -425 95 -430 93 -4 -1 123 -156 285 -343 229 -266 290
-342 279 -350 -7 -6 -185 -103 -395 -215 -310 -167 -377 -206 -358 -212 13 -3
210 -34 438 -69 228 -34 416 -63 418 -64 2 -2 -73 -193 -167 -426 -93 -233
-168 -425 -167 -426 2 -2 173 105 380 238 208 132 379 239 381 237 1 -2 59
-192 129 -423 70 -231 130 -428 134 -439 5 -13 50 113 147 418 77 240 144 436
149 436 4 0 174 -110 377 -245 203 -134 369 -241 369 -236 0 4 -72 196 -160
426 -89 230 -157 421 -153 425 4 4 170 28 368 54 481 63 508 67 498 76 -4 5
-179 104 -388 220 -209 117 -382 214 -384 216 -2 1 132 155 297 341 165 186
299 339 298 341 -2 1 -197 -39 -435 -89 -237 -51 -433 -90 -434 -88 -2 2 4
177 14 389 10 212 18 418 18 459 l1 73 -266 -348 c-146 -192 -272 -355 -279
-362 -10 -11 -61 53 -280 350 -148 200 -270 365 -272 367 -1 2 -3 -25 -3 -60z"/>
</g>
</svg>
