<svg width="495" height="612" viewBox="0 0 495 612" fill="none" xmlns="http://www.w3.org/2000/svg">
<g filter="url(#filter0_d_59_40)">
<rect x="4" width="487" height="604" fill="#E5E5E5"/>
</g>
<path d="M4 0H491.5V38H4V0Z" fill="#C4C4C4"/>
<path d="M53.6 19C53.6 24.5228 49.3019 29 44 29C38.6981 29 34.4 24.5228 34.4 19C34.4 13.4772 38.6981 9 44 9C49.3019 9 53.6 13.4772 53.6 19Z" fill="white"/>
<path d="M76 19C76 24.5228 71.7019 29 66.4 29C61.0981 29 56.8 24.5228 56.8 19C56.8 13.4772 61.0981 9 66.4 9C71.7019 9 76 13.4772 76 19Z" fill="white"/>
<path d="M31.2 19C31.2 24.5228 26.9019 29 21.6 29C16.2981 29 12 24.5228 12 19C12 13.4772 16.2981 9 21.6 9C26.9019 9 31.2 13.4772 31.2 19Z" fill="#FF029C"/>
<path d="M73 21.0706L69.0752 21.097L69.5159 24.6957L66.7066 22.1687L64.2553 25L64.214 21.3749L60.3167 21.785L63.0572 19.1918L60 16.9294L63.9248 16.903L63.4841 13.2911L66.2934 15.8313L68.7447 13L68.7722 16.6251L72.6833 16.215L69.929 18.8082L73 21.0706Z" fill="black"/>
<circle cx="44" cy="19" r="4" fill="black"/>
<path d="M88.9362 11.256V18.12H95.3682V11.256H97.6242V27H95.3682V20.16H88.9362V27H86.6802V11.256H88.9362Z" fill="#FF029C"/>
<path d="M105.849 27.288C104.329 27.288 103.113 26.848 102.201 25.968C101.289 25.088 100.833 23.92 100.833 22.464V19.656C100.833 18.184 101.289 17.008 102.201 16.128C103.113 15.248 104.329 14.808 105.849 14.808C107.385 14.808 108.609 15.248 109.521 16.128C110.449 17.008 110.913 18.184 110.913 19.656V22.464C110.913 23.92 110.449 25.088 109.521 25.968C108.609 26.848 107.385 27.288 105.849 27.288ZM105.873 25.248C106.753 25.248 107.449 24.992 107.961 24.48C108.489 23.968 108.753 23.28 108.753 22.416V19.728C108.753 18.832 108.497 18.128 107.985 17.616C107.473 17.104 106.769 16.848 105.873 16.848C104.993 16.848 104.289 17.104 103.761 17.616C103.249 18.128 102.993 18.832 102.993 19.728V22.416C102.993 23.296 103.249 23.992 103.761 24.504C104.289 25 104.993 25.248 105.873 25.248Z" fill="#FF029C"/>
<path d="M126.383 14.808C127.775 14.808 128.863 15.216 129.647 16.032C130.447 16.848 130.847 17.984 130.847 19.44V27H128.687V19.608C128.687 18.76 128.447 18.088 127.967 17.592C127.503 17.096 126.879 16.848 126.095 16.848C125.535 16.848 125.015 16.976 124.535 17.232C124.055 17.488 123.671 17.84 123.383 18.288C123.447 18.608 123.479 18.992 123.479 19.44V27H121.319V19.608C121.319 18.76 121.079 18.088 120.599 17.592C120.135 17.096 119.511 16.848 118.727 16.848C118.183 16.848 117.679 16.968 117.215 17.208C116.767 17.448 116.399 17.776 116.111 18.192V27H113.951V15.096H115.895L115.967 16.032C116.815 15.216 117.895 14.808 119.207 14.808C119.943 14.808 120.607 14.952 121.199 15.24C121.791 15.512 122.271 15.912 122.639 16.44C123.071 15.912 123.599 15.512 124.223 15.24C124.863 14.952 125.583 14.808 126.383 14.808Z" fill="#FF029C"/>
<path d="M135.916 21.84V22.416C135.916 23.312 136.172 24.016 136.684 24.528C137.212 25.024 137.932 25.272 138.844 25.272C139.612 25.272 140.252 25.08 140.764 24.696C141.292 24.312 141.564 23.84 141.58 23.28H143.74C143.676 24.464 143.196 25.432 142.3 26.184C141.404 26.92 140.252 27.288 138.844 27.288C137.308 27.288 136.076 26.856 135.148 25.992C134.22 25.112 133.756 23.944 133.756 22.488V19.632C133.756 18.672 133.964 17.832 134.38 17.112C134.796 16.376 135.388 15.808 136.156 15.408C136.924 15.008 137.804 14.808 138.796 14.808C140.3 14.808 141.5 15.248 142.396 16.128C143.292 17.008 143.74 18.168 143.74 19.608V21.84H135.916ZM138.796 16.824C137.916 16.824 137.212 17.088 136.684 17.616C136.172 18.128 135.916 18.824 135.916 19.704V20.04H141.58V19.704C141.58 18.824 141.324 18.128 140.812 17.616C140.316 17.088 139.644 16.824 138.796 16.824Z" fill="#FF029C"/>
<path d="M160.299 11.256C161.819 11.256 163.019 11.656 163.899 12.456C164.779 13.24 165.219 14.32 165.219 15.696V16.056C165.219 17.432 164.779 18.52 163.899 19.32C163.019 20.104 161.819 20.496 160.299 20.496H156.291V27H154.035V11.256H160.299ZM160.251 18.48C161.147 18.48 161.827 18.272 162.291 17.856C162.755 17.44 162.987 16.84 162.987 16.056V15.696C162.987 14.928 162.747 14.336 162.267 13.92C161.803 13.504 161.131 13.296 160.251 13.296H156.291V18.48H160.251Z" fill="#FF029C"/>
<path d="M177.377 15.096V27H175.433L175.337 25.92C174.473 26.832 173.353 27.288 171.977 27.288C170.633 27.288 169.569 26.872 168.785 26.04C168.001 25.208 167.609 24.072 167.609 22.632V15.096H169.793V22.464C169.793 23.312 170.025 23.992 170.489 24.504C170.953 25 171.585 25.248 172.385 25.248C173.009 25.248 173.569 25.112 174.065 24.84C174.561 24.552 174.945 24.168 175.217 23.688V15.096H177.377Z" fill="#FF029C"/>
<path d="M186.309 14.808C187.653 14.808 188.717 15.224 189.501 16.056C190.285 16.888 190.677 18.016 190.677 19.44V27H188.493V19.608C188.493 18.76 188.253 18.088 187.773 17.592C187.309 17.096 186.685 16.848 185.901 16.848C185.277 16.848 184.717 16.992 184.221 17.28C183.725 17.552 183.341 17.928 183.069 18.408V27H180.909V15.096H182.853L182.949 16.176C183.813 15.264 184.933 14.808 186.309 14.808Z" fill="#FF029C"/>
<path d="M204.385 26.664V27H202.081L198.433 21.744L196.273 24.096V27H194.113V10.296H196.273V21.024L201.817 15.12H204.193V15.456L199.873 20.16L204.385 26.664Z" fill="#FF029C"/>
<defs>
<filter id="filter0_d_59_40" x="0" y="0" width="495" height="612" filterUnits="userSpaceOnUse" color-interpolation-filters="sRGB">
<feFlood flood-opacity="0" result="BackgroundImageFix"/>
<feColorMatrix in="SourceAlpha" type="matrix" values="0 0 0 0 0 0 0 0 0 0 0 0 0 0 0 0 0 0 127 0" result="hardAlpha"/>
<feOffset dy="4"/>
<feGaussianBlur stdDeviation="2"/>
<feComposite in2="hardAlpha" operator="out"/>
<feColorMatrix type="matrix" values="0 0 0 0 0 0 0 0 0 0 0 0 0 0 0 0 0 0 0.25 0"/>
<feBlend mode="normal" in2="BackgroundImageFix" result="effect1_dropShadow_59_40"/>
<feBlend mode="normal" in="SourceGraphic" in2="effect1_dropShadow_59_40" result="shape"/>
</filter>
</defs>
</svg>
