<svg width="486" height="445" viewBox="0 0 486 445" fill="none" xmlns="http://www.w3.org/2000/svg">
<path d="M243.007 411.491C353.819 411.491 443.649 323.422 443.649 214.784C443.649 106.145 353.819 18.076 243.007 18.076C132.196 18.076 42.3662 106.145 42.3662 214.784C42.3662 323.422 132.196 411.491 243.007 411.491Z" fill="#FF029C"/>
<path d="M241.755 274.515C273.652 274.515 299.51 248.656 299.51 216.758C299.51 184.859 273.652 159 241.755 159C209.858 159 184 184.859 184 216.758C184 248.656 209.858 274.515 241.755 274.515Z" fill="#EDEEEE" stroke="black" stroke-width="3" stroke-miterlimit="10"/>
<path d="M242.306 245.615C257.939 245.615 270.612 232.941 270.612 217.307C270.612 201.674 257.939 189 242.306 189C226.673 189 214 201.674 214 217.307C214 232.941 226.673 245.615 242.306 245.615Z" fill="#FFA800" stroke="black" stroke-width="8" stroke-miterlimit="10"/>
<path d="M79.2797 212.996L79.379 207.007L57.1342 206.638L57.0349 212.627L65.8045 212.772L65.6661 221.114L56.8965 220.968L56.7972 226.957L79.0421 227.326L79.1414 221.337L70.3718 221.192L70.5101 212.85L79.2797 212.996Z" fill="#FF9DFF"/>
<path d="M70.4909 185.078C66.5939 184.113 63.8014 181.839 64.6869 178.142C65.5725 174.446 69.0814 173.73 72.9784 174.695C76.8753 175.659 79.6678 177.934 78.7823 181.63C77.8968 185.326 74.3878 186.042 70.4909 185.078ZM69.0979 190.892C75.3994 192.451 81.4339 189.809 83.1353 182.707C84.8367 175.605 80.6728 170.439 74.3713 168.88C68.0699 167.321 62.0354 169.963 60.334 177.065C58.6325 184.167 62.7965 189.333 69.0979 190.892Z" fill="#FF9DFF"/>
<path d="M94.8442 145.825L97.8127 140.623L87.7795 134.897C83.8777 132.671 82.8841 130.527 84.1563 128.298C85.3225 126.254 87.1905 126.433 90.5349 128.342L101.311 134.491L104.28 129.289L92.3886 122.503C87.9295 119.958 83.6572 119.245 80.9007 124.075C78.6743 127.977 81.4361 131.77 81.4361 131.77L81.3301 131.956L81.3461 132.014C78.6552 131.464 76.2147 132.288 74.4336 135.409C72.2072 139.311 75.1811 142.733 75.1811 142.733L75.075 142.918L71.9165 141.116L69.054 146.133L88.3771 157.159L91.3456 151.957L81.3124 146.231C77.4106 144.005 76.417 141.861 77.6892 139.632C78.8554 137.588 80.7234 137.767 84.0678 139.676L94.8442 145.825Z" fill="#FF9DFF"/>
<path d="M106.761 105.911C111.369 110.519 117.674 111.671 122.979 106.366C129.497 99.8481 124.798 93.3304 124.798 93.3304L120.554 97.5745C120.554 97.5745 122.524 100.454 119.948 103.031C117.401 105.578 114.552 104.789 111.945 102.546L123.1 91.3903C123.1 91.3903 122.585 90.8143 122.221 90.4505C117.614 85.8426 111.49 84.5087 106.307 89.6926C101.123 94.8765 102.154 101.303 106.761 105.911ZM109.49 92.8757C111.581 90.784 113.824 91.3296 116.037 92.9969L109.338 99.6966C107.762 97.3926 107.398 94.9674 109.49 92.8757Z" fill="#FF9DFF"/>
<path d="M156.332 87.0982L161.668 84.376L157.099 75.4198L157.289 75.3226C157.289 75.3226 160.365 77.1154 164.557 74.9765C170.274 72.0598 170.605 65.647 167.785 60.1209C164.966 54.5947 159.58 51.0985 153.864 54.0152C149.481 56.2513 149.419 60.3658 149.419 60.3658L149.228 60.463L147.867 57.7952L142.722 60.4202L156.332 87.0982ZM152.922 67.7042C151.095 64.1217 151.141 60.4475 154.381 58.7947C157.62 57.1419 160.622 59.2606 162.45 62.8431C164.278 66.4256 164.231 70.0998 160.991 71.7526C157.752 73.4054 154.75 71.2867 152.922 67.7042Z" fill="#FF9DFF"/>
<path d="M200.173 37.2087L194.366 38.7211L197.254 49.9283C198.378 54.2866 197.2 56.5866 194.089 57.3968C191.392 58.099 189.928 56.7088 188.965 52.973L185.863 40.9357L180.055 42.4481L183.478 55.7307C184.762 60.7117 187.438 64.2228 193.452 62.6564C198.223 61.4141 199.019 56.7771 199.019 56.7771L199.227 56.7231L200.136 60.2513L205.736 58.7929L200.173 37.2087Z" fill="#FF9DFF"/>
<path d="M218.775 55.8011L224.756 55.4823L224.142 43.9469C223.903 39.4609 225.509 37.4473 228.713 37.2765C231.49 37.1285 232.65 38.7806 232.854 42.6257L233.515 55.0157L239.496 54.6969L238.767 41.0253C238.494 35.8984 236.569 31.9307 230.374 32.2608C225.461 32.5226 223.766 36.8975 223.766 36.8975L223.552 36.9088L223.359 33.2773L217.591 33.5847L218.775 55.8011Z" fill="#FF9DFF"/>
<path d="M253.024 54.3559L258.947 55.2516L259.958 48.5677L262.746 46.4365L266.942 56.4609L274.176 57.555L267.49 42.8268L277.08 35.4932L270.1 34.4375L260.93 42.1376L262.274 33.2538L256.351 32.3581L253.024 54.3559Z" fill="#FF9DFF"/>
<path d="M402.521 268.002L405.809 257.599L422.535 262.886L424.34 257.174L403.126 250.469L398.033 266.583L402.521 268.002Z" fill="#FF9DFF"/>
<path d="M411.89 291.203L414.408 285.768L394.22 276.418L391.703 281.854L411.89 291.203ZM419.052 287.448C417.344 286.657 415.299 287.407 414.508 289.115C413.717 290.823 414.467 292.868 416.175 293.659C417.883 294.451 419.928 293.7 420.719 291.992C421.51 290.284 420.76 288.239 419.052 287.448Z" fill="#FF9DFF"/>
<path d="M395.71 319.046L399.058 313.976L387.785 300.378L404.716 305.407L408.252 300.052L385.515 294.111L381.318 300.466L395.71 319.046Z" fill="#FF9DFF"/>
<path d="M378.883 323.65C374.298 319.038 368.009 317.87 362.699 323.148C356.176 329.634 360.846 336.152 360.846 336.152L365.093 331.929C365.093 331.929 363.136 329.049 365.715 326.485C368.263 323.952 371.105 324.747 373.7 326.993L362.534 338.093C362.534 338.093 363.046 338.67 363.408 339.034C367.993 343.646 374.1 344.995 379.289 339.837C384.477 334.679 383.468 328.262 378.883 323.65ZM376.122 336.651C374.028 338.733 371.791 338.181 369.587 336.511L376.293 329.845C377.859 332.149 378.215 334.57 376.122 336.651Z" fill="#FF9DFF"/>
<path d="M336.532 355.788C335.351 353.502 331.369 349.535 323.577 353.608C317.876 356.588 316.122 361.134 318.091 364.945C321.931 372.374 333.194 363.341 334.966 366.77C335.596 367.989 335.007 369.652 332.917 370.745C329.306 372.632 327.928 369.965 327.928 369.965L322.797 372.648C323.781 374.553 327.186 378.338 334.788 374.364C340.109 371.583 341.863 367.036 340.09 363.607C336.152 355.987 325.283 365.782 323.117 361.591C322.526 360.448 322.597 358.717 325.448 357.227C329.629 355.042 331.401 358.471 331.401 358.471L336.532 355.788Z" fill="#FF9DFF"/>
<path d="M307.105 374.822C305.327 368.567 300.391 364.499 293.189 366.545C284.34 369.059 285.269 377.023 285.269 377.023L291.031 375.386C291.031 375.386 290.713 371.919 294.211 370.925C297.668 369.942 299.769 372.014 300.951 375.237L285.806 379.54C285.806 379.54 285.975 380.292 286.115 380.786C287.892 387.042 292.582 391.18 299.619 389.181C306.657 387.181 308.882 381.078 307.105 374.822ZM298.392 384.859C295.552 385.666 293.862 384.1 292.743 381.571L301.839 378.987C302.093 381.762 301.232 384.052 298.392 384.859Z" fill="#FF9DFF"/>
<path d="M265.165 389.071C265.258 391.467 263.926 392.596 261.366 392.787C259.02 392.962 257.663 392.034 257.533 390.285C257.348 387.81 260.824 387.25 264.466 386.034C268.065 384.822 271.338 382.689 271.029 378.551C270.724 374.455 267.597 372.801 263.544 373.103C257.869 373.527 256.87 378.536 256.87 378.536L256.657 378.551L256.338 374.285L250.365 374.731L251.496 389.877C251.926 395.637 256.336 397.238 261.669 396.84C266.789 396.458 271.22 394.325 271.138 388.625L265.165 389.071ZM257.173 385.463C256.927 382.178 257.644 377.405 261.697 377.103C263.617 376.959 264.891 377.937 265.019 379.643C265.165 381.606 263.617 382.708 261.732 383.321C260.057 383.875 258.087 384.494 257.173 385.463Z" fill="#FF9DFF"/>
<path d="M236.663 382.605C236.972 380.057 235.917 374.542 227.21 373.487C220.839 372.714 216.842 375.462 216.328 379.71C215.324 387.992 229.675 386.93 229.211 390.753C229.047 392.112 227.628 393.147 225.292 392.864C221.257 392.375 221.618 389.401 221.618 389.401L215.884 388.707C215.626 390.83 216.309 395.869 224.803 396.899C230.75 397.619 234.746 394.871 235.209 391.049C236.239 382.554 221.785 384.465 222.351 379.793C222.505 378.519 223.535 377.136 226.721 377.522C231.393 378.088 230.929 381.91 230.929 381.91L236.663 382.605Z" fill="#FF9DFF"/>
<path d="M195.761 379.929C194.471 383.738 191.97 386.324 188.363 385.103C184.756 383.881 184.341 380.307 185.631 376.498C186.921 372.689 189.423 370.103 193.029 371.324C196.636 372.546 197.051 376.12 195.761 379.929ZM201.435 381.851C203.521 375.691 201.4 369.416 194.47 367.069C187.541 364.722 182.043 368.417 179.957 374.576C177.871 380.736 179.993 387.011 186.922 389.357C193.852 391.704 199.349 388.01 201.435 381.851Z" fill="#FF9DFF"/>
<path d="M170.41 359.049L165.275 355.964L159.328 365.867C157.015 369.719 154.556 370.488 151.805 368.836C149.421 367.404 149.386 365.386 151.368 362.085L157.756 351.448L152.622 348.364L145.573 360.101C142.929 364.502 142.304 368.868 147.622 372.062C151.84 374.596 155.693 371.919 155.693 371.919L155.876 372.029L154.004 375.147L158.955 378.121L170.41 359.049Z" fill="#FF9DFF"/>
</svg>
