<svg width="466" height="429" viewBox="0 0 466 429" fill="none" xmlns="http://www.w3.org/2000/svg">
<mask id="mask0_139_2" style="mask-type:alpha" maskUnits="userSpaceOnUse" x="4" y="0" width="458" height="421">
<rect x="4" width="458" height="421" fill="#FF9AD8"/>
</mask>
<g mask="url(#mask0_139_2)">
<g filter="url(#filter0_d_139_2)">
<rect x="4" width="458" height="421" fill="#FF9AD8"/>
</g>
<path d="M5 1H462V30H5V1Z" fill="#C4C4C4"/>
<path d="M54.6 17C54.6 22.5228 50.3019 27 45 27C39.6981 27 35.4 22.5228 35.4 17C35.4 11.4772 39.6981 7 45 7C50.3019 7 54.6 11.4772 54.6 17Z" fill="white"/>
<path d="M77 17C77 22.5228 72.7019 27 67.4 27C62.0981 27 57.8 22.5228 57.8 17C57.8 11.4772 62.0981 7 67.4 7C72.7019 7 77 11.4772 77 17Z" fill="white"/>
<path d="M32.2 17C32.2 22.5228 27.9019 27 22.6 27C17.2981 27 13 22.5228 13 17C13 11.4772 17.2981 7 22.6 7C27.9019 7 32.2 11.4772 32.2 17Z" fill="#FF029C"/>
<path d="M74 19.0706L70.0752 19.097L70.5159 22.6957L67.7066 20.1687L65.2553 23L65.214 19.3749L61.3167 19.785L64.0572 17.1918L61 14.9294L64.9248 14.903L64.4841 11.2911L67.2934 13.8313L69.7447 11L69.7722 14.6251L73.6833 14.215L70.929 16.8082L74 19.0706Z" fill="black"/>
<circle cx="45" cy="17" r="4" fill="black"/>
<path d="M89.9357 9.25602V16.12H96.3677V9.25602H98.6237V25H96.3677V18.16H89.9357V25H87.6797V9.25602H89.9357Z" fill="#FF029C"/>
<path d="M106.849 25.288C105.329 25.288 104.113 24.848 103.201 23.968C102.289 23.088 101.833 21.92 101.833 20.464V17.656C101.833 16.184 102.289 15.008 103.201 14.128C104.113 13.248 105.329 12.808 106.849 12.808C108.385 12.808 109.609 13.248 110.521 14.128C111.449 15.008 111.913 16.184 111.913 17.656V20.464C111.913 21.92 111.449 23.088 110.521 23.968C109.609 24.848 108.385 25.288 106.849 25.288ZM106.873 23.248C107.753 23.248 108.449 22.992 108.961 22.48C109.489 21.968 109.753 21.28 109.753 20.416V17.728C109.753 16.832 109.497 16.128 108.985 15.616C108.473 15.104 107.769 14.848 106.873 14.848C105.993 14.848 105.289 15.104 104.761 15.616C104.249 16.128 103.993 16.832 103.993 17.728V20.416C103.993 21.296 104.249 21.992 104.761 22.504C105.289 23 105.993 23.248 106.873 23.248Z" fill="#FF029C"/>
<path d="M127.382 12.808C128.774 12.808 129.862 13.216 130.646 14.032C131.446 14.848 131.846 15.984 131.846 17.44V25H129.686V17.608C129.686 16.76 129.446 16.088 128.966 15.592C128.502 15.096 127.878 14.848 127.094 14.848C126.534 14.848 126.014 14.976 125.534 15.232C125.054 15.488 124.67 15.84 124.382 16.288C124.446 16.608 124.478 16.992 124.478 17.44V25H122.318V17.608C122.318 16.76 122.078 16.088 121.598 15.592C121.134 15.096 120.51 14.848 119.726 14.848C119.182 14.848 118.678 14.968 118.214 15.208C117.766 15.448 117.398 15.776 117.11 16.192V25H114.95V13.096H116.894L116.966 14.032C117.814 13.216 118.894 12.808 120.206 12.808C120.942 12.808 121.606 12.952 122.198 13.24C122.79 13.512 123.27 13.912 123.638 14.44C124.07 13.912 124.598 13.512 125.222 13.24C125.862 12.952 126.582 12.808 127.382 12.808Z" fill="#FF029C"/>
<path d="M136.916 19.84V20.416C136.916 21.312 137.172 22.016 137.684 22.528C138.212 23.024 138.932 23.272 139.844 23.272C140.612 23.272 141.252 23.08 141.764 22.696C142.292 22.312 142.564 21.84 142.58 21.28H144.74C144.676 22.464 144.196 23.432 143.3 24.184C142.404 24.92 141.252 25.288 139.844 25.288C138.308 25.288 137.076 24.856 136.148 23.992C135.22 23.112 134.756 21.944 134.756 20.488V17.632C134.756 16.672 134.964 15.832 135.38 15.112C135.796 14.376 136.388 13.808 137.156 13.408C137.924 13.008 138.804 12.808 139.796 12.808C141.3 12.808 142.5 13.248 143.396 14.128C144.292 15.008 144.74 16.168 144.74 17.608V19.84H136.916ZM139.796 14.824C138.916 14.824 138.212 15.088 137.684 15.616C137.172 16.128 136.916 16.824 136.916 17.704V18.04H142.58V17.704C142.58 16.824 142.324 16.128 141.812 15.616C141.316 15.088 140.644 14.824 139.796 14.824Z" fill="#FF029C"/>
<path d="M161.298 9.25602C162.818 9.25602 164.018 9.65602 164.898 10.456C165.778 11.24 166.218 12.32 166.218 13.696V14.056C166.218 15.432 165.778 16.52 164.898 17.32C164.018 18.104 162.818 18.496 161.298 18.496H157.29V25H155.034V9.25602H161.298ZM161.25 16.48C162.146 16.48 162.826 16.272 163.29 15.856C163.754 15.44 163.986 14.84 163.986 14.056V13.696C163.986 12.928 163.746 12.336 163.266 11.92C162.802 11.504 162.13 11.296 161.25 11.296H157.29V16.48H161.25Z" fill="#FF029C"/>
<path d="M178.377 13.096V25H176.433L176.337 23.92C175.473 24.832 174.353 25.288 172.977 25.288C171.633 25.288 170.569 24.872 169.785 24.04C169.001 23.208 168.609 22.072 168.609 20.632V13.096H170.793V20.464C170.793 21.312 171.025 21.992 171.489 22.504C171.953 23 172.585 23.248 173.385 23.248C174.009 23.248 174.569 23.112 175.065 22.84C175.561 22.552 175.945 22.168 176.217 21.688V13.096H178.377Z" fill="#FF029C"/>
<path d="M187.308 12.808C188.652 12.808 189.716 13.224 190.5 14.056C191.284 14.888 191.676 16.016 191.676 17.44V25H189.492V17.608C189.492 16.76 189.252 16.088 188.772 15.592C188.308 15.096 187.684 14.848 186.9 14.848C186.276 14.848 185.716 14.992 185.22 15.28C184.724 15.552 184.34 15.928 184.068 16.408V25H181.908V13.096H183.852L183.948 14.176C184.812 13.264 185.932 12.808 187.308 12.808Z" fill="#FF029C"/>
<path d="M205.384 24.664V25H203.08L199.432 19.744L197.272 22.096V25H195.112V8.29602H197.272V19.024L202.816 13.12H205.192V13.456L200.872 18.16L205.384 24.664Z" fill="#FF029C"/>
</g>
<defs>
<filter id="filter0_d_139_2" x="0" y="0" width="466" height="429" filterUnits="userSpaceOnUse" color-interpolation-filters="sRGB">
<feFlood flood-opacity="0" result="BackgroundImageFix"/>
<feColorMatrix in="SourceAlpha" type="matrix" values="0 0 0 0 0 0 0 0 0 0 0 0 0 0 0 0 0 0 127 0" result="hardAlpha"/>
<feOffset dy="4"/>
<feGaussianBlur stdDeviation="2"/>
<feComposite in2="hardAlpha" operator="out"/>
<feColorMatrix type="matrix" values="0 0 0 0 0 0 0 0 0 0 0 0 0 0 0 0 0 0 0.25 0"/>
<feBlend mode="normal" in2="BackgroundImageFix" result="effect1_dropShadow_139_2"/>
<feBlend mode="normal" in="SourceGraphic" in2="effect1_dropShadow_139_2" result="shape"/>
</filter>
</defs>
</svg>
