<?xml version="1.0" encoding="utf-8"?>
<!-- Generator: Adobe Illustrator 26.0.2, SVG Export Plug-In . SVG Version: 6.00 Build 0)  -->
<svg version="1.1" id="Layer_1" xmlns="http://www.w3.org/2000/svg" xmlns:xlink="http://www.w3.org/1999/xlink" x="0px" y="0px"
	 viewBox="0 0 374 234" style="enable-background:new 0 0 374 234;" xml:space="preserve">
<style type="text/css">
	.st0{fill:#C4C4C4;}
	.st1{fill:#FFFFFF;}
	.st2{fill:#FF029C;}
</style>
<g>
	<rect x="4" width="366" height="226"/>
</g>
<path class="st0" d="M4,0h366v29H4V0z"/>
<path class="st1" d="M56.6,16c0,5.5-4.3,10-9.6,10s-9.6-4.5-9.6-10S41.7,6,47,6S56.6,10.5,56.6,16z"/>
<path class="st1" d="M79,16c0,5.5-4.3,10-9.6,10c-5.3,0-9.6-4.5-9.6-10s4.3-10,9.6-10S79,10.5,79,16z"/>
<path class="st2" d="M34.2,16c0,5.5-4.3,10-9.6,10S15,21.5,15,16s4.3-10,9.6-10S34.2,10.5,34.2,16z"/>
<path d="M76,18.1h-3.9l0.4,3.6l-2.8-2.5L67.3,22v-3.6l-3.9,0.4l2.7-2.6L63,13.9h3.9l-0.4-3.6l2.8,2.5l2.5-2.8v3.6l3.9-0.4l-2.8,2.6
	L76,18.1z"/>
<circle cx="47" cy="16" r="4"/>
<path class="st2" d="M91.9,8.3v6.9h6.4V8.3h2.3V24h-2.3v-6.8h-6.4V24h-2.3V8.3H91.9z"/>
<path class="st2" d="M108.8,24.3c-1.5,0-2.7-0.4-3.6-1.3s-1.4-2-1.4-3.5v-2.8c0-1.5,0.5-2.6,1.4-3.5s2.1-1.3,3.6-1.3
	s2.8,0.4,3.7,1.3c0.9,0.9,1.4,2.1,1.4,3.5v2.8c0,1.5-0.5,2.6-1.4,3.5C111.6,23.8,110.4,24.3,108.8,24.3z M108.9,22.2
	c0.9,0,1.6-0.3,2.1-0.8s0.8-1.2,0.8-2.1v-2.7c0-0.9-0.3-1.6-0.8-2.1s-1.2-0.8-2.1-0.8s-1.6,0.3-2.1,0.8s-0.8,1.2-0.8,2.1v2.7
	c0,0.9,0.3,1.6,0.8,2.1C107.3,22,108,22.2,108.9,22.2z"/>
<path class="st2" d="M129.4,11.8c1.4,0,2.5,0.4,3.3,1.2s1.2,2,1.2,3.4V24h-2.2v-7.4c0-0.8-0.2-1.5-0.7-2s-1.1-0.7-1.9-0.7
	c-0.6,0-1.1,0.1-1.6,0.4c-0.5,0.3-0.9,0.6-1.2,1.1c0.1,0.3,0.1,0.7,0.1,1.2V24h-2.2v-7.4c0-0.8-0.2-1.5-0.7-2s-1.1-0.7-1.9-0.7
	c-0.5,0-1,0.1-1.5,0.4c-0.4,0.2-0.8,0.6-1.1,1V24h-2V12.1h1.9L119,13c0.8-0.8,1.9-1.2,3.2-1.2c0.7,0,1.4,0.1,2,0.4
	c0.6,0.3,1.1,0.7,1.4,1.2c0.4-0.5,1-0.9,1.6-1.2C127.9,12,128.6,11.8,129.4,11.8z"/>
<path class="st2" d="M138.9,18.8v0.6c0,0.9,0.3,1.6,0.8,2.1s1.2,0.7,2.2,0.7c0.8,0,1.4-0.2,1.9-0.6s0.8-0.9,0.8-1.4h2.2
	c-0.1,1.2-0.5,2.2-1.4,2.9c-0.9,0.7-2,1.1-3.5,1.1s-2.8-0.4-3.7-1.3s-1.4-2-1.4-3.5v-2.9c0-1,0.2-1.8,0.6-2.5c0.4-0.7,1-1.3,1.8-1.7
	s1.6-0.6,2.6-0.6c1.5,0,2.7,0.4,3.6,1.3c0.9,0.9,1.3,2,1.3,3.5v2.2L138.9,18.8L138.9,18.8z M141.8,13.8c-0.9,0-1.6,0.3-2.1,0.8
	s-0.8,1.2-0.8,2.1V17h5.7v-0.3c0-0.9-0.3-1.6-0.8-2.1C143.3,14.1,142.6,13.8,141.8,13.8z"/>
<path class="st2" d="M163.3,8.3c1.5,0,2.7,0.4,3.6,1.2c0.9,0.8,1.3,1.9,1.3,3.2v0.4c0,1.4-0.4,2.5-1.3,3.3c-0.9,0.8-2.1,1.2-3.6,1.2
	h-4V24H157V8.3H163.3z M163.3,15.5c0.9,0,1.6-0.2,2-0.6s0.7-1,0.7-1.8v-0.4c0-0.8-0.2-1.4-0.7-1.8c-0.5-0.4-1.1-0.6-2-0.6h-4v5.2
	C159.3,15.5,163.3,15.5,163.3,15.5z"/>
<path class="st2" d="M180.4,12.1V24h-1.9l-0.1-1.1c-0.9,0.9-2,1.4-3.4,1.4c-1.3,0-2.4-0.4-3.2-1.2c-0.8-0.8-1.2-2-1.2-3.4v-7.5h2.2
	v7.4c0,0.8,0.2,1.5,0.7,2s1.1,0.7,1.9,0.7c0.6,0,1.2-0.1,1.7-0.4s0.9-0.7,1.2-1.2v-8.6C178.3,12.1,180.4,12.1,180.4,12.1z"/>
<path class="st2" d="M189.3,11.8c1.3,0,2.4,0.4,3.2,1.2s1.2,2,1.2,3.4V24h-2.2v-7.4c0-0.8-0.2-1.5-0.7-2s-1.1-0.7-1.9-0.7
	c-0.6,0-1.2,0.1-1.7,0.4c-0.5,0.3-0.9,0.6-1.2,1.1V24h-2.2V12.1h1.9l0.1,1.1C186.8,12.3,187.9,11.8,189.3,11.8z"/>
<path class="st2" d="M207.4,23.7V24h-2.3l-3.6-5.3l-2.2,2.4V24h-2.2V7.3h2.2V18l5.5-5.9h2.4v0.3l-4.3,4.7L207.4,23.7z"/>
</svg>
