<svg width="461" height="532" viewBox="0 0 461 532" fill="none" xmlns="http://www.w3.org/2000/svg">
<g filter="url(#filter0_d_59_4211)">
<rect x="4" width="453" height="524" fill="#FFA800"/>
</g>
<path d="M4 0H457V29H4V0Z" fill="#C4C4C4"/>
<path d="M53.6 16C53.6 21.5228 49.3019 26 44 26C38.6981 26 34.4 21.5228 34.4 16C34.4 10.4772 38.6981 6 44 6C49.3019 6 53.6 10.4772 53.6 16Z" fill="white"/>
<path d="M76 16C76 21.5228 71.7019 26 66.4 26C61.0981 26 56.8 21.5228 56.8 16C56.8 10.4772 61.0981 6 66.4 6C71.7019 6 76 10.4772 76 16Z" fill="white"/>
<path d="M31.2 16C31.2 21.5228 26.9019 26 21.6 26C16.2981 26 12 21.5228 12 16C12 10.4772 16.2981 6 21.6 6C26.9019 6 31.2 10.4772 31.2 16Z" fill="#FF029C"/>
<path d="M73 18.0706L69.0752 18.097L69.5159 21.6957L66.7066 19.1687L64.2553 22L64.214 18.3749L60.3167 18.785L63.0572 16.1918L60 13.9294L63.9248 13.903L63.4841 10.2911L66.2934 12.8313L68.7447 10L68.7722 13.6251L72.6833 13.215L69.929 15.8082L73 18.0706Z" fill="black"/>
<circle cx="44" cy="16" r="4" fill="black"/>
<path d="M88.9362 8.25602V15.12H95.3682V8.25602H97.6242V24H95.3682V17.16H88.9362V24H86.6802V8.25602H88.9362Z" fill="#FF029C"/>
<path d="M105.849 24.288C104.329 24.288 103.113 23.848 102.201 22.968C101.289 22.088 100.833 20.92 100.833 19.464V16.656C100.833 15.184 101.289 14.008 102.201 13.128C103.113 12.248 104.329 11.808 105.849 11.808C107.385 11.808 108.609 12.248 109.521 13.128C110.449 14.008 110.913 15.184 110.913 16.656V19.464C110.913 20.92 110.449 22.088 109.521 22.968C108.609 23.848 107.385 24.288 105.849 24.288ZM105.873 22.248C106.753 22.248 107.449 21.992 107.961 21.48C108.489 20.968 108.753 20.28 108.753 19.416V16.728C108.753 15.832 108.497 15.128 107.985 14.616C107.473 14.104 106.769 13.848 105.873 13.848C104.993 13.848 104.289 14.104 103.761 14.616C103.249 15.128 102.993 15.832 102.993 16.728V19.416C102.993 20.296 103.249 20.992 103.761 21.504C104.289 22 104.993 22.248 105.873 22.248Z" fill="#FF029C"/>
<path d="M126.383 11.808C127.775 11.808 128.863 12.216 129.647 13.032C130.447 13.848 130.847 14.984 130.847 16.44V24H128.687V16.608C128.687 15.76 128.447 15.088 127.967 14.592C127.503 14.096 126.879 13.848 126.095 13.848C125.535 13.848 125.015 13.976 124.535 14.232C124.055 14.488 123.671 14.84 123.383 15.288C123.447 15.608 123.479 15.992 123.479 16.44V24H121.319V16.608C121.319 15.76 121.079 15.088 120.599 14.592C120.135 14.096 119.511 13.848 118.727 13.848C118.183 13.848 117.679 13.968 117.215 14.208C116.767 14.448 116.399 14.776 116.111 15.192V24H113.951V12.096H115.895L115.967 13.032C116.815 12.216 117.895 11.808 119.207 11.808C119.943 11.808 120.607 11.952 121.199 12.24C121.791 12.512 122.271 12.912 122.639 13.44C123.071 12.912 123.599 12.512 124.223 12.24C124.863 11.952 125.583 11.808 126.383 11.808Z" fill="#FF029C"/>
<path d="M135.916 18.84V19.416C135.916 20.312 136.172 21.016 136.684 21.528C137.212 22.024 137.932 22.272 138.844 22.272C139.612 22.272 140.252 22.08 140.764 21.696C141.292 21.312 141.564 20.84 141.58 20.28H143.74C143.676 21.464 143.196 22.432 142.3 23.184C141.404 23.92 140.252 24.288 138.844 24.288C137.308 24.288 136.076 23.856 135.148 22.992C134.22 22.112 133.756 20.944 133.756 19.488V16.632C133.756 15.672 133.964 14.832 134.38 14.112C134.796 13.376 135.388 12.808 136.156 12.408C136.924 12.008 137.804 11.808 138.796 11.808C140.3 11.808 141.5 12.248 142.396 13.128C143.292 14.008 143.74 15.168 143.74 16.608V18.84H135.916ZM138.796 13.824C137.916 13.824 137.212 14.088 136.684 14.616C136.172 15.128 135.916 15.824 135.916 16.704V17.04H141.58V16.704C141.58 15.824 141.324 15.128 140.812 14.616C140.316 14.088 139.644 13.824 138.796 13.824Z" fill="#FF029C"/>
<path d="M160.299 8.25602C161.819 8.25602 163.019 8.65602 163.899 9.45602C164.779 10.24 165.219 11.32 165.219 12.696V13.056C165.219 14.432 164.779 15.52 163.899 16.32C163.019 17.104 161.819 17.496 160.299 17.496H156.291V24H154.035V8.25602H160.299ZM160.251 15.48C161.147 15.48 161.827 15.272 162.291 14.856C162.755 14.44 162.987 13.84 162.987 13.056V12.696C162.987 11.928 162.747 11.336 162.267 10.92C161.803 10.504 161.131 10.296 160.251 10.296H156.291V15.48H160.251Z" fill="#FF029C"/>
<path d="M177.377 12.096V24H175.433L175.337 22.92C174.473 23.832 173.353 24.288 171.977 24.288C170.633 24.288 169.569 23.872 168.785 23.04C168.001 22.208 167.609 21.072 167.609 19.632V12.096H169.793V19.464C169.793 20.312 170.025 20.992 170.489 21.504C170.953 22 171.585 22.248 172.385 22.248C173.009 22.248 173.569 22.112 174.065 21.84C174.561 21.552 174.945 21.168 175.217 20.688V12.096H177.377Z" fill="#FF029C"/>
<path d="M186.309 11.808C187.653 11.808 188.717 12.224 189.501 13.056C190.285 13.888 190.677 15.016 190.677 16.44V24H188.493V16.608C188.493 15.76 188.253 15.088 187.773 14.592C187.309 14.096 186.685 13.848 185.901 13.848C185.277 13.848 184.717 13.992 184.221 14.28C183.725 14.552 183.341 14.928 183.069 15.408V24H180.909V12.096H182.853L182.949 13.176C183.813 12.264 184.933 11.808 186.309 11.808Z" fill="#FF029C"/>
<path d="M204.385 23.664V24H202.081L198.433 18.744L196.273 21.096V24H194.113V7.29602H196.273V18.024L201.817 12.12H204.193V12.456L199.873 17.16L204.385 23.664Z" fill="#FF029C"/>
<defs>
<filter id="filter0_d_59_4211" x="0" y="0" width="461" height="532" filterUnits="userSpaceOnUse" color-interpolation-filters="sRGB">
<feFlood flood-opacity="0" result="BackgroundImageFix"/>
<feColorMatrix in="SourceAlpha" type="matrix" values="0 0 0 0 0 0 0 0 0 0 0 0 0 0 0 0 0 0 127 0" result="hardAlpha"/>
<feOffset dy="4"/>
<feGaussianBlur stdDeviation="2"/>
<feComposite in2="hardAlpha" operator="out"/>
<feColorMatrix type="matrix" values="0 0 0 0 0 0 0 0 0 0 0 0 0 0 0 0 0 0 0.25 0"/>
<feBlend mode="normal" in2="BackgroundImageFix" result="effect1_dropShadow_59_4211"/>
<feBlend mode="normal" in="SourceGraphic" in2="effect1_dropShadow_59_4211" result="shape"/>
</filter>
</defs>
</svg>
