<svg width="617" height="758" viewBox="0 0 617 758" fill="none" xmlns="http://www.w3.org/2000/svg">
<mask id="mask0_59_1125" style="mask-type:alpha" maskUnits="userSpaceOnUse" x="0" y="0" width="613" height="750">
<rect width="613" height="750" fill="#0066FF"/>
</mask>
<g mask="url(#mask0_59_1125)">
<g filter="url(#filter0_d_59_1125)">
<rect x="27" y="-20" width="613" height="771" fill="#0066FF"/>
</g>
</g>
<path d="M26 0H613V26H26V0Z" fill="#C4C4C4"/>
<path d="M73.4962 14.3448C73.4962 19.2963 69.3804 23.3103 64.3034 23.3103C59.2263 23.3103 55.1106 19.2963 55.1106 14.3448C55.1106 9.39327 59.2263 5.37927 64.3034 5.37927C69.3804 5.37927 73.4962 9.39327 73.4962 14.3448Z" fill="white"/>
<path d="M94.9461 14.3448C94.9461 19.2963 90.8304 23.3103 85.7533 23.3103C80.6762 23.3103 76.5605 19.2963 76.5605 14.3448C76.5605 9.39327 80.6762 5.37927 85.7533 5.37927C90.8304 5.37927 94.9461 9.39327 94.9461 14.3448Z" fill="white"/>
<path d="M52.0463 14.3448C52.0463 19.2963 47.9305 23.3103 42.8535 23.3103C37.7764 23.3103 33.6606 19.2963 33.6606 14.3448C33.6606 9.39327 37.7764 5.37927 42.8535 5.37927C47.9305 5.37927 52.0463 9.39327 52.0463 14.3448Z" fill="#FF029C"/>
<path d="M92.0734 16.2013L88.315 16.225L88.737 19.4514L86.0469 17.1858L83.6996 19.7242L83.66 16.4741L79.9281 16.8418L82.5523 14.5169L79.6248 12.4885L83.3831 12.4648L82.9611 9.22653L85.6513 11.504L87.9986 8.96558L88.0249 12.2157L91.7701 11.848L89.1326 14.1729L92.0734 16.2013Z" fill="black"/>
<ellipse cx="64.3035" cy="14.3449" rx="3.83034" ry="3.58621" fill="black"/>
<path d="M107.334 7.40195V13.5559H113.493V7.40195H115.653V21.5173H113.493V15.3848H107.334V21.5173H105.173V7.40195H107.334Z" fill="#FF029C"/>
<path d="M123.529 21.7755C122.074 21.7755 120.909 21.381 120.036 20.592C119.163 19.8031 118.726 18.7559 118.726 17.4505V14.933C118.726 13.6133 119.163 12.5589 120.036 11.77C120.909 10.981 122.074 10.5865 123.529 10.5865C125 10.5865 126.172 10.981 127.045 11.77C127.934 12.5589 128.378 13.6133 128.378 14.933V17.4505C128.378 18.7559 127.934 19.8031 127.045 20.592C126.172 21.381 125 21.7755 123.529 21.7755ZM123.552 19.9465C124.395 19.9465 125.061 19.717 125.552 19.2579C126.057 18.7989 126.31 18.1821 126.31 17.4075V14.9975C126.31 14.1942 126.065 13.5631 125.575 13.104C125.084 12.645 124.41 12.4155 123.552 12.4155C122.709 12.4155 122.035 12.645 121.53 13.104C121.039 13.5631 120.794 14.1942 120.794 14.9975V17.4075C120.794 18.1964 121.039 18.8204 121.53 19.2795C122.035 19.7242 122.709 19.9465 123.552 19.9465Z" fill="#FF029C"/>
<path d="M143.192 10.5865C144.525 10.5865 145.567 10.9523 146.318 11.6839C147.084 12.4155 147.467 13.434 147.467 14.7393V21.5173H145.398V14.8899C145.398 14.1297 145.169 13.5272 144.709 13.0825C144.265 12.6378 143.667 12.4155 142.916 12.4155C142.38 12.4155 141.882 12.5302 141.423 12.7597C140.963 12.9893 140.595 13.3048 140.319 13.7065C140.381 13.9934 140.411 14.3377 140.411 14.7393V21.5173H138.343V14.8899C138.343 14.1297 138.113 13.5272 137.653 13.0825C137.209 12.6378 136.612 12.4155 135.861 12.4155C135.34 12.4155 134.857 12.5231 134.413 12.7382C133.984 12.9534 133.632 13.2475 133.356 13.6204V21.5173H131.287V10.8447H133.149L133.218 11.6839C134.03 10.9523 135.064 10.5865 136.32 10.5865C137.025 10.5865 137.661 10.7156 138.228 10.9738C138.795 11.2177 139.255 11.5763 139.607 12.0497C140.021 11.5763 140.526 11.2177 141.124 10.9738C141.737 10.7156 142.426 10.5865 143.192 10.5865Z" fill="#FF029C"/>
<path d="M152.321 16.8911V17.4075C152.321 18.2108 152.566 18.8419 153.056 19.301C153.562 19.7457 154.252 19.968 155.125 19.968C155.86 19.968 156.473 19.7959 156.963 19.4516C157.469 19.1073 157.729 18.6842 157.745 18.1821H159.813C159.752 19.2436 159.292 20.1115 158.434 20.7857C157.576 21.4455 156.473 21.7755 155.125 21.7755C153.654 21.7755 152.474 21.3882 151.586 20.6135C150.697 19.8246 150.253 18.7774 150.253 17.472V14.9115C150.253 14.0508 150.452 13.2977 150.85 12.6522C151.249 11.9923 151.815 11.4831 152.551 11.1244C153.286 10.7658 154.129 10.5865 155.079 10.5865C156.519 10.5865 157.668 10.981 158.526 11.77C159.384 12.5589 159.813 13.5989 159.813 14.8899V16.8911H152.321ZM155.079 12.3939C154.236 12.3939 153.562 12.6306 153.056 13.104C152.566 13.5631 152.321 14.1871 152.321 14.976V15.2773H157.745V14.976C157.745 14.1871 157.5 13.5631 157.009 13.104C156.534 12.6306 155.891 12.3939 155.079 12.3939Z" fill="#FF029C"/>
<path d="M175.67 7.40195C177.125 7.40195 178.274 7.76057 179.117 8.47781C179.96 9.18071 180.381 10.149 180.381 11.3826V11.7054C180.381 12.9391 179.96 13.9145 179.117 14.6317C178.274 15.3346 177.125 15.6861 175.67 15.6861H171.832V21.5173H169.671V7.40195H175.67ZM175.624 13.8786C176.482 13.8786 177.133 13.6922 177.577 13.3192C178.021 12.9462 178.244 12.4083 178.244 11.7054V11.3826C178.244 10.6941 178.014 10.1633 177.554 9.79036C177.11 9.4174 176.466 9.23091 175.624 9.23091H171.832V13.8786H175.624Z" fill="#FF029C"/>
<path d="M192.023 10.8447V21.5173H190.162L190.07 20.549C189.243 21.3666 188.17 21.7755 186.852 21.7755C185.565 21.7755 184.547 21.4025 183.796 20.6566C183.045 19.9106 182.67 18.8922 182.67 17.6011V10.8447H184.761V17.4505C184.761 18.2108 184.983 18.8204 185.428 19.2795C185.872 19.7242 186.477 19.9465 187.243 19.9465C187.841 19.9465 188.377 19.8246 188.852 19.5807C189.327 19.3225 189.695 18.9782 189.955 18.5479V10.8447H192.023Z" fill="#FF029C"/>
<path d="M200.576 10.5865C201.863 10.5865 202.882 10.9595 203.633 11.7054C204.384 12.4513 204.759 13.4626 204.759 14.7393V21.5173H202.668V14.8899C202.668 14.1297 202.438 13.5272 201.978 13.0825C201.534 12.6378 200.936 12.4155 200.186 12.4155C199.588 12.4155 199.052 12.5446 198.577 12.8028C198.102 13.0466 197.734 13.3837 197.474 13.8141V21.5173H195.405V10.8447H197.267L197.359 11.813C198.186 10.9953 199.259 10.5865 200.576 10.5865Z" fill="#FF029C"/>
<path d="M217.885 21.216V21.5173H215.679L212.186 16.805L210.117 18.9137V21.5173H208.049V6.54126H210.117V16.1595L215.426 10.8662H217.702V11.1675L213.565 15.3848L217.885 21.216Z" fill="#FF029C"/>
<defs>
<filter id="filter0_d_59_1125" x="23" y="-20" width="621" height="779" filterUnits="userSpaceOnUse" color-interpolation-filters="sRGB">
<feFlood flood-opacity="0" result="BackgroundImageFix"/>
<feColorMatrix in="SourceAlpha" type="matrix" values="0 0 0 0 0 0 0 0 0 0 0 0 0 0 0 0 0 0 127 0" result="hardAlpha"/>
<feOffset dy="4"/>
<feGaussianBlur stdDeviation="2"/>
<feComposite in2="hardAlpha" operator="out"/>
<feColorMatrix type="matrix" values="0 0 0 0 0 0 0 0 0 0 0 0 0 0 0 0 0 0 0.25 0"/>
<feBlend mode="normal" in2="BackgroundImageFix" result="effect1_dropShadow_59_1125"/>
<feBlend mode="normal" in="SourceGraphic" in2="effect1_dropShadow_59_1125" result="shape"/>
</filter>
</defs>
</svg>
