<?xml version="1.0" encoding="utf-8"?>
<!-- Generator: Adobe Illustrator 26.0.2, SVG Export Plug-In . SVG Version: 6.00 Build 0)  -->
<svg version="1.1" id="Layer_1" xmlns="http://www.w3.org/2000/svg" xmlns:xlink="http://www.w3.org/1999/xlink" x="0px" y="0px"
	 viewBox="0 0 691 287" style="enable-background:new 0 0 691 287;" xml:space="preserve">
<style type="text/css">
	.st0{fill:#C4C4C4;}
	.st1{fill:#FFFFFF;}
	.st2{fill:#FF029C;}
	.st3{fill:#FFFFFF;stroke:#000000;}
	.st4{fill:none;stroke:#000000;}
	.st5{fill:#DEEC7D;}
	.st6{fill:#FFA800;}
	.st7{fill:#6DC5A5;}
	.st8{fill:#FC97D7;}
	.st9{fill:#FF9AD8;}
	.st10{fill:#AF58F4;}
	.st11{fill:#A0EAFB;}
</style>
<path class="st0" d="M0,0h690v42H0V0z"/>
<path class="st1" d="M50.4,19c0,5.5-4.3,10-9.6,10c-5.3,0-9.6-4.5-9.6-10s4.3-10,9.6-10C46.2,9,50.4,13.5,50.4,19z"/>
<path class="st1" d="M72.8,19c0,5.5-4.3,10-9.6,10c-5.3,0-9.6-4.5-9.6-10s4.3-10,9.6-10C68.5,9,72.8,13.5,72.8,19z"/>
<path class="st2" d="M28.1,19c0,5.5-4.3,10-9.6,10S9,24.5,9,19s4.3-10,9.6-10S28.1,13.5,28.1,19z"/>
<path d="M69.8,21.1l-3.9,0l0.4,3.6l-2.8-2.5L61.1,25l0-3.6l-3.9,0.4l2.7-2.6l-3-2.3l3.9,0l-0.4-3.6l2.8,2.5l2.4-2.8l0,3.6l3.9-0.4
	l-2.7,2.6L69.8,21.1z"/>
<ellipse cx="40.9" cy="19" rx="4" ry="4"/>
<path class="st2" d="M85.7,11.3v6.9h6.4v-6.9h2.2V27h-2.2v-6.8h-6.4V27h-2.2V11.3H85.7z"/>
<path class="st2" d="M102.5,27.3c-1.5,0-2.7-0.4-3.6-1.3c-0.9-0.9-1.4-2-1.4-3.5v-2.8c0-1.5,0.5-2.6,1.4-3.5
	c0.9-0.9,2.1-1.3,3.6-1.3c1.5,0,2.8,0.4,3.7,1.3c0.9,0.9,1.4,2.1,1.4,3.5v2.8c0,1.5-0.5,2.6-1.4,3.5
	C105.3,26.8,104.1,27.3,102.5,27.3z M102.6,25.2c0.9,0,1.6-0.3,2.1-0.8c0.5-0.5,0.8-1.2,0.8-2.1v-2.7c0-0.9-0.3-1.6-0.8-2.1
	c-0.5-0.5-1.2-0.8-2.1-0.8c-0.9,0-1.6,0.3-2.1,0.8c-0.5,0.5-0.8,1.2-0.8,2.1v2.7c0,0.9,0.3,1.6,0.8,2.1
	C101,25,101.7,25.2,102.6,25.2z"/>
<path class="st2" d="M123,14.8c1.4,0,2.5,0.4,3.3,1.2c0.8,0.8,1.2,2,1.2,3.4V27h-2.2v-7.4c0-0.8-0.2-1.5-0.7-2
	c-0.5-0.5-1.1-0.7-1.9-0.7c-0.6,0-1.1,0.1-1.6,0.4c-0.5,0.3-0.9,0.6-1.1,1.1c0.1,0.3,0.1,0.7,0.1,1.2V27H118v-7.4
	c0-0.8-0.2-1.5-0.7-2c-0.5-0.5-1.1-0.7-1.9-0.7c-0.5,0-1,0.1-1.5,0.4c-0.4,0.2-0.8,0.6-1.1,1V27h-2.2V15.1h1.9l0.1,0.9
	c0.8-0.8,1.9-1.2,3.2-1.2c0.7,0,1.4,0.1,2,0.4c0.6,0.3,1.1,0.7,1.4,1.2c0.4-0.5,1-0.9,1.6-1.2C121.5,15,122.2,14.8,123,14.8z"/>
<path class="st2" d="M132.5,21.8v0.6c0,0.9,0.3,1.6,0.8,2.1c0.5,0.5,1.2,0.7,2.2,0.7c0.8,0,1.4-0.2,1.9-0.6c0.5-0.4,0.8-0.9,0.8-1.4
	h2.2c-0.1,1.2-0.5,2.2-1.4,2.9c-0.9,0.7-2,1.1-3.4,1.1c-1.5,0-2.8-0.4-3.7-1.3c-0.9-0.9-1.4-2-1.4-3.5v-2.9c0-1,0.2-1.8,0.6-2.5
	c0.4-0.7,1-1.3,1.8-1.7c0.8-0.4,1.6-0.6,2.6-0.6c1.5,0,2.7,0.4,3.6,1.3c0.9,0.9,1.3,2,1.3,3.5v2.2H132.5z M135.4,16.8
	c-0.9,0-1.6,0.3-2.1,0.8c-0.5,0.5-0.8,1.2-0.8,2.1V20h5.6v-0.3c0-0.9-0.3-1.6-0.8-2.1C136.9,17.1,136.2,16.8,135.4,16.8z"/>
<path class="st2" d="M156.8,11.3c1.5,0,2.7,0.4,3.6,1.2c0.9,0.8,1.3,1.9,1.3,3.2v0.4c0,1.4-0.4,2.5-1.3,3.3
	c-0.9,0.8-2.1,1.2-3.6,1.2h-4V27h-2.2V11.3H156.8z M156.8,18.5c0.9,0,1.6-0.2,2-0.6c0.5-0.4,0.7-1,0.7-1.8v-0.4
	c0-0.8-0.2-1.4-0.7-1.8c-0.5-0.4-1.1-0.6-2-0.6h-3.9v5.2H156.8z"/>
<path class="st2" d="M173.8,15.1V27h-1.9l-0.1-1.1c-0.9,0.9-2,1.4-3.4,1.4c-1.3,0-2.4-0.4-3.2-1.2c-0.8-0.8-1.2-2-1.2-3.4v-7.5h2.2
	v7.4c0,0.8,0.2,1.5,0.7,2c0.5,0.5,1.1,0.7,1.9,0.7c0.6,0,1.2-0.1,1.7-0.4c0.5-0.3,0.9-0.7,1.1-1.2v-8.6H173.8z"/>
<path class="st2" d="M182.8,14.8c1.3,0,2.4,0.4,3.2,1.2c0.8,0.8,1.2,2,1.2,3.4V27h-2.2v-7.4c0-0.8-0.2-1.5-0.7-2
	c-0.5-0.5-1.1-0.7-1.9-0.7c-0.6,0-1.2,0.1-1.7,0.4c-0.5,0.3-0.9,0.6-1.1,1.1V27h-2.2V15.1h1.9l0.1,1.1
	C180.3,15.3,181.4,14.8,182.8,14.8z"/>
<path class="st2" d="M200.8,26.7V27h-2.3l-3.6-5.3l-2.2,2.4V27h-2.2V10.3h2.2V21l5.5-5.9h2.4v0.3l-4.3,4.7L200.8,26.7z"/>
<path class="st3" d="M690,42H4v244.5h686V42z"/>
<line class="st4" x1="325" y1="283.5" x2="325" y2="109.5"/>
<line class="st4" x1="49" y1="283.5" x2="49" y2="109.5"/>
<line class="st4" x1="100" y1="283.5" x2="100" y2="109.5"/>
<path class="st3" d="M690,42H1v244h689V42z"/>
<line class="st4" x1="49" y1="285.5" x2="49" y2="111.5"/>
<line class="st4" x1="100" y1="285.5" x2="100" y2="111.5"/>
<line class="st4" x1="138.2" y1="286.5" x2="138.2" y2="107"/>
<line class="st4" x1="180" y1="286.5" x2="180" y2="112.5"/>
<line class="st4" x1="222" y1="286.5" x2="222" y2="112.5"/>
<line class="st4" x1="275" y1="285.5" x2="275" y2="111.5"/>
<line class="st4" x1="321" y1="285.5" x2="321" y2="111.5"/>
<line class="st4" x1="370" y1="286.5" x2="370" y2="112.5"/>
<line class="st4" x1="419" y1="286.5" x2="419" y2="112.5"/>
<line class="st4" x1="470" y1="286.5" x2="470" y2="112.5"/>
<line class="st4" x1="526" y1="285.5" x2="526" y2="111.5"/>
<line class="st4" x1="586" y1="285.5" x2="586" y2="111.5"/>
<line class="st4" x1="642" y1="286.5" x2="642" y2="112.5"/>
<rect x="40" y="104" width="16" height="99"/>
<rect x="90" y="104" width="16" height="99"/>
<rect x="363" y="104" width="16" height="99"/>
<rect x="413" y="104" width="16" height="99"/>
<rect x="468" y="104" width="16" height="99"/>
<rect x="579" y="104" width="16" height="99"/>
<rect x="626" y="104" width="16" height="99"/>
<rect x="168" y="104" width="16" height="99"/>
<rect x="215" y="104" width="16" height="99"/>
<rect x="262" y="104" width="16" height="99"/>
<path class="st5" d="M690,112H1V39h689V112z"/>
<ellipse class="st6" cx="47.1" cy="83.8" rx="8.1" ry="8.2"/>
<ellipse class="st7" cx="73.3" cy="83.8" rx="8.1" ry="8.2"/>
<ellipse class="st8" cx="99.5" cy="83.8" rx="8.1" ry="8.2"/>
<ellipse class="st9" cx="584" cy="83.8" rx="8" ry="8.2"/>
<ellipse class="st10" cx="610" cy="83.8" rx="8" ry="8.2"/>
<ellipse class="st11" cx="636" cy="83.8" rx="8" ry="8.2"/>
</svg>
