<svg width="371" height="411" viewBox="0 0 371 411" fill="none" xmlns="http://www.w3.org/2000/svg">
<g filter="url(#filter0_d_56_2)">
<rect x="4" width="363" height="403" fill="#AE4BFB"/>
</g>
<path d="M3 0H367V29H3V0Z" fill="#C4C4C4"/>
<path d="M52.6 16C52.6 21.5228 48.3019 26 43 26C37.6981 26 33.4 21.5228 33.4 16C33.4 10.4772 37.6981 6 43 6C48.3019 6 52.6 10.4772 52.6 16Z" fill="white"/>
<path d="M75 16C75 21.5228 70.7019 26 65.4 26C60.0981 26 55.8 21.5228 55.8 16C55.8 10.4772 60.0981 6 65.4 6C70.7019 6 75 10.4772 75 16Z" fill="white"/>
<path d="M30.2 16C30.2 21.5228 25.9019 26 20.6 26C15.2981 26 11 21.5228 11 16C11 10.4772 15.2981 6 20.6 6C25.9019 6 30.2 10.4772 30.2 16Z" fill="#FF029C"/>
<path d="M72 18.0706L68.0752 18.097L68.5159 21.6957L65.7066 19.1687L63.2553 22L63.214 18.3749L59.3167 18.785L62.0572 16.1918L59 13.9294L62.9248 13.903L62.4841 10.2911L65.2934 12.8313L67.7447 10L67.7722 13.6251L71.6833 13.215L68.929 15.8082L72 18.0706Z" fill="black"/>
<circle cx="43" cy="16" r="4" fill="black"/>
<path d="M87.9362 8.25602V15.12H94.3682V8.25602H96.6242V24H94.3682V17.16H87.9362V24H85.6802V8.25602H87.9362Z" fill="#FF029C"/>
<path d="M104.849 24.288C103.329 24.288 102.113 23.848 101.201 22.968C100.289 22.088 99.833 20.92 99.833 19.464V16.656C99.833 15.184 100.289 14.008 101.201 13.128C102.113 12.248 103.329 11.808 104.849 11.808C106.385 11.808 107.609 12.248 108.521 13.128C109.449 14.008 109.913 15.184 109.913 16.656V19.464C109.913 20.92 109.449 22.088 108.521 22.968C107.609 23.848 106.385 24.288 104.849 24.288ZM104.873 22.248C105.753 22.248 106.449 21.992 106.961 21.48C107.489 20.968 107.753 20.28 107.753 19.416V16.728C107.753 15.832 107.497 15.128 106.985 14.616C106.473 14.104 105.769 13.848 104.873 13.848C103.993 13.848 103.289 14.104 102.761 14.616C102.249 15.128 101.993 15.832 101.993 16.728V19.416C101.993 20.296 102.249 20.992 102.761 21.504C103.289 22 103.993 22.248 104.873 22.248Z" fill="#FF029C"/>
<path d="M125.383 11.808C126.775 11.808 127.863 12.216 128.647 13.032C129.447 13.848 129.847 14.984 129.847 16.44V24H127.687V16.608C127.687 15.76 127.447 15.088 126.967 14.592C126.503 14.096 125.879 13.848 125.095 13.848C124.535 13.848 124.015 13.976 123.535 14.232C123.055 14.488 122.671 14.84 122.383 15.288C122.447 15.608 122.479 15.992 122.479 16.44V24H120.319V16.608C120.319 15.76 120.079 15.088 119.599 14.592C119.135 14.096 118.511 13.848 117.727 13.848C117.183 13.848 116.679 13.968 116.215 14.208C115.767 14.448 115.399 14.776 115.111 15.192V24H112.951V12.096H114.895L114.967 13.032C115.815 12.216 116.895 11.808 118.207 11.808C118.943 11.808 119.607 11.952 120.199 12.24C120.791 12.512 121.271 12.912 121.639 13.44C122.071 12.912 122.599 12.512 123.223 12.24C123.863 11.952 124.583 11.808 125.383 11.808Z" fill="#FF029C"/>
<path d="M134.916 18.84V19.416C134.916 20.312 135.172 21.016 135.684 21.528C136.212 22.024 136.932 22.272 137.844 22.272C138.612 22.272 139.252 22.08 139.764 21.696C140.292 21.312 140.564 20.84 140.58 20.28H142.74C142.676 21.464 142.196 22.432 141.3 23.184C140.404 23.92 139.252 24.288 137.844 24.288C136.308 24.288 135.076 23.856 134.148 22.992C133.22 22.112 132.756 20.944 132.756 19.488V16.632C132.756 15.672 132.964 14.832 133.38 14.112C133.796 13.376 134.388 12.808 135.156 12.408C135.924 12.008 136.804 11.808 137.796 11.808C139.3 11.808 140.5 12.248 141.396 13.128C142.292 14.008 142.74 15.168 142.74 16.608V18.84H134.916ZM137.796 13.824C136.916 13.824 136.212 14.088 135.684 14.616C135.172 15.128 134.916 15.824 134.916 16.704V17.04H140.58V16.704C140.58 15.824 140.324 15.128 139.812 14.616C139.316 14.088 138.644 13.824 137.796 13.824Z" fill="#FF029C"/>
<path d="M159.299 8.25602C160.819 8.25602 162.019 8.65602 162.899 9.45602C163.779 10.24 164.219 11.32 164.219 12.696V13.056C164.219 14.432 163.779 15.52 162.899 16.32C162.019 17.104 160.819 17.496 159.299 17.496H155.291V24H153.035V8.25602H159.299ZM159.251 15.48C160.147 15.48 160.827 15.272 161.291 14.856C161.755 14.44 161.987 13.84 161.987 13.056V12.696C161.987 11.928 161.747 11.336 161.267 10.92C160.803 10.504 160.131 10.296 159.251 10.296H155.291V15.48H159.251Z" fill="#FF029C"/>
<path d="M176.377 12.096V24H174.433L174.337 22.92C173.473 23.832 172.353 24.288 170.977 24.288C169.633 24.288 168.569 23.872 167.785 23.04C167.001 22.208 166.609 21.072 166.609 19.632V12.096H168.793V19.464C168.793 20.312 169.025 20.992 169.489 21.504C169.953 22 170.585 22.248 171.385 22.248C172.009 22.248 172.569 22.112 173.065 21.84C173.561 21.552 173.945 21.168 174.217 20.688V12.096H176.377Z" fill="#FF029C"/>
<path d="M185.309 11.808C186.653 11.808 187.717 12.224 188.501 13.056C189.285 13.888 189.677 15.016 189.677 16.44V24H187.493V16.608C187.493 15.76 187.253 15.088 186.773 14.592C186.309 14.096 185.685 13.848 184.901 13.848C184.277 13.848 183.717 13.992 183.221 14.28C182.725 14.552 182.341 14.928 182.069 15.408V24H179.909V12.096H181.853L181.949 13.176C182.813 12.264 183.933 11.808 185.309 11.808Z" fill="#FF029C"/>
<path d="M203.385 23.664V24H201.081L197.433 18.744L195.273 21.096V24H193.113V7.29602H195.273V18.024L200.817 12.12H203.193V12.456L198.873 17.16L203.385 23.664Z" fill="#FF029C"/>
<defs>
<filter id="filter0_d_56_2" x="0" y="0" width="371" height="411" filterUnits="userSpaceOnUse" color-interpolation-filters="sRGB">
<feFlood flood-opacity="0" result="BackgroundImageFix"/>
<feColorMatrix in="SourceAlpha" type="matrix" values="0 0 0 0 0 0 0 0 0 0 0 0 0 0 0 0 0 0 127 0" result="hardAlpha"/>
<feOffset dy="4"/>
<feGaussianBlur stdDeviation="2"/>
<feComposite in2="hardAlpha" operator="out"/>
<feColorMatrix type="matrix" values="0 0 0 0 0 0 0 0 0 0 0 0 0 0 0 0 0 0 0.25 0"/>
<feBlend mode="normal" in2="BackgroundImageFix" result="effect1_dropShadow_56_2"/>
<feBlend mode="normal" in="SourceGraphic" in2="effect1_dropShadow_56_2" result="shape"/>
</filter>
</defs>
</svg>
