<svg width="255" height="334" viewBox="0 0 255 334" fill="none" xmlns="http://www.w3.org/2000/svg">
<rect width="255" height="250" rx="50" fill="white"/>
<path d="M178.508 190.173L141.34 165.454L127.452 209L114.254 165.214L76.6903 189.283L93.6548 146.927L50 140.254L89.1675 119.146L59.8579 84.8534L102.914 94.8672L101.655 49L128.447 85.4537L155.827 49.4802L153.827 95.3074L197.036 86.0539L167.168 119.827L206 141.615L162.244 147.527L178.508 190.173Z" fill="black"/>
<path d="M36.6562 299V272.668H39.4688V284.27H52.4062V272.668H55.2188V299H52.4062V286.625H39.4688V299H36.6562ZM63.1641 289.543C63.1641 291.934 63.7148 293.832 64.8164 295.238C65.918 296.645 67.2891 297.348 68.9297 297.348C70.5469 297.348 71.9062 296.645 73.0078 295.238C74.1328 293.832 74.6953 291.934 74.6953 289.543C74.6953 287.105 74.1328 285.195 73.0078 283.812C71.8828 282.43 70.5234 281.738 68.9297 281.738C67.3125 281.738 65.9414 282.43 64.8164 283.812C63.7148 285.195 63.1641 287.105 63.1641 289.543ZM60.4219 289.543C60.4219 286.66 61.1602 284.258 62.6367 282.336C64.1367 280.414 66.2344 279.453 68.9297 279.453C71.6016 279.453 73.6875 280.414 75.1875 282.336C76.6875 284.258 77.4375 286.66 77.4375 289.543C77.4375 290.762 77.2734 291.945 76.9453 293.094C76.6406 294.242 76.1602 295.32 75.5039 296.328C74.8711 297.312 73.9805 298.109 72.832 298.719C71.707 299.328 70.4062 299.633 68.9297 299.633C67.4766 299.633 66.1758 299.34 65.0273 298.754C63.9023 298.145 63.0117 297.348 62.3555 296.363C61.7227 295.355 61.2422 294.277 60.9141 293.129C60.5859 291.98 60.4219 290.785 60.4219 289.543ZM81.7969 299V280.086H84.4688V282.934C84.7969 282.066 85.418 281.27 86.332 280.543C87.2461 279.816 88.4062 279.453 89.8125 279.453C91.1953 279.453 92.25 279.852 92.9766 280.648C93.7031 281.422 94.2656 282.43 94.6641 283.672C94.7812 283.367 94.9688 283.016 95.2266 282.617C95.4844 282.219 95.8477 281.762 96.3164 281.246C96.7852 280.73 97.4062 280.309 98.1797 279.98C98.9766 279.629 99.8438 279.453 100.781 279.453C104.438 279.453 106.266 281.891 106.266 286.766V299H103.523V286.977C103.523 285.242 103.289 283.941 102.82 283.074C102.352 282.184 101.461 281.738 100.148 281.738C98.7891 281.738 97.6523 282.312 96.7383 283.461C95.8242 284.586 95.3672 286.016 95.3672 287.75V299H92.6953V286.941C92.6953 283.473 91.5469 281.738 89.25 281.738C87.8203 281.738 86.6719 282.277 85.8047 283.355C84.9609 284.434 84.5391 285.84 84.5391 287.574V299H81.7969ZM110.414 289.402C110.414 286.449 111.211 284.059 112.805 282.23C114.398 280.379 116.461 279.453 118.992 279.453C121.57 279.453 123.598 280.355 125.074 282.16C126.551 283.941 127.289 286.227 127.289 289.016C127.289 289.344 127.266 289.812 127.219 290.422H113.156C113.156 292.32 113.684 293.949 114.738 295.309C115.793 296.668 117.258 297.348 119.133 297.348C120.352 297.348 121.43 297.066 122.367 296.504C123.305 295.918 124.031 295.145 124.547 294.184L126.867 294.887C126.281 296.27 125.332 297.406 124.02 298.297C122.707 299.188 121.078 299.633 119.133 299.633C116.508 299.633 114.398 298.695 112.805 296.82C111.211 294.945 110.414 292.473 110.414 289.402ZM113.227 288.348H124.547C124.547 286.496 124.043 284.938 123.035 283.672C122.027 282.383 120.68 281.738 118.992 281.738C117.281 281.738 115.898 282.395 114.844 283.707C113.812 285.02 113.273 286.566 113.227 288.348ZM141.211 299V272.668H151.125C153.68 272.668 155.695 273.371 157.172 274.777C158.672 276.184 159.422 278.047 159.422 280.367C159.422 282.758 158.66 284.645 157.137 286.027C155.613 287.41 153.609 288.102 151.125 288.102H144.023V299H141.211ZM144.023 285.746H150.703C152.555 285.746 153.984 285.301 154.992 284.41C156.023 283.496 156.539 282.148 156.539 280.367C156.539 278.633 156.023 277.32 154.992 276.43C153.984 275.516 152.531 275.059 150.633 275.059H144.023V285.746ZM162.973 292.355V280.086H165.715V291.793C165.715 295.496 167.074 297.348 169.793 297.348C171.457 297.348 172.723 296.703 173.59 295.414C174.48 294.125 174.926 292.602 174.926 290.844V280.086H177.598V299H174.996V295.941C174.809 296.715 174.223 297.523 173.238 298.367C172.277 299.211 170.918 299.633 169.16 299.633C167.355 299.633 165.867 299.023 164.695 297.805C163.547 296.562 162.973 294.746 162.973 292.355ZM183.258 299V280.086H185.93V283.32H185.965C186.246 282.383 186.938 281.504 188.039 280.684C189.141 279.863 190.453 279.453 191.977 279.453C193.734 279.453 195.176 280.004 196.301 281.105C197.449 282.207 198.023 284.094 198.023 286.766V299H195.281V287.223C195.281 283.566 193.969 281.738 191.344 281.738C189.891 281.738 188.637 282.324 187.582 283.496C186.527 284.668 186 286.074 186 287.715V299H183.258ZM203.719 299V271.684H206.461V289.578L214.688 280.086H218.273L211.523 287.645L219.047 299H215.742L209.766 289.543L206.461 293.234V299H203.719Z" fill="white"/>
</svg>
