<?xml version="1.0" encoding="utf-8"?>
<!-- Generator: Adobe Illustrator 26.0.2, SVG Export Plug-In . SVG Version: 6.00 Build 0)  -->
<svg version="1.1" id="Layer_1" xmlns="http://www.w3.org/2000/svg" xmlns:xlink="http://www.w3.org/1999/xlink" x="0px" y="0px"
	 viewBox="0 0 64 67" style="enable-background:new 0 0 64 67;" xml:space="preserve">
<style type="text/css">
	.st0{fill:#FBFBFB;stroke:#FFFFFF;stroke-miterlimit:10;}
	.st1{fill:#FEFEFE;stroke:#FFFFFF;stroke-miterlimit:10;}
	.st2{fill:#FFFFFF;stroke:#FFFFFF;stroke-miterlimit:10;}
</style>
<path class="st0" d="M13.6,26l-0.2,0.4c0-0.1,0-0.1,0-0.2C13.5,26.1,13.5,26,13.6,26L13.6,26z"/>
<path class="st0" d="M12.6,34.3C12.6,34.4,12.7,34.4,12.6,34.3C12.7,34.4,12.7,34.4,12.6,34.3c0,0.1,0,0.1,0,0.1c0,0,0,0,0,0
	L12.6,34.3L12.6,34.3z"/>
<path class="st1" d="M12.2,33.2C12.2,33.2,12.2,33.3,12.2,33.2C12.2,33.3,12.2,33.3,12.2,33.2c0,0.1,0,0.1,0,0.1c0,0,0,0,0,0
	l-0.1-0.1L12.2,33.2z"/>
<path class="st0" d="M14.4,20.9l0.1-0.1c0,0,0,0,0,0C14.5,20.9,14.5,21,14.4,20.9L14.4,20.9z"/>
<path class="st0" d="M12.3,35.2L12.3,35.2C12.3,35.3,12.3,35.3,12.3,35.2L12.3,35.2z"/>
<path class="st0" d="M10.6,33.9l0.1,0.1c0,0-0.1,0-0.1,0L10.6,33.9L10.6,33.9z"/>
<path class="st0" d="M10.6,34L10.6,34C10.5,33.9,10.6,33.9,10.6,34C10.6,33.9,10.6,33.9,10.6,34L10.6,34z"/>
<path class="st0" d="M12.8,29.9L12.8,29.9L12.8,29.9L12.8,29.9L12.8,29.9z"/>
<path class="st0" d="M17.1,19.7L17.1,19.7L17.1,19.7C17.1,19.7,17.1,19.7,17.1,19.7L17.1,19.7z"/>
<path class="st0" d="M16.1,18.7L16.1,18.7L16.1,18.7C16.1,18.7,16.1,18.7,16.1,18.7L16.1,18.7z"/>
<path class="st0" d="M40.6,13.2l-0.1,0.1C40.5,13.2,40.5,13.1,40.6,13.2C40.6,13.1,40.6,13.2,40.6,13.2z"/>
<path class="st0" d="M43.7,12.3l0.1-0.1C43.8,12.3,43.7,12.4,43.7,12.3L43.7,12.3z"/>
<path class="st2" d="M36.3,51.9c-0.6-0.3-1.3-0.4-1.8-0.6c-1-0.3-2-0.6-2.7-1.5c-0.2-0.3-0.4,0-0.6,0.1c-0.1,0.1-0.3,0.5-0.1,0.6
	c0.3,0.2,0.2,0.4,0.1,0.5c-0.3,0.4-0.5,0.8-0.5,1.4c0.4-0.2,0.6-0.5,0.8-0.8c0.1-0.1,0.2-0.3,0.3-0.1c0.1,0.1,0.1,0.3,0,0.4
	c-0.2,0.3-0.4,0.5-0.7,0.7c-0.8,0.6-1.5,1.4-1.9,2.3c-0.7,1.2-1.4,1.4-2.6,1.1c-1.4-0.4-2.8-1-4.2-1.4c-0.8-0.2-1.6-0.3-2.1-0.9
	c-0.3-0.4-0.7-0.5-1.3-0.6c-1.6-0.2-2.8-1.1-3.4-2.8c-0.4-1.2-0.7-2.4-1-3.6c-0.2-1-0.5-2-0.6-3c-0.1-0.7-0.1-1.5,0-2.2
	c0.1-0.5,0-0.9-0.3-1.2c-0.4-0.7-0.8-1.4-1.1-2.2c-0.1-0.2-0.2-0.3-0.4-0.5c-1.3-1.1-1.9-2.5-2.1-4.3c-0.1-1-0.3-1.8-0.6-2.7
	c-0.6-1.5-0.5-3.1-0.1-4.7c0.2-0.8,0.3-1.7,0.6-2.5c0.8-1.8,2-3.4,3.5-4.6c1-0.8,2-1.7,3.1-2.4c1-0.6,2.1-0.9,3.2-0.6
	c0.2,0.1,0.4,0,0.6,0c1.6-0.4,3.2-0.3,4.6,0.4c0.9,0.4,1.6,1.1,2.2,1.8c0.3,0.4,0.6,0.8,1.2,0.9c0.1,0,0.1,0.1,0.2,0.1
	c1.7,1.8,3.4,3.5,4.8,5.5c0.2,0.3,0.3,0.5,0.5,0.8c0.2-0.2,0.4-0.5,0.6-0.7c1-1.3,2.4-2.2,3.9-2.6c0.9-0.2,1.7-0.6,2.6-0.9
	c2-0.7,4-1.1,6.1-0.8c1,0.1,1.9,0.4,2.6,1.2c0.2,0.2,0.3,0.1,0.5,0.1c0.9-0.1,1.8-0.2,2.6,0c0.6,0.2,1,0.6,1.1,1.4
	c0.1,0.6-0.1,1.1-0.2,1.7c0,0.2,0,0.2,0.1,0.3c1.4,1.4,1.3,3.3-0.3,4.6c-0.3,0.2-0.5,0.5-0.5,0.8c-0.1,0.3-0.2,0.6-0.5,0.9
	c0,0-0.1,0.1-0.1,0.1c0.1,0.8-0.7,0.6-1,0.9c-0.4,0.4-0.9,0.5-1.4,0.6c-0.6,0.1-1.2,0.1-1.8,0.2c-1.4,0.2-2.9,0.4-4.2,1.1
	c-0.9,0.5-1.6,1.1-1.8,2.2c-0.1,0.4-0.3,0.1-0.4,0c-0.2,0.3-0.4,0.7-0.7,1c-0.3,0.3-0.3,0.6-0.1,1c0.4,1.2,0.8,2.5,1.5,3.6
	c0.1,0.2,0.2,0.3,0.5,0.2c1.1-0.6,2.3-1,3.6-1.1c1.5-0.1,2.7-1,4-1.8c0.3-0.1,0.5-0.3,0.8-0.5c0.3-0.2,0.5-0.1,0.4,0.3
	c-0.1,0.8,0.1,1.6,0.2,2.4c0.2,1.5,0,3.1-0.6,4.5c-0.4,1.2-1.3,2.1-2,3.1c-0.2,0.3-0.5,0.6-0.8,0.9c-0.9,1.1-2,1.6-3.3,2
	c-1.1,0.3-2.1,0.7-3.2,1c-1.6,0.4-3.3,0.6-4.7-0.1c-1.4-0.6-2.8-0.9-4.2-1.2c-0.5-0.1-1-0.4-1.5-0.2c0,0,0,0,0,0c0,0,0,0,0,0
	c0,0,0,0,0,0c0,0,0,0,0,0c0,0,0-0.1,0-0.1c0,0,0.1-0.1,0.1-0.1c0.2-0.1,0.5,0,0.7,0c1.2,0.4,2.4,0.4,3.6,0.8
	C36.1,52,36.1,52,36.3,51.9z M29.7,22c0,0.1,0,0.1,0,0.1c0,0.1,0.1,0.2,0.1,0.3l0.1,0.2c0,0.1,0,0.2,0.1,0.2c0,0.1,0.1,0.1,0.1,0.2
	c0,0.1,0.1,0.2,0.1,0.3l0.1,0.1c0,0.1,0,0.2,0.2,0.2c0-0.1,0-0.2-0.1-0.2l0-0.1c0-0.1-0.1-0.2-0.1-0.3L30,22.6l-0.1-0.2
	c0-0.1-0.1-0.2-0.1-0.3L29.7,22c0-0.1,0-0.1,0-0.1l0-0.1l-0.1-0.2c0-0.1,0-0.1-0.1-0.1l0-0.1l-0.1,0l0,0.1l0,0.1
	c0,0.1,0,0.1,0.1,0.2l0.1,0.1L29.7,22z M41.2,40.2L41.2,40.2L41.2,40.2L41.2,40.2l0,0.1c0.1,1,0.4,1.7,0.9,1.7
	c-0.3-0.5-0.6-1.1-0.8-1.7C41.3,40.3,41.3,40.2,41.2,40.2L41.2,40.2z M40.4,23.5l0.1,0c0.1-0.1,0.2-0.1,0.3-0.2c-0.1,0-0.1,0-0.2,0
	s-0.1,0.1-0.1,0.1L40.4,23.5l-0.1,0c-0.1,0-0.1,0.1-0.2,0.1c0,0-0.1,0.1-0.1,0.1c0,0,0.1,0,0.1,0l0.2-0.1L40.4,23.5z M32.2,26.1
	l0,0.1l0.1,0.2c0,0.1,0,0.1,0,0.2c0,0,0.1,0.1,0.1,0.1c0,0.1,0,0.1,0.1,0.1c0,0,0,0,0,0c0,0,0,0,0,0c0,0,0-0.1-0.1-0.1
	c0.1-0.2-0.1-0.2-0.1-0.3c0-0.1-0.1-0.1-0.1-0.2C32.3,26.1,32.3,26.1,32.2,26.1L32.2,26.1L32.2,26.1L32.2,26.1z M10.6,33.9
	C10.6,33.9,10.6,33.9,10.6,33.9C10.6,33.9,10.5,33.9,10.6,33.9L10.6,33.9l0,0.1c0.1,0.7,0.3,1.3,0.7,1.8c0.2,0.3,0.4,0.7,0.8,0.9
	l0,0.1l0.1,0l0-0.1L10.7,34L10.6,33.9z M44.7,49.3l-0.1,0.1l-0.1,0.1l-0.1,0.1l-0.1,0.1l-0.1,0.1l-0.1,0l0,0c0,0,0,0,0-0.1
	c0.1,0,0.1,0.1,0.1-0.1c0,0.1,0.1,0,0.1,0l0.1,0l0.1,0L44.7,49.3l0.1,0c0.1,0,0.2-0.1,0.2-0.1l0.4-0.2c0.2-0.1,0.4-0.2,0.5-0.4
	c-0.2,0.1-0.4,0.2-0.5,0.3c-0.1,0-0.3,0.1-0.4,0.2l-0.2,0.1L44.7,49.3z M13.5,39.2L13.5,39.2L13.5,39.2c0,0,0.1-0.1,0-0.1
	c0.1-0.2,0-0.4-0.1-0.6c-0.2,0.2-0.1,0.4,0.1,0.6L13.5,39.2z M43.6,49.3l-0.1,0.1l-0.1,0.1l-0.1,0.1l-0.1,0.1L43,49.6l-0.1,0.1
	l-0.1,0c0,0-0.1,0-0.1,0.1c0,0,0.1,0,0.1,0l0.1-0.1l0.1,0c0,0,0.1,0,0.1-0.1l0.1-0.1l0.1-0.1l0.1-0.1L43.6,49.3l0.1,0
	c0.1,0,0.2,0,0.2-0.1C43.8,49.1,43.7,49.2,43.6,49.3L43.6,49.3z M13.5,37.7l0,0.1c0,0.2,0,0.4,0.3,0.5c-0.1-0.2-0.2-0.4-0.2-0.5
	L13.5,37.7c0.1-0.1,0-0.2,0-0.1l0-0.1l-0.1,0l0,0.1L13.5,37.7z M22.6,46.1L22.6,46.1C22.6,46.2,22.6,46.2,22.6,46.1
	C22.6,46.1,22.6,46.1,22.6,46.1c0.1-0.1,0.1-0.1,0-0.2c0-0.2,0-0.4-0.1-0.6c-0.1,0.3-0.1,0.5,0,0.7C22.5,46,22.5,46,22.6,46.1z
	 M42.4,49.9C42.4,49.9,42.4,49.9,42.4,49.9C42.4,49.9,42.4,49.9,42.4,49.9c0.1,0,0.1,0,0.1,0c0,0,0,0,0,0c0,0,0,0,0,0
	C42.5,49.8,42.4,49.8,42.4,49.9C42.3,49.9,42.3,49.9,42.4,49.9L42.4,49.9z M40.5,23.7l-0.2,0.1c-0.1,0-0.1,0.1-0.2,0.1
	c-0.5,0.3-1,0.6-1.6,1c-0.5,0.3-1.1,0.5-1.6,0.8L37,25.7l0.1,0c0.5-0.1,1-0.2,1.5-0.3c0.2,0,0.3-0.1,0.4-0.2c0.5-0.5,1-0.9,1.4-1.4
	C40.5,23.8,40.5,23.8,40.5,23.7L40.5,23.7L40.5,23.7L40.5,23.7z M23.8,41.7C23.9,41.8,23.9,41.8,23.8,41.7
	C24,41.8,23.9,41.7,23.8,41.7c0.1-0.1,0.1-0.2,0-0.2C23.8,41.6,23.8,41.7,23.8,41.7L23.8,41.7z M38.7,22.6l0.2-0.1
	c0.5-0.2,1-0.5,1.6-0.3c0.2,0.1,0.4,0.5,0.7,0.3c0.2-0.1,0.4-0.4,0.6-0.7c0,0,0,0,0,0l0.1,0l0,0l-0.1,0c-0.5-0.1-1,0-1.6,0
	c-0.5,0-1,0.2-1.4,0.6L38.7,22.6C38.7,22.5,38.6,22.6,38.7,22.6C38.7,22.6,38.7,22.6,38.7,22.6L38.7,22.6z M43.1,33.4
	c0.1,0.1,0.1,0.1,0.2,0c0.3,0,0.6,0,0.8-0.3c0,0,0,0,0.1-0.1c0,0-0.1,0-0.1,0c-0.3,0.1-0.5,0.2-0.8,0.3L43.1,33.4
	C43.1,33.4,43.1,33.4,43.1,33.4C43.1,33.4,43.1,33.4,43.1,33.4L43.1,33.4z M17.7,49.6L17.7,49.6L17.7,49.6L17.7,49.6
	c0-0.1,0-0.1-0.1-0.2l0-0.1l-0.4-1.4l-0.1-0.1c-0.1,0.1-0.1,0.1,0,0.2c0,0.5,0.1,1,0.4,1.4l0.1,0.1C17.6,49.5,17.6,49.6,17.7,49.6z
	 M29.7,28.7L29.7,28.7L29.7,28.7L29.7,28.7c0,0.1,0,0.1,0.1,0.2c0.2,0.5,0.6,1,0.9,1.4c0-0.7-0.5-1-0.9-1.5
	C29.8,28.7,29.8,28.7,29.7,28.7L29.7,28.7z M16.1,48.5L16.1,48.5C16.1,48.5,16.1,48.5,16.1,48.5C16.1,48.5,16.1,48.5,16.1,48.5
	L16,48.3c-0.3-1.3-0.3-2.6-0.3-4c0-0.7-0.3-1.1-0.6-1.6c-0.1-0.1-0.1-0.2-0.2-0.1c-0.1,0-0.1,0.2-0.1,0.2c0,0.4,0,0.8-0.1,1.2
	c-0.1,1.6,0.2,3.1,1.2,4.3C15.9,48.4,16,48.5,16.1,48.5z M29.4,28.9C29.4,28.9,29.4,28.9,29.4,28.9C29.3,28.9,29.4,28.9,29.4,28.9
	l0,0.2c0.4,1.2,0.7,2.4,0.9,3.7c0,0.2,0,0.4,0.1,0.5c0,0,0,0.1,0,0.1c0,0,0,0,0,0c0,0,0-0.1,0-0.1c0.1-0.2,0.2-0.4,0-0.5
	c0.1-0.6,0.2-1.1,0.2-1.7c0-0.1,0-0.3-0.1-0.4c-0.3-0.5-0.7-1.1-1-1.6C29.5,29.1,29.5,29,29.4,28.9C29.5,29,29.5,28.9,29.4,28.9
	L29.4,28.9z M38.4,22.2l-0.2,0c-1.7,0.5-3,1.6-3.9,3.1c-0.1,0.2-0.1,0.2,0,0.5c0.4-0.5,0.8-0.8,1.3-1.2c1-0.6,1.8-1.5,2.7-2.3
	C38.3,22.4,38.4,22.3,38.4,22.2C38.4,22.3,38.4,22.3,38.4,22.2C38.5,22.2,38.5,22.2,38.4,22.2L38.4,22.2z M22.4,48.6L22.4,48.6
	L22.4,48.6l0-0.2c0-0.6-0.2-1.1-0.4-1.7c0-0.1,0-0.1-0.1-0.1c-0.1,0,0,0.1,0,0.1c0,0.6,0.2,1.2,0.4,1.7L22.4,48.6z M22.5,42.8
	c0.1-0.1,0-0.1,0-0.1c-0.1-0.3-0.2-0.5-0.4-0.7c0,0,0-0.1,0-0.1c0,0,0,0.1,0,0.1c-0.1,0.4,0.2,0.5,0.4,0.7L22.5,42.8
	C22.5,42.9,22.5,42.9,22.5,42.8C22.5,42.9,22.5,42.9,22.5,42.8C22.5,42.9,22.6,42.9,22.5,42.8c0.1,0.1,0.1,0.1,0.1,0.1c0,0,0,0,0,0
	L22.5,42.8z M32.9,32.4l0-0.2c0,0,0,0,0,0C32.8,32.3,32.8,32.4,32.9,32.4c0,0,0,0.1,0,0.1c0,0,0.1,0,0.1,0c0,0,0,0,0,0
	C32.9,32.5,32.9,32.5,32.9,32.4C32.9,32.5,32.9,32.4,32.9,32.4C32.9,32.4,32.9,32.4,32.9,32.4L32.9,32.4z M24.5,34.2
	C24.5,34.2,24.4,34.3,24.5,34.2L24.5,34.2c0.1-0.1,0.1-0.1,0-0.2c-0.1-1.3-0.2-2.6-0.2-4c0.1-1,0-1-0.9-0.8
	c-0.7,0.1-0.9,0.5-0.7,1.2c0.4,1.3,1,2.5,1.7,3.7L24.5,34.2z M17.9,47c0.1,0,0-0.1,0-0.1c-0.1-0.3-0.2-0.7-0.3-1c0,0,0,0,0,0
	c0,0,0,0,0,0l0,0c-0.3,0.5,0.1,0.7,0.3,1L17.9,47c0,0.1,0,0.1,0.1,0.1c0,0,0,0,0,0c0,0,0,0,0,0C18,47,18,46.9,17.9,47z M46.3,44.6
	c-0.1-0.1-0.2-0.1-0.3,0c-0.3-0.1-0.7-0.2-1-0.2c-0.1,0-0.2-0.1-0.3,0c0,0.1,0,0.2,0,0.3c0,0.1,0.2,0.1,0.3,0.1
	c0.4,0,0.7-0.1,1.1-0.1C46.1,44.6,46.2,44.6,46.3,44.6c0.1,0,0.1,0.1,0.2,0c0.4,0.2,0.9,0.1,1.3,0.2c0.2,0.1,0.2-0.1,0.2-0.2
	c0-0.2,0-0.3-0.2-0.2c-0.4,0.2-0.9,0.1-1.3,0.2C46.4,44.5,46.3,44.4,46.3,44.6L46.3,44.6z M16.7,17.8c-0.1,0-0.2,0-0.2,0.1
	C16.5,18,16.6,17.9,16.7,17.8l0.1,0c0.2-0.1,0.4-0.1,0.5-0.3c-0.3,0-0.4,0.2-0.5,0.3L16.7,17.8z M47.3,50.7c-0.1,0-0.1,0-0.2,0.1
	c-0.1,0-0.1,0.1-0.1,0.2C47.1,50.9,47.3,50.9,47.3,50.7L47.3,50.7C47.3,50.7,47.3,50.7,47.3,50.7C47.3,50.7,47.3,50.7,47.3,50.7
	L47.3,50.7z M28.2,54.6c-0.1,0-0.2,0-0.3,0.2C28.1,54.8,28.2,54.8,28.2,54.6C28.2,54.7,28.3,54.6,28.2,54.6L28.2,54.6z M9.6,29.6
	C9.6,29.6,9.6,29.7,9.6,29.6C9.7,29.7,9.7,29.6,9.6,29.6c0.1-0.1,0-0.2,0-0.3c0-0.1,0-0.2,0-0.2c0-0.1,0-0.1-0.1-0.2
	c0-0.1,0.1-0.2-0.1-0.3c0,0.1,0,0.1,0,0.2c0,0.1,0,0.1,0.1,0.1c-0.1,0.2,0,0.3,0.1,0.4c0,0.1,0,0.1,0,0.2
	C9.5,29.5,9.6,29.6,9.6,29.6L9.6,29.6z M16.4,42.5C16.4,42.4,16.4,42.4,16.4,42.5C16.3,42.4,16.3,42.5,16.4,42.5l0.1,0.3
	c0.1,0.2,0,0.5,0.4,0.6l0,0.1l0.1,0l0-0.1c0-0.2-0.1-0.5-0.3-0.6c0-0.1,0-0.1,0-0.2C16.5,42.5,16.4,42.5,16.4,42.5z M42.2,22.8
	l0.4-0.1c0.2,0.1,0.5-0.1,0.5,0.2c0,0.3-0.3,0.4-0.5,0.5c-0.8,0.5-1.5,1-2.3,1.5L40.1,25c0.1,0.1,0.1,0,0.2,0c0.2,0,0.4-0.1,0.6-0.1
	c0.9-0.4,1.7-0.7,2.6-1c0.5-0.2,1-0.4,1.5,0c0,0,0.1,0,0.2,0c0.5-0.1,1.1-0.2,1.6-0.3c0-0.1-0.5-0.1-0.1-0.4c0.1-0.1,0.2,0,0.2-0.2
	c0-0.1,0-0.1-0.1-0.2c0,0-0.1-0.1-0.2-0.1c-0.3-0.1-0.7-0.2-1-0.2c-1.1-0.1-2.1,0.1-3.2,0.3C42.4,22.7,42.2,22.7,42.2,22.8L42,22.8
	c-0.1,0-0.3,0.1-0.4,0.1c-0.1,0-0.2,0-0.2,0.2l0.2-0.1c0.1,0,0.3,0,0.4-0.1L42.2,22.8z M27.2,55.1c0.2,0,0.4,0,0.6-0.2
	C27.6,54.8,27.4,54.8,27.2,55.1c-0.1-0.1-0.1-0.1-0.1,0C27.1,55,27.2,55,27.2,55.1L27.2,55.1z M44.3,32.4c-0.2,0-0.5,0-0.6,0.3
	C43.9,32.7,44.2,32.6,44.3,32.4L44.3,32.4L44.3,32.4z M29.5,24.2C29.5,24.2,29.4,24.1,29.5,24.2C29.4,24.2,29.4,24.2,29.5,24.2
	c0.1,0.5,0.1,0.5,0.4,0.5C29.8,24.5,29.7,24.3,29.5,24.2L29.5,24.2z M43.8,31.7c0.3-0.1,0.6-0.1,0.7-0.6
	C44.2,31.3,44,31.4,43.8,31.7C43.8,31.6,43.7,31.7,43.8,31.7C43.8,31.7,43.8,31.7,43.8,31.7z M25,48.9c-0.3,0.1-0.5,0.4-0.7,0.7
	C24.5,49.4,24.9,49.2,25,48.9c0.1,0,0.1,0,0.1-0.1c0,0,0,0,0,0L25,48.9z M12.3,35.2C12.3,35.3,12.3,35.3,12.3,35.2L12.3,35.2
	c-0.1-0.2-0.1-0.3-0.2-0.5c0-0.1-0.1-0.2-0.2-0.1c-0.1,0.1,0,0.2,0,0.2C12,35.1,12.1,35.2,12.3,35.2z M21.5,40.1L21.5,40.1
	L21.5,40.1c0.1-0.4,0.1-0.7-0.1-1.1C21.3,39.4,21.2,39.8,21.5,40.1z M47.8,46.1c0.6-0.3,0.6-0.3,0.4-0.7
	C48,45.6,47.9,45.8,47.8,46.1C47.7,46.1,47.7,46.1,47.8,46.1C47.7,46.2,47.7,46.2,47.8,46.1L47.8,46.1z M42.1,51.8
	c-0.4-0.1-0.9-0.1-1.3,0.1C41.3,51.8,41.7,52,42.1,51.8L42.1,51.8L42.1,51.8z M21.7,41.7C21.7,41.7,21.6,41.7,21.7,41.7L21.7,41.7
	c0.2-0.5-0.1-0.8-0.4-1.1c0,0,0,0,0-0.1c-0.1,0-0.1,0.1,0,0.1C21.1,41.1,21.4,41.4,21.7,41.7z M14.4,20.9c-0.8,0.3-0.6,1.2-0.9,1.8
	C13.8,22.1,14.1,21.5,14.4,20.9c0.1,0,0.1,0,0.1-0.1c0,0,0,0,0,0L14.4,20.9z M16.9,50.3L16.9,50.3L16.9,50.3L16.9,50.3
	c0.2,0.6,0.7,1,1.3,1.3C17.7,51.3,17.4,50.7,16.9,50.3z M16,35C16,35,15.9,34.9,16,35C15.9,34.9,15.9,35,16,35
	c-0.1,0.5,0,0.9,0.1,1.3c0.3-0.2,0.4-0.4,0.2-0.6C16.2,35.4,16.1,35.2,16,35L16,35z M16.7,44.7C16.7,44.7,16.7,44.8,16.7,44.7
	L16.7,44.7c0.1-0.7-0.4-1.1-0.7-1.7C16.2,43.6,16.3,44.2,16.7,44.7z M46.3,47c-0.5,0.3-1.2,0.3-1.5,1C45.2,48,45.7,47.7,46.3,47
	c0.1,0.1,0.2,0,0.1-0.1L46.3,47z M35.4,25.2c-0.9,0.5-1,0.9-0.8,1.5C35,26.3,35.2,25.8,35.4,25.2C35.4,25.3,35.5,25.3,35.4,25.2
	C35.5,25.2,35.5,25.2,35.4,25.2L35.4,25.2z M12.8,29.9L12.8,29.9L12.8,29.9L12.8,29.9c0,0,0.1-0.1,0.1-0.2c0.1-1.1,0.3-2.2,0.6-3.3
	c-0.2,0.3-0.2,0.5-0.3,0.8C12.9,28.1,12.7,29,12.8,29.9z M14.3,44c0,0.1,0,0.1,0.1,0.2C14.4,44.1,14.4,44,14.3,44
	c0.2-0.5,0.1-1,0.2-1.5c0.1-0.4,0.1-0.5-0.3-0.8C14.1,42.5,14.2,43.2,14.3,44L14.3,44z M12.6,31.2c0-0.1,0.1-0.1,0-0.1
	C12.5,31.1,12.5,31.2,12.6,31.2c-0.2,1.1-0.3,2.1-0.1,3.2l0.1,0.1c0,0,0,0,0,0c0,0,0,0,0,0c0,0,0,0,0,0c0,0,0,0,0,0
	C12.7,33.3,12.8,32.2,12.6,31.2z M45,43.5c0.8-0.1,1.6-0.2,2.5,0c-0.5-0.4-1-0.4-1.5-0.5C45.6,43,45.3,43.1,45,43.5
	C45,43.5,44.9,43.5,45,43.5C45,43.6,45,43.5,45,43.5z M23.6,21.4c0,0.1,0.1,0.1,0.2,0.1L23.6,21.4c-0.3-0.8-1.2-1.4-2-1.2L23.6,21.4
	z M17.1,19.7c0.8,0.2,1.6-0.2,2.4-0.1C18.6,19.1,17.8,19.2,17.1,19.7L17.1,19.7L17.1,19.7z M43.9,51.9C43,52.1,42,52,41.2,52.8
	c1-0.1,1.9-0.5,2.8-0.8c0.1,0,0.2,0,0.3,0c0.1,0,0.2-0.1,0.2-0.2C44.2,51.8,44.1,51.8,43.9,51.9z M38.3,51.6
	c-0.7-0.3-1.6-0.4-2.4-0.6c0.1,0.3,0.2,0.6,0.5,0.6C37,51.6,37.6,51.7,38.3,51.6l0.1,0c0,0,0,0,0-0.1C38.3,51.5,38.3,51.5,38.3,51.6
	z M28.1,54.2c-0.9,0-1.8,0.3-2.8,0.3c0.7,0.5,1.4,0.2,2.1,0C27.6,54.4,27.9,54.5,28.1,54.2C28.1,54.2,28.2,54.2,28.1,54.2
	c0.1,0,0.1,0,0.1,0c0,0,0,0,0,0C28.2,54.1,28.1,54.1,28.1,54.2L28.1,54.2z M21.4,48.8c0,0.1,0,0.1,0.1,0.1c0,0,0,0,0,0c0,0,0,0,0,0
	C21.5,48.8,21.4,48.8,21.4,48.8c0.1-0.1,0-0.1,0-0.2c-0.3-0.7-0.4-1.4-0.4-2.2c0-0.1,0-0.3-0.1-0.4C20.3,47.1,20.6,48,21.4,48.8
	L21.4,48.8z M27,43.4C27,43.4,27,43.5,27,43.4C27,43.5,27,43.5,27,43.4L27,43.4c0.2-1.2-0.3-2-1-2C26.2,42.3,26.6,43,27,43.4
	L27,43.4z M42.3,24.9c-0.2,0-0.3,0-0.5,0.1c-1.3,0.4-2.4,1.1-3.7,1.6c-0.1,0-0.1,0.1-0.1,0.1c0,0-0.1,0.1-0.1,0.2l-0.1,0l0,0l0.1,0
	c1.5-0.5,2.9-1.2,4.4-1.8c0.1,0,0.3,0,0.2-0.1C42.5,24.7,42.4,24.8,42.3,24.9L42.3,24.9z M46.6,48.7c-0.2-0.1-0.3,0.1-0.4,0.2
	c-1,0.7-2.1,1.2-3.3,1.4c-0.4,0.1-0.8-0.1-1.2,0.2c0.1,0,0.1,0,0.2,0c1.2,0.1,2.4-0.3,3.5-0.9C45.9,49.5,46.3,49.2,46.6,48.7
	L46.6,48.7L46.6,48.7z M40.2,41.7C40.2,41.6,40.2,41.6,40.2,41.7C40.2,41.6,40.2,41.7,40.2,41.7c-0.2,0.7,0.3,1,0.6,1.3
	c0.3,0.3,0.6-0.3,1-0.3c0-0.1-0.1-0.2-0.2-0.3c-0.1-0.1-0.2-0.1-0.3-0.2C41,42,40.6,41.8,40.2,41.7z M43.6,42.2c0.6,0,1.1,0,1.7-0.1
	c0.6,0,0.7-0.2,1-0.8C45.3,41.5,44.5,41.7,43.6,42.2L43.6,42.2L43.6,42.2z M46.7,42.1c0.7-0.1,1.3,0.2,2-0.2c0,0,0.1,0,0.1,0
	c0,0,0.1,0,0.1,0c0.3,0.4,0.9,0.3,1.3,0.5c0.1-0.5-0.2-0.5-0.5-0.6c-0.4-0.1-0.8-0.2-1.3-0.3c-0.3-0.1-0.5-0.3-0.9-0.1
	C47.2,41.6,46.9,41.7,46.7,42.1l-0.1,0L46.7,42.1z M17.5,46.7L17.5,46.7L17.5,46.7c0,1.5,0.7,2.7,1.5,3.9c0.1-0.4,0-0.6-0.1-0.9
	c-0.2-0.6-0.2-1.3-0.6-1.8C18,47.6,17.8,47.2,17.5,46.7L17.5,46.7z M47.1,23.5c0.5,0,1,0,1.5,0.1c0.2,0,0.5,0.1,0.7,0.3
	c0.1,0.1,0,0.4,0,0.6c0.6-0.2,1.2-0.3,1.8-0.4c-1.2-0.5-2.5-1-3.7-1.3C47.2,23,47.3,23.3,47.1,23.5c-0.1,0-0.1,0-0.1,0
	C47.1,23.5,47.1,23.5,47.1,23.5z M26.5,54.2c0.8-0.1,1.6-0.2,2.4-0.3c0.2,0,0.3-0.1,0.5-0.2c0.1-0.1,0.2-0.3,0.3-0.4
	c0.2-0.4,0.3-0.8,0.4-1.2C28.8,52.8,27.6,53.4,26.5,54.2c-0.1-0.1-0.2-0.1-0.1,0C26.3,54.2,26.4,54.2,26.5,54.2z M32.2,39.8
	C32.2,39.8,32.3,39.7,32.2,39.8L32.2,39.8c-0.5,1.2-0.7,2.4-1.1,3.6c0.6-0.6,1.2-1.2,1.9-1.9c0.2-0.2,0.1-0.3,0-0.4
	C32.7,40.7,32.5,40.2,32.2,39.8L32.2,39.8z M43.3,33.8c-0.4,0-0.7,0.1-1,0.4c-0.6,0.6-1.2,1.2-1.9,1.8c-0.1,0.1-0.2,0.1-0.1,0.3
	c0.1,0.4,0.2,0.7,0.3,1.1C41.6,36.1,42.4,34.9,43.3,33.8L43.3,33.8L43.3,33.8z M15.1,47.8L15.1,47.8L15.1,47.8L15.1,47.8
	c0.2,1,0.5,2,1,2.9c0.6,1.4,1.8,1.9,3.2,2c-0.1-0.4-0.4-0.4-0.6-0.5c-1.1-0.5-1.9-1.3-2.3-2.5C16.1,49,15.6,48.4,15.1,47.8z
	 M44.6,33.1c0.4,0.1,0.8,0,1.2-0.1c-0.1-0.2-0.4-0.1-0.3-0.3c0.1-0.2,0.3-0.1,0.4-0.1c1.1,0.1,2-0.4,3-0.9c0.4-0.2,0.7-0.6,1-1
	c-0.7-0.1-1.2-0.1-1.8,0.3c-0.6,0.4-1.2,0.8-1.9,1.2C45.6,32.4,45,32.7,44.6,33.1L44.6,33.1L44.6,33.1L44.6,33.1z M16.1,18.7
	c0.6-0.1,1.3,0,1.9,0.1c0.3,0.1,0.6,0.2,1,0c0.9-0.4,1.9-0.5,2.9-0.5c-0.8-0.6-1.5-1.1-2.6-0.9c-0.6,0.1-1.3,0.3-1.9,0.5
	C16.9,18.2,16.5,18.3,16.1,18.7L16.1,18.7L16.1,18.7z M38.2,25.9c-0.2,0-0.3,0.1-0.5,0.1c-0.3,0-0.7,0.2-1,0.1
	c-0.2-0.1-0.2-0.1-0.3,0c-0.5,0.4-1,0.9-1.3,1.4c-0.1,0.1-0.2,0.3-0.2,0.5c0.2,0.8,0.3,1.5,0.3,2.4c0.6-1,1.2-1.9,1.8-2.9
	c-0.2-0.1-0.5,0-0.5-0.3c0-0.3,0.3-0.3,0.5-0.4c0.1,0,0.2-0.1,0.2-0.1C37.5,26.4,37.9,26.3,38.2,25.9L38.2,25.9L38.2,25.9z
	 M27.8,50.7c0.9-0.2,1.8-0.4,2.6-0.7c0.3-0.1,0.6-0.8,0.5-1.1c0-0.1-0.1-0.3,0-0.3c0.3,0,0.3-0.2,0.3-0.4c0-0.2,0.1-0.4,0.3-0.4
	c0.2,0,0.2,0.1,0.3,0.2c0,0.1,0.1,0.1,0.2,0.2c0.5,0.3,0.6-0.2,0.8-0.5c0.6-0.7,0.6-0.7,0-1.3c-0.2-0.2-0.2-0.2-0.4,0
	C30.9,47.8,29.6,49.5,27.8,50.7C27.8,50.6,27.7,50.6,27.8,50.7C27.8,50.7,27.8,50.7,27.8,50.7L27.8,50.7z M30.8,29.5L30.8,29.5
	C30.9,29.5,30.9,29.5,30.8,29.5c0.3-1.5,0.3-2.9-0.4-4.2c-0.2-0.4-0.4-0.4-0.7-0.4c-0.3,0-0.2,0.3-0.3,0.5c-0.1,0.1-0.2,0.3-0.3,0.4
	c-0.1,0.1-0.2,0.3-0.1,0.5c0.2,0.2,0.3,0.4,0.3,0.6c0.1,0.2,0.1,0.5,0,0.7c0,0.1,0.1,0.2,0.1,0.3C29.9,28.4,30.4,29,30.8,29.5
	L30.8,29.5z M29.7,20.5c0,0-0.1-0.1-0.2-0.1L29.7,20.5c0,0.4,0.2,0.7,0.3,1c0.7,1.4,1.7,2.7,2.4,4.2c0.2,0.5,0.4,1,0.7,1.5
	c0.1-0.3,0.2-0.5,0.3-0.8c0.3-0.6,0.2-1.1-0.2-1.6C32.2,23.2,31,21.8,29.7,20.5z M47.3,27.2c0.4-0.3,0.8-0.5,1.3-0.4
	c0.1,0,0.2,0.1,0.2,0.2c0,0.1-0.1,0.1-0.3,0.1c-0.2-0.1-0.5,0-0.7,0.1c-0.9,0.5-1.6,1.1-2.5,1.8c0.3,0.1,0.6,0.1,0.9,0
	c1.6-0.6,2.9-1.6,3.9-3c0.1-0.1,0.3-0.3,0.2-0.5c-0.1-0.2-0.3-0.4-0.6-0.3c-0.2,0-0.4,0.1-0.6,0.1C48.3,25.6,47.8,26.4,47.3,27.2
	C47.3,27.1,47.2,27.1,47.3,27.2c-0.1-0.1-0.1,0-0.1,0c0,0,0,0,0,0c0,0,0,0,0,0.1L47.3,27.2z M43.1,30.3c-0.2,0-0.4,0.2-0.6-0.1
	c-0.1-0.2,0.1-0.4,0.1-0.6c0-0.1,0.2-0.2,0.2-0.4c-0.3,0-0.5,0.1-0.7,0.3c-0.8,0.5-1.5,1.1-2.2,1.7c-0.3,0.3-0.6,0.7-0.6,1.2
	c-0.1,0.7-0.3,1.3-0.5,2.1c0.7-0.8,1.3-1.5,2.1-2.2C41.6,31.7,42.4,31.1,43.1,30.3C43.1,30.4,43.1,30.3,43.1,30.3
	C43.1,30.3,43.1,30.3,43.1,30.3L43.1,30.3z M41.1,21.4c0.7,0,1.3,0.1,2-0.2c0.4-0.2,0.8-0.1,1.1-0.1c0.7,0.1,1.3,0.2,2,0.5
	c1.1,0.4,2.2,0.1,3.3-0.1c-0.4-0.4-0.9-0.7-1.4-0.9C45.7,20,43.4,20.5,41.1,21.4c-0.1-0.1-0.1-0.1-0.1,0C41,21.5,41,21.5,41.1,21.4z
	 M22.5,30.9L22.5,30.9L22.5,30.9c-0.4,1.5-0.6,2.9-0.7,4.4c-0.1,0.6-0.1,1.1,0.2,1.7c0.7,1.3,1.2,2.7,1.7,4.2c0,0.1,0,0.2,0.2,0.2
	c0.1-0.1,0-0.2,0-0.3c-0.2-1.1-0.6-2-0.9-3.1c-0.3-1.2-0.5-2.5-0.3-3.8c0.1-0.5,0.3-0.6,0.7-0.3c0.5,0.4,0.8,1.1,1.2,1.7l0,0.1l0,0
	l-0.1,0c0.2-0.2,0.1-0.3,0-0.5C23.8,33.7,23.1,32.3,22.5,30.9z M12.1,33.3l0.1,0.1c0,0,0,0,0,0s0,0,0,0s0,0,0-0.1c0,0,0,0,0,0
	c0.1-1.5,0.3-2.9,0.4-4.4c0.2-2.3,0.2-4.6,0.7-6.9c-0.8,0.8-1.6,1.6-2.1,2.6s-0.7,2.1-0.7,3.3c-0.1,1.8,0.3,3.5,0.6,5.3
	c0.1,0.5,0.2,0.9,0.5,1.3c0-0.1,0.1-0.2,0.1-0.2c0.5,0,0.3-0.3,0.3-0.6c-0.1-0.3-0.1-0.7-0.2-1c0-0.1,0-0.3,0.1-0.3
	c0.1,0,0.2,0.1,0.2,0.2C12,32.8,12.1,33,12.1,33.3z M43.7,24.8c-0.2,0.1-0.4,0.1-0.5,0.2c-1.8,0.7-3.6,1.5-5.4,2.2
	c-0.2,0.1-0.4,0.2-0.5,0.4c-0.5,0.8-1,1.6-1.5,2.4c-0.2,0.4-0.5,0.7-0.6,1.2c0.2-0.1,0.4-0.2,0.6-0.3c0.1,0,0.2-0.1,0.3,0
	c0.1,0.1,0,0.2-0.2,0.3c-0.1,0.1-0.2,0.1-0.3,0.1c-0.3,0.1-0.3,0.2-0.2,0.5c0.2,0.6,0.3,1.2,0.3,1.8c-0.1,0.9-0.4,1.3-1.2,0.9
	c-0.1,0-0.2-0.1-0.2-0.1c-0.6-0.2-0.6-0.2-0.7,0.4c0.2-0.1,0.4-0.3,0.6-0.3c0.3,0,0.5,0.1,0.3,0.4c-0.3,0.8-0.6,1.6-1.4,1.9
	c0,0-0.1,0-0.1,0.1s0,0.1,0,0.1c-0.4,1.3-0.7,2.5,0.3,3.6c0.3,0.3,0.4,0.4,0.6,0c0.2-0.4,0.4-0.8,0.6-1.2c1.1-2.5,2-5.1,3.1-7.7
	c0.5-1.1,0.9-2.2,1.6-3.3c-0.5,0.1-0.9,0.4-1.4,0.2c-0.2-0.1-0.3-0.1-0.3-0.3c0-0.2,0.1-0.3,0.3-0.5c0.1-0.1,0.3-0.2,0.4-0.2
	c0.8-0.3,1.7-0.7,2.5-1c1.2-0.4,2.3-0.9,3.2-1.8C43.8,24.9,43.8,24.9,43.7,24.8L43.7,24.8z M28.9,28.7c-0.1,0.4,0.1,0.7,0.1,1
	c0,0.1,0,0.2-0.2,0.2c-0.1,0-0.2-0.1-0.2-0.2c0-0.2-0.1-0.4-0.1-0.6c0-0.2-0.1-0.3-0.3-0.2c-0.6,0.2-1.1,0.3-1.7,0.3
	c-0.2,0-0.3,0-0.3,0.3c0.2,2.3,0.5,4.6,0.7,6.9c0,0.4,0.2,0.6,0.5,0.7c0.4,0.2,0.9,0.3,1.3,0.3c0.3,0,0.5-0.1,0.7-0.5
	c0.3-0.7,0.5-1.4,0.6-2.2c0.1-0.3,0.2-0.6,0.1-0.9c-0.1-0.6-0.2-1.2-0.3-1.9C29.7,31,29.4,29.8,28.9,28.7L28.9,28.7z M48.8,24.7
	c-1.2-0.4-2.3-0.5-3.5-0.3c-0.8,0.2-1.2,0.8-1.7,1.3c-0.2,0.2-0.3,0.4-0.6,0.5c-0.6,0.3-1.2,0.6-1.6,1.1c-0.9,1-1.3,2.3-1.7,3.6
	c0.9-0.7,1.6-1.6,2.6-1.9c0.9-0.3,1.5-0.9,2.3-1.3C46.1,27,47.2,25.6,48.8,24.7z M21,39.2c0.1-0.5,0.1-1,0.1-1.4
	c0.3-2.5,0.5-5.1,1.1-7.6c0-0.1,0-0.2,0-0.3c0-0.1-0.1-0.2-0.2-0.3c-0.1-0.1-0.3,0.1-0.4,0.2c-1,0.7-1.8,1.5-2.6,2.5
	c-0.1,0.1-0.1,0.2-0.2,0.3c0,0.1,0,0.2,0,0.3c0.2,0.6,0.3,1.3,0.4,2C19.7,36.5,20.2,37.9,21,39.2z M15.5,30c0.1,1.9,0.4,3.7,1,5.4
	c0,0.1,0.1,0.2,0.1,0.2c0.2-0.2,0.5,0,0.6-0.2c0.3-0.8,0.8-1.6,0.8-2.5c0.1-2.3,0.2-4.7,0.6-7c0-0.1,0.1-0.3,0-0.4
	c-0.3-0.3-0.6-0.7-1-0.9c0,1,0,2,0,3c0,0.9-0.1,1.7-0.4,2.5c-0.1,0.4-0.3,0.6-0.8,0.5C16.1,30.5,15.9,30.2,15.5,30z M30,23.4
	c-0.4-0.8-0.7-1.6-1-2.3c-0.3-0.5-0.4-1.2-0.9-1.6c-0.6-0.5-1.2-0.8-1.8-1.1c-0.6-0.3-1.3-0.4-2-0.6c-0.9-0.2-1.8-0.4-2.8-0.5
	c0.3,0.6,0.5,1.1,1.3,1.2c0.7,0.1,1.3,0.4,1.8,0.8c0.4,0.3,0.8,0.6,1.3,0.7c0.2,0.1,0.4,0.2,0.6,0.3c0.8,0.6,1.4,1.5,2,2.3
	c0.2,0.3,0.4,0.4,0.7,0.5C29.5,23.3,29.7,23.4,30,23.4L30,23.4z M14.7,38.4c0.1-0.2,0.1-0.2-0.1-0.8c-0.6-2.5-0.5-5.1-0.1-7.7
	c0.1-0.8,0.2-1.5,0-2.3c-0.3-0.7-0.3-1.5-0.4-2.5c-0.8,2.7-1.1,5.6-1,8.4c0.1,1.2,0.2,2.3,0.7,3.3C14.1,37.3,14.4,37.8,14.7,38.4
	L14.7,38.4z M21.2,52.7c0.1,0.1,0.2,0.1,0.3,0.1c0.9,0.2,1.7,0.6,2.6,1.1c0.4,0.2,0.8,0.3,1.3,0.2c1.6-0.6,3-1.5,4.4-2.5
	c0.4-0.3,0.5-0.7,0.6-1.1c-1,0.6-2.1,0.8-3.1,0.7c-0.6,0-0.9,0.1-1.1,0.7c-0.1,0.2-0.1,0.3-0.2,0.5c-0.2,0.4-0.4,0.5-0.8,0.5
	c-0.5-0.1-0.9-0.3-1.4-0.5c-0.1-0.1-0.2-0.1-0.3-0.1L21.2,52.7z M18.8,32.2c0.9-1.1,1.9-2,3-2.7c0.2-0.1,0.1-0.2,0-0.3
	c-0.5-0.9-1.1-1.5-1.8-2.2c-0.4-0.4-0.9-0.3-1.1,0.3c-0.4,1.3-0.5,2.6-0.4,3.9C18.6,31.5,18.6,31.9,18.8,32.2L18.8,32.2z M22.4,44.7
	c0.4-0.3,0.5-0.2,0.6,0.2c0.1,0.9,0,1.7,0,2.6c0,0.8,0.4,1.2,0.8,1.7c0.1,0.1,0.2,0.1,0.3,0c0.3-0.4,0.7-0.7,1.1-1
	c0.2-0.2,0.3-0.4,0.2-0.6c-0.3-1.7-1.1-3.3-1.6-4.9c0,0,0,0-0.1,0c-0.1,0.1-0.1,0.1-0.2,0.2c-0.3,0.2-0.3,0.5-0.1,0.8
	c0.2,0.2,0.3,0.5,0.5,0.8c0.1,0.1,0.2,0.2,0.1,0.4c-0.1,0.1-0.3,0-0.4-0.1c-0.3-0.3-0.5-0.5-0.8-0.8c-0.1-0.1-0.2-0.1-0.3,0
	C22.1,44.1,22.4,44.4,22.4,44.7L22.4,44.7z M28.4,49.6L28.4,49.6c2-1.5,3.6-3.4,5.3-5.2c-0.2-0.1-0.4-0.2-0.6-0.2
	c-0.9-0.3-1.7,0.3-2.6,0.5c-0.5,0.1-1,0.6-1.5,0.9c-0.2,0.2-0.4,0.3-0.4,0.6c0.8,0,1,0.4,0.7,1.2c0,0.1-0.1,0.2-0.1,0.3
	c0,0.1-0.1,0.2,0,0.3c0.3-0.6,1-1.1,1.1-1.8c0,0,0,0,0-0.1c0,0,0,0,0,0c0,0,0,0,0.1,0c0,0,0,0,0.1,0c0,0,0.1,0,0.1,0.1
	c0,0,0,0.1,0,0.1c0,0.2-0.1,0.5,0.1,0.7c0.1,0.1,0,0.3-0.2,0.2c-0.2-0.1-0.3,0-0.5,0.2C29.5,48.2,28.9,48.9,28.4,49.6L28.4,49.6z
	 M16.8,39.8c0.2,0.9,0.4,1.8,0.8,2.5c0.9,1.6,1.6,3.3,2.7,4.8c0.1-0.6,0.2-1.1,0.5-1.6c0.2-0.4,0.2-0.6-0.1-0.9
	c-0.7-0.9-1.4-1.9-2-3c-0.1-0.2-0.1-0.4-0.4-0.3c-0.1,0-0.2-0.1-0.2-0.2c0.1-0.5-0.1-1-0.5-1.1C17.3,39.9,17.1,39.9,16.8,39.8
	L16.8,39.8z M14.8,28.2c0-0.1,0.1-0.2,0.1-0.2c0.3-1.1,0.7-2.1,1.1-3.2c0.2-0.6,0.5-0.7,1.1-0.7c0.2,0,0.2-0.1,0.2-0.2
	c0-0.4-0.1-0.9-0.2-1.3c-0.3-0.8-0.9-1-1.6-0.4c-0.7,0.6-1,1.4-1.2,2.2C14.2,25.7,14.5,26.9,14.8,28.2z M24.2,41.6
	c0.3-0.2,0.5-0.3,0.8-0.5c0.3-0.1,0.3-0.3,0.2-0.5c-0.1-0.3-0.4-0.6-0.4-0.8c0-0.7-0.2-1.4-0.2-2.1c0.1-1.5-0.6-2.5-1.4-3.5
	C23,34,23,34,22.9,34.3c-0.2,1.1,0,2.1,0.2,3.2C23.4,38.9,24,40.2,24.2,41.6L24.2,41.6z M21.1,23.6c0.6,0.7,1.2,1.4,2,2
	c0.1,0.1,0.2,0.2,0.4,0.2c1-0.1,1.9-0.2,2.9-0.2c-0.5-0.6-1-1.1-0.8-1.9c0,0,0-0.1,0-0.1c0,0,0-0.1-0.1-0.1
	c-0.3-0.1-0.5-0.5-0.8-0.7c-0.4-0.4-0.9-0.8-1.4-1.1c0.2,0.4,0.5,0.8,0.6,1.2c0.1,0.4,0,0.6-0.4,0.7c-0.3,0-0.5,0-0.8,0
	C22.2,23.6,21.7,23.6,21.1,23.6z M25.9,29.3c-0.5,1.6-0.5,3.2-0.6,4.9c0,1,0.1,1.8,1,2.3c0.1,0.1,0.3,0.2,0.1,0.4
	c-0.1,0.2-0.2,0-0.3-0.1c0,0-0.1-0.1-0.1-0.1c-0.1,0-0.2-0.3-0.4-0.2c-0.2,0.1-0.2,0.3-0.1,0.5c0.1,1.3,1,2.1,1.5,3.1
	C26.7,36.5,26.3,32.9,25.9,29.3L25.9,29.3z M51.1,46.3c0.6-1.6,0.9-3.3,0.7-4.9c-0.1-0.8-0.3-1.5-0.1-2.4c-1.1,0.8-2.2,1.3-3.4,2
	c0.4,0,0.7,0.1,1.1,0.2c1.3,0.4,2,1.1,1.7,2.6C50.9,44.6,50.9,45.5,51.1,46.3L51.1,46.3z M20.8,44.2c0-1,0-1.8,0.1-2.6
	c0-0.3,0-0.5-0.2-0.7c-0.8-1.1-1.7-2.2-2.7-3.1c-0.1-0.1-0.2-0.3-0.3-0.2s-0.2,0.3-0.2,0.4c0,0.1,0,0.3,0,0.4
	c0.1,0.3,0.2,0.6,0.3,0.9c0.1,0.3,0.3,0.6,0.6,0.7c0.4,0.1,0.5,0.4,0.4,0.9c0,0.1-0.1,0.2,0,0.4C19.4,42.2,20,43.2,20.8,44.2z
	 M20.4,15.9c0.3,0.3,0.5,0.5,0.8,0.8c0,0.1,0.1,0.1,0.1,0.2s0.1,0.1,0.2,0.1c2,0.2,4.1,0.6,6,1.6c-0.3-0.4-0.6-0.5-0.8-0.8
	c-0.1-0.1-0.2-0.1-0.1-0.3c0.2-0.2,0-0.3-0.1-0.3C24.7,15.8,22.7,15.4,20.4,15.9L20.4,15.9z M25.9,47.4c0.4-0.7,0.7-1.4,0.9-2.1
	c0-0.1,0-0.1,0-0.2c0-0.1,0-0.1-0.1-0.2C26.3,44,25.9,43,25.6,42c-0.2-0.7-0.2-0.7-0.9-0.3c-0.1,0-0.1,0.1-0.2,0.2
	c-0.2,0.1-0.3,0.3-0.2,0.5C24.6,44.2,25.3,45.8,25.9,47.4z M33.8,29.3c-0.6,0-0.8-0.3-1.1-0.8c-0.5-1.1-0.7-2.3-1.5-3.2
	c-0.3-0.3-0.5-0.7-0.7-1.1c-0.3-0.6-0.8-0.7-1.4-0.8c0.1,0.1,0.1,0.1,0.2,0.2c0.1,0.1,0.1,0.1,0.2,0.2c0.9,0.7,1.5,1.6,1.7,2.9
	c0.2,0.9,0.2,1.9,0,2.8c-0.1,0.5,0.1,0.9,0.3,1.3c0.3-0.2,0.4-0.5,0.5-0.8c0.1-0.1,0.2-0.3,0.3-0.3c0.2,0,0.2,0.2,0.2,0.4
	c0,0.3,0.2,0.5,0.2,0.7c0,0.1,0,0.2,0.2,0.2c0.2,0,0.2-0.1,0.3-0.3C33.4,30.2,33.6,29.7,33.8,29.3z M16.9,25.1c-0.6,0.5-1,1-1.1,1.8
	c-0.1,0.7-0.1,1.5-0.2,2.2c-0.1,0.5,0.1,0.7,0.5,0.9c0.1,0.1,0.3,0.1,0.5,0.2c0.3,0.2,0.5,0,0.6-0.3c0.2-0.6,0.3-1.2,0.3-1.8
	c0.1-1.1,0.1-2.2,0-3.3c-0.2,0.1-0.3,0.3-0.3,0.5c-0.2,0.4-0.3,0.7-0.4,1.1c-0.1,0.1-0.1,0.3-0.3,0.2c-0.2-0.1-0.1-0.2,0-0.3
	C16.5,25.9,16.7,25.5,16.9,25.1z M18.6,33c-0.2,0.4-0.4,0.7-0.4,1.1c-0.1,0.9-0.2,1.9-0.4,2.8c0,0.1,0,0.1,0,0.2
	c0,0.1,0.1,0.1,0.1,0.2c1.1,1,2.1,2.1,3,3.4c0.1-0.4,0.1-0.8-0.1-1.1c-0.8-1.5-1.5-3-1.8-4.8C18.9,34.2,18.8,33.7,18.6,33L18.6,33z
	 M19.1,49c0.1,0.2,0.2,0.4,0.2,0.5c0.1,0.1,0.1,0.3,0,0.3c-0.2,0.1-0.1,0.2-0.1,0.4c0.1,0.2,0.1,0.5,0.1,0.7c0.1,0.6,0.5,1,1,1.3
	c0.5,0.3,1.1,0.2,1.6-0.1c0.1-0.1,0.3-0.2,0.4-0.1c0.3,0.3,0.5,0.1,0.8,0c-1.6-1.2-2.9-2.7-4.3-4.2c0,0.7,0.7,0.8,0.8,1.3
	C19.5,49.1,19.4,49,19.1,49z M44.9,29.9c0.2,0,0.4-0.2,0.5,0c0.1,0.3,0.3,0.2,0.5,0.1c1.5-0.8,3.1-1.2,4.7-1.2c0.1,0,0.3,0,0.3-0.2
	c0.2-0.7,0.4-1.3,0.5-2c0-0.4-0.3-0.5-0.5-0.7c-0.2-0.1-0.2,0.1-0.3,0.3c-1,1.4-2.3,2.4-3.8,3c-0.4,0.1-0.7,0.2-1.1,0.1
	C45,29.2,44.9,29.3,44.9,29.9z M17.5,23.9c0.5-0.7,0.9-1.3,1.4-1.9c0.2-0.3,0.5-0.5,0.6-0.9c0.1-0.3,0.1-0.5-0.2-0.7
	c-1.1-0.7-2.9-0.1-3.6,1.2c0.9-0.2,1.4,0.2,1.6,1.1C17.5,23.2,17.5,23.5,17.5,23.9z M50.2,21.7c0.5,1.3,1.4,2,2.6,2.4c0,0,0,0,0,0
	c0.3,0,0.4,0.5,0.7,0.2c0.2-0.2,0.2-0.5,0.2-0.8c0-0.2,0-0.5,0-0.7c-0.1-0.6-0.4-1-0.9-1.2C52,21.4,51.1,21.5,50.2,21.7z M23.3,50.8
	c-0.1,0.2,0.2,0.4-0.1,0.5c-0.2,0.1-0.3-0.1-0.4-0.3c-0.4-0.5-0.9-1-1.4-1.4c-0.4-0.4-0.7-0.8-0.9-1.3c-0.1-0.2-0.1-0.5-0.3-0.7
	c-0.6-0.9-1.1-1.8-1.6-2.7c-0.8-1.6-1.8-3.1-2.1-5c0-0.2-0.2-0.2-0.4-0.2c0,0.1,0,0.3,0,0.4c0,0.5,0.3,0.8,0.4,1.3
	c0.1,0.5,0.3,1.1,0.5,1.5c0.2,0.4,0.5,0.9,0.6,1.3c0.1,0.3,0.1,0.6,0.5,0.7c0.1,0,0.2,0.2,0.2,0.4c0.1,0.3,0.1,0.7,0.2,1
	c0,0.5,0.2,0.9,0.5,1.2c1.2,1.3,2.4,2.6,3.7,3.7c0.3,0.2,0.5,0.4,0.8,0.6c0.1,0.1,0.2,0.1,0.3-0.1C23.9,51.4,23.6,50.9,23.3,50.8z
	 M35.4,44.1c0.8,1,1.5,1.9,2.5,2.7c0.1,0.1,0.2,0.2,0.4,0.1c0.4-0.3,0.8-0.7,1.3-1c-0.2-0.2-0.3-0.2-0.5-0.3
	c-0.6-0.2-1.2-0.4-1.7-0.6c-0.2-0.1-0.5-0.1-0.5-0.4c0-0.3,0.3-0.4,0.5-0.5c0.4-0.2,0.8-0.2,1.3-0.3c-0.1-0.1-0.1-0.2-0.2-0.3
	c-0.2-0.5-0.4-0.9-1.1-0.6c-0.2,0.1-0.4,0.2-0.5,0.4C36.5,44,36.1,44.2,35.4,44.1L35.4,44.1z M20.1,21.5c-0.2,0.2-0.1,0.4,0,0.6
	c0.2,0.3,0.3,0.6,0.5,0.9c0,0.1,0.1,0.1,0.1,0.1c0.1,0,0.1,0,0.2,0c0.8,0,1.5,0,2.3,0c0.3,0,0.4-0.1,0.3-0.4
	c-0.2-0.4-0.4-0.8-0.7-1.1c-0.6-0.7-1.4-0.9-2.3-0.5C20.3,21.2,20.2,21.3,20.1,21.5z M15,37.7c0.5-0.5,0.6-1,0.5-1.5
	c-0.1-0.7-0.2-1.4,0-2.1c0.1-0.5,0.1-0.9,0-1.4c-0.2-0.9-0.3-1.9-0.3-2.8c0-0.2-0.1-0.4-0.3-0.6C14.6,32.1,14.3,34.9,15,37.7
	L15,37.7z M40.6,27.8c-0.3,0.2-0.7,0.2-1,0.6c-0.2,0.4-0.4,0.8-0.6,1.2c-0.9,2-1.8,3.9-2.5,6c-0.3,0.8-0.5,1.7-0.8,2.5
	c0.2-0.4,0.4-0.8,0.6-1.3c0.6-1.3,1.2-2.7,1.9-3.9c0.3-0.6,0.9-1,1.1-1.7C39.6,30,40.1,28.9,40.6,27.8z M41,46.2
	c0.7,0.5,1.4,0.9,2.2,1.2c0.5,0.3,1,0,1.5-0.1c0.2,0,0.2-0.2,0.2-0.3c0.1-0.7-0.9-1.8-1.6-1.8C42.4,45.3,41.7,45.7,41,46.2z
	 M34.8,27.5c0.5-0.8,1.1-1.4,1.8-1.9c0.1-0.1,0.3-0.1,0.2-0.3c-0.1-0.3,0-0.3,0.2-0.4c0.6-0.3,1.2-0.6,1.8-1
	c0.6-0.4,1.3-0.7,1.9-1.1c-0.4-0.4-0.8-0.4-1.3-0.2c-0.9,0.4-1.7,1-2.6,1.5c-0.4,0.2-0.7,0.6-1,1c-0.4,0.6-0.7,1.4-1.1,2
	C34.7,27.3,34.7,27.4,34.8,27.5z M41,50.3c-1.2-0.6-2.3-1.4-3.4-2s-2.4-0.9-3.6-1.6c0.1,0.4,0.1,0.4,0.2,0.5
	c1.5,1.3,3.2,2.3,5.2,2.8c0.1,0,0.2,0,0.3-0.1c0.1-0.2,0.2-0.1,0.3,0C40.3,50.3,40.6,50.5,41,50.3z M29.6,37.8c-0.1,0-0.1,0-0.1,0.1
	c-0.5,1.5-1,3-1.4,4.6c-0.1,0.3,0.1,1.4,0.2,1.4c0.4-0.1,0.6-0.4,0.9-0.7c0.1-0.1,0.1-0.2,0.2-0.2c0.3-0.3,0.4-0.6,0.3-0.9
	c-0.1-0.8-0.2-1.6-0.1-2.4C29.5,39.1,29.6,38.4,29.6,37.8z M31.7,36.5c-0.5,0.2-0.9,0.5-0.8,1.2c0,0.5,0,1-0.1,1.4
	c0,0.2-0.1,0.5-0.3,0.5c-0.3,0-0.2-0.3-0.2-0.5c0-0.6,0.1-1.2,0.2-1.8c-0.4,0.1-0.6,0.3-0.6,0.7c0,0.3-0.1,0.7-0.1,1
	c-0.1,1.1,0,2.2,0.1,3.3C30.9,40.3,31.9,38.5,31.7,36.5z M20.1,26.5c0.7,0.8,1.5,1.5,2,2.4c0.1,0.1,0.1,0.3,0.2,0.3
	c0.1,0,0.2-0.1,0.2-0.1c0.1-0.1,0.1-0.1,0.1-0.2c0.1-0.3,0.2-0.6,0.3-0.9c0.2-0.5,0.2-1.2,0.8-1.5c-0.2-0.1-0.4-0.3-0.6-0.2
	C22.1,26.3,21.2,26.4,20.1,26.5z M27.1,37.5c0,0.2,0,0.4,0,0.6c0,0.7,0.2,1.5,0.1,2.2c-0.1,0.8,0.4,1.3,0.6,1.9
	c0.4-1.4,0.9-2.8,1.3-4.2C28.4,38,27.7,37.8,27.1,37.5z M22.8,25.8c-0.4-0.3-0.7-0.6-1-0.9c-0.3-0.3-0.5-0.5-1-0.4
	c-0.2,0-0.5-0.1-0.7-0.1c-0.3-0.1-0.6-0.4-0.8-0.2c-0.2,0.2-0.2,0.6-0.2,0.9c0,0,0,0.1,0,0.1c-0.1,0.3,0.6,1.1,0.9,1.1
	C20.9,26.1,21.9,26,22.8,25.8z M23,42.8c0.1-0.1,0.1-0.1,0.2-0.2c0.4-0.3,0.4-0.6,0.3-1c-0.3-0.9-0.7-1.8-1-2.7
	c-0.1-0.3-0.3-0.6-0.4-0.9c-0.1-0.3-0.2-0.6-0.3-0.9l-0.1,0.1C21.7,39.1,21.6,41.2,23,42.8z M10.2,23.8c0.3-0.6,0.7-1.2,1-1.8
	c0.7-1.2,1.5-2.3,2.8-2.9c0.6-0.3,1.2-0.7,1.8-1.1c0.6-0.5,1.3-0.9,2-1.3c0.5-0.3,1.1-0.5,1.6-0.8c-0.1-0.1-0.3-0.1-0.5-0.1
	c-0.8,0-1.6,0.2-2.3,0.7c-2.1,1.5-4.2,3.1-5.6,5.4C10.8,22.6,10.4,23.1,10.2,23.8z M36.7,46.2c-1.2-1.3-2.2-2.9-3.2-4.3
	c-0.4,0.6-0.8,1.3-1.3,1.9c0.4,0,0.8,0.1,1.1,0.1c0.3,0,0.5,0.2,0.8,0.2c0.5-0.1,0.6,0.1,0.5,0.6c0,0.1,0,0.2,0,0.3
	C35,45.9,35.9,45.9,36.7,46.2z M45.2,47.2c0.9-0.3,1.6-0.8,2.3-1.4c0.1-0.1,0.2-0.2,0.2-0.3c0.2-0.2,0.1-0.4-0.1-0.4
	c-1.1-0.2-2.2-0.2-3.4,0.1C44.8,45.7,45.3,46.2,45.2,47.2z M43.9,48.1c-0.3-0.1-0.4-0.2-0.7-0.2c-1-0.1-2-0.5-2.7-1.2
	c-0.1-0.1-0.2-0.2-0.3-0.1c-0.5,0.3-1,0.5-1.5,0.8C39.9,48.2,42.8,48.9,43.9,48.1L43.9,48.1z M40.7,51.5c-0.2-0.2-0.4-0.4-0.7-0.5
	c-0.3-0.1-0.6-0.2-0.9-0.1c0,0,0,0,0,0c-0.4-0.1-0.8-0.3-1.3-0.4c-0.7-0.1-1.3-0.3-1.9-0.6c-0.2-0.2-0.5-0.3-0.8-0.3
	c0.1,0.3,0.3,0.6,0.4,0.9c0.1,0.2,0.2,0.4,0.5,0.4c0.9,0.2,1.8,0.4,2.7,0.6C39.4,51.5,40,51.7,40.7,51.5z M27.1,47.1
	c-0.2,0.1-0.3,0.3-0.5,0.4c-0.4,0.2-0.6,0.5-0.4,1c0.1,0.2,0.2,0.5,0,0.7c-0.3,0.2-0.2-0.3-0.4-0.5c-0.3,0.4-0.7,0.8-1.1,1.2
	c0.5,0.3,1,0.6,1.5,0.7c0.1,0,0.2,0.1,0.3-0.1C26.7,49.4,27.4,48.3,27.1,47.1z M31.8,38.7c0,0.1-0.1,0.1-0.1,0.2
	c-0.3,1.2-0.8,2.4-1.5,3.5c-0.3,0.5,0,1.6,0.5,1.8c0.1,0,0.2,0,0.3,0c1-0.2,1.3-1.1,1.8-1.8c-0.5,0.4-1,0.9-1.5,1.4
	c-0.1,0.1-0.3,0.2-0.4,0.1c-0.2-0.1-0.1-0.3-0.1-0.4c0.3-1.2,0.7-2.3,1-3.5C31.9,39.5,32.1,39.1,31.8,38.7L31.8,38.7z M26.2,28.1
	c-0.1,0.1-0.1,0.2-0.1,0.3c-0.2,0.5-0.2,0.5,0.3,0.6c0.3,0,0.7,0,1-0.1c0.9-0.1,1-0.2,1-1.1c0,0,0-0.1,0-0.1
	c-0.1-0.3-0.2-0.6-0.5-0.8c-0.2-0.2-0.3,0.2-0.5,0.3c-0.1,0-0.1,0.1-0.2,0.1C26.6,27.2,26.4,27.6,26.2,28.1z M18.7,51.5
	c-0.2-0.4-0.4-0.5-0.6-0.8c-0.8-1-1.5-2.1-1.3-3.6c0,0,0-0.1,0-0.1c-0.3-0.9-0.6-1.8-0.9-2.7C15.6,47.4,16.6,50.2,18.7,51.5
	L18.7,51.5z M38.8,38c0.2-0.3,0.5-0.5,0.7-0.8c0.1-0.1,0.2-0.2,0.3-0.1c0.1,0.1,0,0.2,0,0.3c-0.2,0.3-0.5,0.6-0.7,0.8
	c-0.1,0.1-0.2,0.2-0.2,0.4c0.1,0.7,0.2,1.5,0.6,2.2c0.1-0.1,0.2-0.2,0.2-0.3c0-0.9,0.3-1.7,0.7-2.4c0-0.1,0.1-0.2,0.1-0.3
	c-0.1-0.4-0.3-0.7-0.4-1.1c0-0.1,0-0.2-0.2-0.1C39,36.7,38.7,37.2,38.8,38z M34.5,28.3c-1.3,2.5-1.2,2.3-1.1,4.2
	C34.8,31.3,35.1,30.3,34.5,28.3z M15.7,20.3c-0.4,0.1-0.6,0.3-0.8,0.5c-1,1.2-1.5,2.6-1.7,4.1c-0.1,0.4,0,0.8-0.2,1.1
	c-0.2,0.4-0.2,0.9-0.2,1.3c0.1-0.1,0.1-0.2,0.1-0.2c0.3-1,0.5-2.1,1-3c0.2-0.4,0.3-0.7,0.4-1.1C14.7,22.1,14.8,21,15.7,20.3z
	 M37.2,37.2c-1.1,0.8-1.6,1.9-1.9,3.2c-0.1,0.3-0.1,0.6,0.2,0.7c0.3,0.1,0.6-0.1,0.7-0.5c0.1-0.4,0.2-0.7,0.4-1.1
	C37,38.8,37.3,38.1,37.2,37.2z M41.5,52.3c-1.6-0.5-3.3-0.3-5-0.4c0.1,0.2,0.3,0.3,0.5,0.4c0.7,0.2,1.4,0.3,2,0.5
	C40,53,40.7,52.7,41.5,52.3z M38.6,38.9c-1,0.8-1.1,2.2-0.6,3.2c0.1,0.1,0.1,0.2,0.3,0.1c0.3-0.2,0.6-0.5,0.8-0.8
	c0,0,0.1-0.1,0.1-0.2c0-0.1,0-0.1,0-0.2C38.9,40.3,38.7,39.6,38.6,38.9L38.6,38.9z M36.3,37.6c1.5-1.1,2.5-3.3,2.5-5.1
	C37.8,34.2,37,35.9,36.3,37.6L36.3,37.6z M10,29.6c0.1-1.3,0.2-2.6,0.4-3.9c0.3-1.3,0.8-2.6,1.4-3.8C10.1,24.2,9.1,26.7,10,29.6z
	 M44.3,50.9c1-0.1,2-0.4,2.9-0.8c1.2-0.5,2-1.5,2.4-2.7c-0.1,0.1-0.2,0.3-0.3,0.4c-0.3,0.5-0.7,1-1.1,1.4c-0.4,0.4-0.7,0.4-1.1,0
	c-0.1-0.2-0.2-0.1-0.3,0C46,49.8,45.2,50.4,44.3,50.9L44.3,50.9z M30.9,36.4c1.2-0.4,1.4-1.3,1.5-2.4c0-0.1,0-0.2-0.1-0.2
	C32,33.7,32,33.4,32,33.2c0-0.2,0.1-0.4,0-0.5C31.1,33.7,31.3,35.1,30.9,36.4z M45,31.1c0.6-0.3,1.2-0.5,1.8-0.7
	c1-0.4,2.1-0.8,3.1-0.4c0.4,0.1,0.5-0.1,0.6-0.4c0.1-0.3,0.1-0.4-0.2-0.4c-1.7,0.1-3.3,0.6-4.9,1.5C45.2,30.7,45,30.8,45,31.1z
	 M34.9,31.7l-0.1,0c-0.3,0.6-0.5,1.1-0.8,1.7c-0.3,0.8-0.2,1,0.5,1.2c0,0,0.1,0,0.1,0c0.3,0.1,0.5-0.1,0.6-0.4
	C35.4,33.3,35.2,32.5,34.9,31.7L34.9,31.7z M32.3,49c0.6,1.3,2,1.2,3,1.6c-0.3-0.6-0.3-1.3-1.1-1.5C33.6,49,33,48.9,32.3,49L32.3,49
	z M35.1,41.3c-0.1,0.7-0.2,1.4,0,2c0.1,0.3,0.4,0.5,0.7,0.5c0.3,0,0.7-0.5,0.7-0.8c0-0.1,0-0.2-0.1-0.2c-0.4-0.2-0.6-0.6-0.5-1.1
	c0-0.1,0.1-0.2-0.1-0.2C35.5,41.5,35.4,41.3,35.1,41.3L35.1,41.3z M52.9,27.1c-0.3,0.4-0.3,0.8-0.3,1.3c0,0.7-0.5,1-1,0.9
	c-0.5-0.2-0.7,0-0.9,0.6c0,0.1-0.2,0.3,0,0.4c0.2,0.1,0.4,0.3,0.7,0.2c0.5-0.3,1-0.6,1.4-0.9c0.1,0,0.1-0.1,0.1-0.1
	c0-0.1,0.1-0.1,0.1-0.2C53,28.4,53.1,27.7,52.9,27.1L52.9,27.1z M24.1,26.6c0.3,0.2,0,0.9,0.6,0.8c0.1,0,0.1,0.1,0.1,0.2
	c0,0.2,0,0.4,0,0.5c-0.1,0.7-0.1,0.7,0.5,0.7c0.2,0,0.3-0.1,0.4-0.3c0.1-0.4,0.3-0.7,0.5-1c0.1-0.2,0.1-0.3-0.1-0.4
	C25.4,27,24.7,26.8,24.1,26.6L24.1,26.6z M48.3,32.6c1.3-0.2,2.5,0,3.5-1.1c-0.1-0.1-0.3-0.1-0.4-0.2c-0.3-0.3-0.7-0.3-1.1-0.1
	C49.7,31.6,49,32,48.3,32.6L48.3,32.6z M39.4,41.5c-0.1,0-0.1,0-0.2,0.1c-0.3,0.3-0.6,0.6-0.9,0.8c0,0,0,0,0,0c0,0,0,0,0,0.1
	c0,0,0,0,0,0.1c0,0,0,0,0,0.1c0.2,0.4,0.4,0.8,0.6,1.1c0.1,0.2,0.5,0,0.7,0.1c0.2,0,0.3-0.1,0.3-0.3c0-0.3-0.1-0.7-0.1-1
	C39.8,42.1,39.5,41.9,39.4,41.5z M23.9,26.1c0.7,0.4,1.5,0.6,2.2,0.8c0.3,0.1,0.5,0,0.7-0.2c0.1-0.2,0.3-0.3,0.5-0.3
	c0.1,0,0.2,0,0.2-0.1c0-0.2-0.1-0.2-0.2-0.2C26.3,25.8,25.1,25.8,23.9,26.1z M11.2,24c0.6-0.8,1.1-1.5,1.8-2.2
	c0.6-0.5,0.6-1.3,0.7-1.9C12.4,20.9,11.8,22.4,11.2,24L11.2,24z M30.4,44.4c-0.4-0.3-0.5-0.8-0.7-1.3c-0.3,0.3-0.5,0.7-0.8,0.8
	c-0.7,0.3-0.6,0.7-0.4,1.3c0,0,0,0.1,0,0.1c0,0.2,0.1,0.2,0.2,0.1C29.3,45,29.8,44.7,30.4,44.4z M53.3,28.9c0.4-0.6,0.7-1.2,0.8-1.9
	c0.2-0.6-0.1-1.1-0.4-1.5c-0.1-0.1-0.2-0.2-0.3,0c-0.1,0.4-0.4,0.7-0.3,1.1C53.3,27.3,53.4,28.1,53.3,28.9z M22.4,19.4
	c-0.2-0.2-0.2-0.7-0.5-0.7c-0.9-0.1-1.8,0.1-2.7,0.3c0.6,0.3,1.1,0.5,1.6,0.7c0.1,0,0.1,0,0.2,0c0.1,0,0.2,0,0.2-0.1
	C21.5,19.5,22,19.4,22.4,19.4z M29.3,24.5c-0.1-0.3-0.2-0.7-0.5-0.8c-0.5-0.3-1-0.7-1.6-0.9c-0.3-0.1-0.5-0.1-0.8,0
	c-0.1,0-0.2,0-0.2,0.1c0,0.1,0.1,0.1,0.1,0.2c0.2,0.2,0.5,0.3,0.7,0.5C27.8,23.9,28.4,24.4,29.3,24.5L29.3,24.5z M40.5,38.3
	c-0.3,0.5-0.5,1.1-0.6,1.7c0,0.1-0.1,0.2,0.1,0.2c0.5-0.1,0.3,0.3,0.3,0.5c-0.1,0.4-0.1,0.7,0.3,0.8c0.2,0.1,0.5,0.2,0.8,0.4
	C40.8,40.7,40.9,39.5,40.5,38.3L40.5,38.3z M28.6,48.2c0.2-0.3,0.2-0.7,0.4-1c0.1-0.2,0.1-0.4,0-0.5c-0.2-0.1-0.4,0-0.5,0.2
	c-0.4,0.4-0.7,0.9-0.9,1.5c-0.1,0.3,0.1,0.6,0.2,0.9c0.1,0.2,0.2,0.1,0.4-0.1C28.3,48.9,28.4,48.6,28.6,48.2L28.6,48.2z M26.7,23.6
	c0.6,0.7,1.1,1.4,1.5,2.2c0.1,0.2,0.3,0.2,0.4,0c0.1-0.1,0.2-0.2,0.3-0.2c0.3-0.1,0.3-0.3,0.3-0.5c0.1-0.3-0.1-0.3-0.3-0.3
	c-0.5-0.1-0.9-0.4-1.3-0.6C27.4,23.9,27.1,23.7,26.7,23.6z M20.9,17c-0.1-0.3-0.3-0.4-0.4-0.6c-0.2-0.3-0.5-0.4-0.9-0.2
	c-0.7,0.3-1.5,0.6-2.2,1c-0.1,0-0.2,0.1-0.1,0.3C18.5,16.9,19.7,17.1,20.9,17z M48.2,43.7c0.2,0.1,0.3,0,0.4-0.1
	c0.1-0.1,0.2-0.2,0.1-0.3c-0.1-0.2-0.1-0.5-0.1-0.7c0-0.2-0.1-0.2-0.3-0.2c-0.7,0-1.4,0-2.1,0.1c-0.1,0-0.3,0-0.3,0.2
	s0.2,0.1,0.3,0.1c0.7,0.1,1.5,0.2,1.9,0.9C48.1,43.6,48.1,43.7,48.2,43.7L48.2,43.7z M34.7,49c-0.2-0.3-0.3-0.6-0.4-0.8
	c-0.2-0.3-0.2-0.7-0.5-0.9c-0.1-0.1-0.2-0.2-0.3,0c-0.3,0.4-0.5,0.7-0.8,1.1c-0.1,0.1-0.1,0.2-0.1,0.2c0,0.1,0.1,0,0.2,0
	C33.4,48.7,34,48.7,34.7,49z M28.1,22.8l0.1-0.1c-0.4-0.4-0.8-0.7-1.2-1.1c-0.5-0.5-1-1-1.5-1.4c-0.1-0.1-0.2-0.2-0.3-0.1
	c0,0,0,0.1-0.1,0.1s0,0.1,0,0.1c0.2,0.4,0.2,1,0.8,1.2c0.2,0.1,0.4,0.3,0.6,0.4C27.1,22.2,27.6,22.6,28.1,22.8L28.1,22.8z
	 M35.8,51.5c-0.1-0.7-0.6-0.6-1-0.8c-0.9-0.3-1.9-0.3-2.5-1.3c-0.1-0.2-0.2-0.1-0.3,0c-0.1,0.1-0.2,0.2-0.1,0.3
	c0.1,0.1,0.2,0.2,0.3,0.3C33.2,50.9,34.5,51.1,35.8,51.5z M34.9,39.9c-0.3,0.3-0.5,0.6-0.8,0.9c-0.2,0.3-0.5,0.6-0.4,0.9
	c0.2,0.5,0.5,0.9,0.9,1.3C34.5,41.9,35,40.9,34.9,39.9z M21.2,41.7c-0.1,1-0.1,2,0,3.1c0.2-0.3,0.4-0.5,0.6-0.7
	c0.1-0.1,0.2-0.2,0.2-0.4C21.9,42.9,21.8,42.2,21.2,41.7z M14.5,20.5c1.1-0.6,2.1-1.2,3.4-1.4C16.2,18.6,14.9,19.2,14.5,20.5z
	 M22.9,28.9c0.4,0,0.8-0.1,1.2-0.1c0.2,0,0.2-0.1,0.1-0.3c-0.1-0.5-0.3-1-0.4-1.5c0-0.1-0.1-0.2-0.2-0.2c-0.1,0-0.1,0.1-0.2,0.2
	C23.3,27.6,23.1,28.2,22.9,28.9z M38.3,50.1c-1.4-0.5-2.6-1.3-3.8-2.2c0.3,0.6,0.4,1.3,1.1,1.4c0.4,0.1,0.7,0.3,1.1,0.5
	C37.2,50,37.7,50.1,38.3,50.1z M52.3,27.4c0.5-1.1,0.2-2.2-0.8-2.8c0.1,0.5,0.1,1,0.1,1.5C51.6,26.6,52.2,26.8,52.3,27.4L52.3,27.4z
	 M27.5,25.6c-0.2-0.7-1.2-1.9-1.7-2C25.6,24.7,26.3,25.5,27.5,25.6L27.5,25.6z M49.2,42.5c0,0.3,0,0.5,0,0.7c-0.1,0.3-0.1,0.5,0,0.8
	c0.1,0.2,0.1,0.7,0.4,0.7c0.3-0.1,0.3-0.5,0.4-0.8C50.3,42.8,50.3,42.8,49.2,42.5L49.2,42.5z M22.6,18.8c0.3,0.5,0.6,0.9,1.1,1.1
	c0.3,0.1,0.5,0.3,0.7,0.5c0.1,0.1,0.2,0.3,0.4,0.1c0.2-0.2,0-0.3-0.1-0.5C24.2,19.2,23.4,18.9,22.6,18.8L22.6,18.8z M29.1,54.1
	c-0.8,1.3-1.8,1.5-3,1.2c-0.3-0.1-0.6,0-0.9,0c0.6,0.3,1.3,0.5,2,0.6c0.2,0,0.5,0,0.7-0.1c0.2-0.1,0.4-0.3,0.6-0.5
	C28.8,54.9,29,54.6,29.1,54.1L29.1,54.1z M17,20.1c-1.2-0.2-2.3,1.1-2.3,2.5C15.4,21.6,16,20.7,17,20.1z M50.7,23.1
	c-0.3-0.4-0.5-0.8-0.8-1.2c-0.1-0.1-0.2-0.2-0.3-0.2C49,21.9,48.5,22,48,22.1C48.9,22.4,49.9,22.6,50.7,23.1z M45.1,28.6
	c1-0.7,1.9-1.4,2.6-2.4C46.3,26.9,45.6,27.3,45.1,28.6z M44.3,32.1c0.9-0.1,2.7-1,3.4-1.7c0,0-0.1,0-0.1,0c-1,0.3-1.9,0.8-2.9,1.2
	C44.5,31.7,44.4,31.9,44.3,32.1z M51.6,26.7c-0.2,0.6-0.3,1.2-0.4,1.7c0,0.1-0.2,0.3,0,0.3c0.2,0,0.4,0.2,0.6-0.1
	c0.4-0.6,0.4-1,0.1-1.6C51.8,27,51.7,26.9,51.6,26.7L51.6,26.7z M40.4,50.7c0.7,0.9,2.5,0.8,3.6-0.2C42.8,51.1,41.7,50.8,40.4,50.7
	L40.4,50.7z M36.9,42.3c0.1-0.5,0.3-0.9,0.4-1.4c0,0,0-0.1,0-0.1c0-0.1,0-0.3-0.1-0.3c-0.1-0.1-0.2,0.1-0.3,0.2
	c-0.1,0.1-0.3,0.2-0.4,0.4c-0.4,0.4-0.5,1-0.1,1.4C36.7,42.6,36.8,42.5,36.9,42.3L36.9,42.3z M53.3,29.3c0.9-0.5,1.5-1.7,1.4-2.8
	c-0.1-0.7-0.4-1.2-1-1.6c-0.1,0.3,0.1,0.3,0.2,0.4c0.5,0.5,0.7,1.1,0.5,1.8c-0.2,0.6-0.4,1.2-0.8,1.8C53.5,29.1,53.3,29.1,53.3,29.3
	z M49.7,24.6c0.7,0.3,1.1,0.7,1.6,1.4c0.1-0.4,0.1-0.9,0-1.3c0-0.1-0.1-0.2-0.1-0.2c-0.1,0-0.1-0.1-0.2-0.1
	C50.6,24.4,50.1,24.4,49.7,24.6z M22.4,49.5c-0.6-1.1-0.8-2.4-0.8-3.7c0-0.3-0.2-0.3-0.4-0.5C21.3,46.9,21.3,48.4,22.4,49.5z
	 M45.5,27.4c-0.7,0.4-1.3,0.8-1.8,1.3c-0.1,0.1-0.2,0.1-0.1,0.2c0.2,0.1,0.4,0.4,0.6,0.3c0.2,0,0.5-0.2,0.6-0.5
	C44.9,28.3,45.2,27.9,45.5,27.4z M38.7,35.2c1.3-1.3,2.6-2.6,3.9-3.9C41.2,32.4,39.7,33.6,38.7,35.2z M40.3,34.6
	c0.8-0.6,1.7-1.1,2.6-1.5c0.1-0.1,0.2-0.1,0.3-0.2c0.1-0.1,0.1-0.2,0.2-0.3C42.1,32.9,41.1,33.6,40.3,34.6z M50.5,43.4
	c-0.2,0.5-0.3,1.1-0.6,1.6c-0.2,0.5,0.1,1.1-0.2,1.6C50.2,45.6,50.8,44.6,50.5,43.4z M35.5,46.2c0.5,0.6,0.9,1.3,1.7,1.4
	c0.1,0,0.2,0.2,0.3-0.1c0-0.2,0.1-0.2-0.1-0.3C36.8,46.8,36.2,46.4,35.5,46.2z M44.9,43.9c0.9,0.4,1.9,0.3,2.9,0
	C46.9,43.6,45.9,43.6,44.9,43.9L44.9,43.9z M25.6,38.6c0.1,1,0.3,2,1.1,2.6c0.1-0.2,0.2-0.3,0.1-0.5C26.4,39.9,26,39.3,25.6,38.6z
	 M35.8,47.1c-0.2-0.3-0.5-0.5-0.6-0.8c-0.2-0.3-0.4-0.4-0.7-0.5c-0.3-0.1-0.3,0.2-0.4,0.4c-0.1,0.2,0,0.3,0.1,0.3
	C34.7,46.8,35.2,47,35.8,47.1z M40.2,48.8c1.3,1,1.7,1.1,2.7,0.4C42,49.1,41.1,49,40.2,48.8z M43.3,43.7c-0.5-0.4-1-0.6-1.7-0.3
	c-0.2,0.1-0.2,0.1-0.1,0.3c0.4,0.3,0.8,0.7,1.3,0.2C43,43.8,43.1,43.8,43.3,43.7z M25.9,51.7c-0.3,0-1.2,0.2-1.5,0.3
	c-0.1,0-0.2,0.1-0.2,0.2c0,0.1,0.1,0.1,0.1,0.2C25.2,52.8,25.6,52.6,25.9,51.7z M37.1,44.6c0.5,0.2,1,0.3,1.4,0.4
	c0.2,0,0.4-0.2,0.4-0.4c0-0.2,0-0.4-0.2-0.4C38.2,44.2,37.6,44.3,37.1,44.6z M34.4,27.6C34.2,27.8,34,28,33.6,28
	c-0.1,0-0.2-0.2-0.3,0.1c-0.1,0.2-0.1,0.5,0,0.8c0.1,0.2,0.2,0.1,0.3,0.1C34.2,28.8,34.6,28.2,34.4,27.6z M28.3,45.7
	c0.1-0.1-0.2-1.3-0.3-1.3c-0.1-0.1-0.3-0.1-0.4,0.1c-0.1,0.3-0.2,0.7-0.1,1c0,0.1,0.1,0.2,0.2,0.3c0.1,0.1,0.2,0.1,0.3,0.2
	C28.1,45.9,28.2,45.8,28.3,45.7z M41.6,22.6c0.9-0.2,1.7-0.3,2.5-0.4C43.3,21.8,42.4,21.5,41.6,22.6z M48.7,45.8
	c0.2-0.4,0.6-0.5,0.5-0.9c-0.1-0.4-0.5-0.6-0.9-0.7C48.1,44.8,48.6,45.2,48.7,45.8z M27.2,49c-0.3,0.6-0.4,1.1-0.6,1.6
	c0.6,0,0.8-0.5,1.2-0.8c0-0.1,0.1-0.1,0-0.2C27.5,49.6,27.4,49.3,27.2,49z M46.4,23.9c0.8,0.1,1.5,0.2,2.3,0.4
	c0.1,0,0.3,0.1,0.3-0.1c0.1-0.3-0.1-0.3-0.2-0.3C48.1,23.6,47.3,23.7,46.4,23.9z M16.8,36.7c-0.4,0.7-0.6,1.5-0.2,2.2
	c0.2-0.3,0.5-0.5,0.4-0.9C16.9,37.6,16.9,37.1,16.8,36.7L16.8,36.7z M49.5,45.8c-0.5,0.6-1.1,1.1-1,2C49.1,47.5,49.5,46.8,49.5,45.8
	L49.5,45.8z M41.7,50c-0.7-0.3-1.4-0.7-2-1.2c-0.4-0.4-0.9-0.5-1.4-0.5C39.4,48.8,40.3,49.9,41.7,50L41.7,50z M41.4,34.7
	c-0.6,0.1-1,0.8-1.7,0.7c0,0,0,0-0.1,0.1c-0.1,0.4-0.5,0.6-0.5,1.1c0.5-0.2,0.5-0.2,0.5-0.7c0-0.1,0-0.2,0.1-0.2c0,0,0.1,0,0.1,0
	c0,0,0.1,0,0.1,0.1c0.1,0.1,0.2,0.2,0.4,0.1C40.7,35.4,41,35,41.4,34.7z M19.1,23.8c-0.4,0-0.7,0.2-1,0.4c-0.1,0-0.2,0.1-0.1,0.2
	c0.3,0.2,0.5,0.4,0.8,0.7L19.1,23.8z M13.2,38c0-1.2-0.6-2.4-1.1-2.5L13.2,38z M20.8,52.9c0.8,0.8,1.9,0.8,2.8,1.1
	C22.7,53.6,21.9,53.2,20.8,52.9L20.8,52.9z M48.7,48.1c-0.3,0.2-0.7,0.3-1,0.5c-0.1,0-0.3,0.1-0.3,0.3c0,0.1,0.1,0.3,0.2,0.4
	c0.1,0.1,0.3,0,0.4-0.1C48.3,48.8,48.5,48.5,48.7,48.1L48.7,48.1z M37.6,28.4c0.7,0.2,1.7-0.2,1.9-0.9C38.9,27.8,38.3,28,37.6,28.4z
	 M33,36.6c0.5-0.4,0.8-0.9,1-1.5C33.2,35.3,32.9,35.8,33,36.6z M51.5,30.7c0.1,0.1,0.2,0.3,0.4,0.4c0.1,0.1,0.2,0.2,0.3,0.1
	c0.2-0.3,0.6-0.6,0.6-1.1L51.5,30.7z M25.7,50.8c-0.5-0.3-0.9-0.4-1.3-0.7C24.3,50,24.1,50,24,50.2c-0.1,0.1-0.2,0.4,0.1,0.5
	C24.6,50.8,25.1,50.9,25.7,50.8L25.7,50.8z M13.8,21.1c0.4-0.6,0.7-1.2,1.2-1.8C14.2,19.5,13.8,20.1,13.8,21.1z M43.1,44.4
	c0.3,0.2,0.6,0.4,0.9,0.4c0.2,0,0.4,0,0.4-0.3c0-0.3-0.2-0.5-0.5-0.3C43.6,44.2,43.4,44.3,43.1,44.4L43.1,44.4z M31.4,31.8
	c-0.5,1-0.9,2.2-0.8,2.5C31.1,33.5,31.3,32.6,31.4,31.8L31.4,31.8z M21.1,24.1c-0.5-0.6-0.8-0.7-1.6-0.4
	C20,24.1,20.5,24.2,21.1,24.1z M34.1,45.2c0.1-0.2,0.2-0.4,0-0.5c-0.2-0.1-0.3,0.1-0.4,0.2c-0.2,0.1-0.3,0.3-0.4,0.5
	c-0.1,0.1-0.3,0.2-0.2,0.4c0.1,0.2,0.3,0,0.4-0.1c0.1-0.1,0.2-0.1,0.3-0.1c0.1,0,0.1,0,0.2-0.1C34.1,45.4,34.1,45.3,34.1,45.2
	L34.1,45.2z M24.9,30.9c0.2-0.6,0.3-1.1,0.5-1.6c-0.2,0-0.4-0.1-0.7,0L24.9,30.9z M13.6,38.7c0.1,0.6,0.1,1.2,0.5,1.6
	C14.4,39.5,14.2,38.9,13.6,38.7z M43.6,29.3C43,29,43,29.6,42.8,29.8c-0.1,0.1-0.2,0.2-0.1,0.3c0.1,0.1,0.2,0,0.3,0
	c0.2-0.1,0.4-0.2,0.5-0.3c0.1-0.1,0.2-0.1,0.2-0.2C43.8,29.4,43.6,29.4,43.6,29.3L43.6,29.3z M26.8,22.5c-0.4-0.3-0.7-0.5-1.1-0.7
	C25.7,22.8,25.7,22.8,26.8,22.5L26.8,22.5z M32.5,35.9c-0.1,0.8-0.6,1.6-0.4,2.6C32.6,37.6,32.5,36.7,32.5,35.9L32.5,35.9z
	 M46.1,47.9c0.8-0.2,1.3-0.9,1.9-1.4C47.3,46.8,46.7,47.3,46.1,47.9L46.1,47.9z M24.8,21.6c-0.1-0.6-0.7-1.2-1.2-1.2
	C23.8,20.9,24.4,21.1,24.8,21.6z M25.7,20.2l1.8,1.7C27.1,21.2,26.6,20.5,25.7,20.2L25.7,20.2z M40.2,45.8c0.4,0.2,0.9,0.1,1.5-0.5
	C41.1,45.2,40.7,45.4,40.2,45.8z M17.7,39.7l-0.5-1.2c-0.1,0.3-0.3,0.5-0.5,0.8C16.9,39.6,17.3,39.5,17.7,39.7z M27.4,47.7
	c0.3-0.5,0.6-0.9,0.9-1.3C27.7,46.3,27.4,46.7,27.4,47.7z M39.9,45.4C39.9,45.5,39.9,45.5,39.9,45.4c0.1,0,0.1,0.1,0.1,0.1
	c0,0,0,0,0.1,0c0,0,0,0,0.1,0c0.2-0.2,0.6-0.3,0.6-0.4c0-0.3-0.4-0.1-0.7-0.2c-0.1,0-0.4-0.1-0.4,0.1C39.6,45.2,39.8,45.3,39.9,45.4
	L39.9,45.4z M15.7,37.4c-0.6,0.7-0.6,0.9-0.1,1.4C15.9,38.4,15.7,37.9,15.7,37.4z M27.5,43.6c0.4-0.9-0.1-1.6-0.4-2.3
	c-0.1,0.4,0.3,0.7,0.3,1.1C27.4,42.8,27.4,43.2,27.5,43.6z M19.1,23.5l0.6-1.8C19,22.3,18.8,23,19.1,23.5z M40.1,46.3
	c-0.1-0.2-0.2-0.4-0.4-0.2c-0.4,0.3-0.8,0.6-1.1,0.9C39.1,46.9,39.6,46.6,40.1,46.3z M20.4,23.2c-0.1-0.2-0.2-0.3-0.3-0.4
	c-0.1-0.1-0.1-0.4-0.3-0.4c0,0.1-0.1,0.1-0.1,0.2C19.5,23.3,19.5,23.3,20.4,23.2z M18.9,20c0.4,0.2,0.7,0.2,0.9,0.6
	c0.1,0.1,0.1,0,0.2,0c0.1-0.1,0.3-0.3,0.5-0.4C19.9,19.9,19.4,19.9,18.9,20z M32.1,30.5l-0.6,2C32.2,31.9,32.2,31.2,32.1,30.5z
	 M17.8,34.9c-0.2,0.6-0.6,1.2-0.3,1.9C17.7,36.1,17.8,35.5,17.8,34.9z M38.6,37c-0.4,0.5-0.3,1.2-0.4,1.8c0.1-0.2,0.4-0.3,0.4-0.6
	C38.5,37.8,38.5,37.4,38.6,37L38.6,37z M32.9,33.6c-0.4,0.6-0.2,1.2-0.3,1.8C32.9,34.8,32.9,34.2,32.9,33.6L32.9,33.6z M30.4,35.6
	C30.1,36.1,30,36.5,30,37C30.6,36.7,30.6,36.7,30.4,35.6L30.4,35.6z M21.9,20.7c-1-0.6-1-0.6-1.4,0.2C21,20.8,21.4,20.7,21.9,20.7
	L21.9,20.7z M53.4,24.9c-0.1-0.4-1.2-1-1.9-1.1C52.2,24.1,52.8,24.6,53.4,24.9z M22,44.3c-0.2,0.2-0.3,0.3-0.4,0.4
	c-0.1,0.1-0.3,0.2-0.1,0.4c0.1,0.1,0.3,0.3,0.5,0.2c0.2-0.1,0.1-0.3,0-0.4C22.1,44.7,22.1,44.6,22,44.3L22,44.3z M43,42.5
	c0.3,0.3,1.8,0.3,2.3-0.1C44.5,42.6,43.8,42.5,43,42.5L43,42.5z M37.1,39.1c-0.2,0.5-0.4,0.9-0.5,1.4C37.2,40.2,37.3,39.7,37.1,39.1
	L37.1,39.1z M20,53.1c0.4,0.6,1,0.9,1.7,1.1C21.1,53.7,20.5,53.4,20,53.1L20,53.1z M14.8,39.2c-0.3,0.6-0.1,1,0.1,1.4
	C15.3,40,15,39.7,14.8,39.2z M34.1,26.6c0,0-0.1,0-0.1,0.1c-0.1,0.2-0.3,0.4-0.4,0.6c0,0.1-0.1,0.2,0,0.2c0,0,0.1,0.1,0.1,0.1
	c0,0,0.1,0,0.1,0C34.3,27.4,34.4,27.1,34.1,26.6z M37.9,37.8c-0.5,0.5-0.5,1.1-0.4,1.7C37.8,39,37.8,38.4,37.9,37.8L37.9,37.8z
	 M37.1,42.6c0.3,0,0.5-0.1,0.7-0.2l-0.4-0.8C37.3,41.9,37.2,42.3,37.1,42.6z M18.7,22.8c-0.3,0.3-0.5,0.7-0.7,1
	C18.7,23.7,18.9,23.4,18.7,22.8z M16.1,41.4c0.1-0.6-0.1-1.1-0.2-1.7C15.9,40.3,15.6,40.9,16.1,41.4z M38.1,36.4
	c-0.5,0.4-0.5,0.9-0.6,1.5C37.8,37.4,38.2,37,38.1,36.4z M35.5,37.8l-0.9,2C35.3,39.2,35.2,38.4,35.5,37.8L35.5,37.8z M33.5,33.7
	l0.6-1.3C33.4,33,33.1,33.2,33.5,33.7L33.5,33.7z M48.9,22.8c-0.6-0.3-1.3-0.5-2-0.6C47.5,22.6,48.3,22.6,48.9,22.8z M52.9,25.7
	c0.1-0.7,0-0.9-0.6-1L52.9,25.7z M13.2,35.9l-0.3-1.2C12.6,35.2,12.6,35.5,13.2,35.9z M24.1,54.4l-1.9-0.5
	C22.8,54.2,23.3,54.6,24.1,54.4z M48.4,25.1c-0.5,0.3-0.9,0.6-1.3,1C47.6,25.9,48.2,25.8,48.4,25.1z M49.6,25
	c-0.6-0.4-0.6-0.3-1,0.4L49.6,25z M25.4,22.7c-0.3-0.4-0.7-0.8-1.1-1.2C24.5,22.2,25,22.4,25.4,22.7z M32.6,31.8
	c-0.3,0.5-0.3,1.3-0.2,1.6c0-0.1,0-0.1,0.1-0.2C32.5,32.8,32.5,32.3,32.6,31.8L32.6,31.8z M41.8,23.2c0.3,0.4,0.4,0.4,0.9-0.1
	C42.4,23,42.1,23.1,41.8,23.2L41.8,23.2z M40.1,24.7c0.4-0.1,0.7-0.3,1-0.5C40.5,23.9,40.4,24.5,40.1,24.7L40.1,24.7z M26.9,44.5
	c0.2-0.5,0.1-0.7-0.4-1C26.6,43.9,26.8,44.2,26.9,44.5L26.9,44.5z M18.8,26.6c0.2-0.1,0.4-0.2,0.6-0.4c-0.2-0.1-0.3-0.3-0.5-0.4
	L18.8,26.6z M50.1,30.4c0,0,0-0.1,0-0.1c-0.3-0.1-0.6-0.1-1-0.2c0,0,0,0-0.1,0c0,0,0,0-0.1,0c0,0,0,0,0,0c0,0,0,0,0,0.1
	c0,0.1,0.1,0.1,0.1,0.1L50.1,30.4z M47.3,48.3c0.4-0.3,0.7-0.5,0.9-1C47.8,47.6,47.5,47.8,47.3,48.3z M26.6,46.9
	c0.7-0.3,0.4-0.8,0.5-1.3C26.9,46.1,26.9,46.5,26.6,46.9z M44.4,48.4c-0.4,0.1-0.8,0.3-1.2,0.4C43.6,48.9,44,48.8,44.4,48.4z
	 M27.9,26.1c0.1,0.4,0.4,0.5,0.6,0.8C28.4,26.6,28.4,26.2,27.9,26.1z M15.3,27.9c-0.1,0.4-0.5,0.8-0.1,1.3L15.3,27.9z M40.1,42.7
	c0.1,0.3,0,0.6,0.2,0.8c0,0,0.2-0.1,0.3-0.2L40.1,42.7z M45.5,48.5c-0.4-0.1-0.6,0.1-0.9,0.3C45,48.9,45.2,48.7,45.5,48.5L45.5,48.5
	z M14.5,40.2c-0.1,0.5-0.1,0.6,0.3,1C14.8,40.8,14.6,40.6,14.5,40.2z M46.5,51.1c-0.4,0-0.8,0.2-1.1,0.4
	C45.8,51.5,46.2,51.3,46.5,51.1L46.5,51.1z M15.3,40.7c-0.3,0.5-0.1,0.7,0.2,1.1C15.6,41.3,15.4,41,15.3,40.7z M22.9,20.2
	c-0.1-0.6-0.6-0.4-0.9-0.4L22.9,20.2z M16.2,38.3c-0.2,0.3-0.1,0.5-0.1,0.7c0,0,0,0,0,0.1c0,0,0,0,0,0c0,0,0,0,0.1,0c0,0,0,0,0.1,0
	c0.1,0,0.1-0.1,0.1-0.2L16.2,38.3z M40.9,27.1c-0.4,0-0.6,0.1-0.8,0.2c0,0-0.1,0-0.1,0.1c0,0,0,0.1,0,0.1c0,0.1,0.1,0.1,0.2,0
	C40.4,27.4,40.6,27.3,40.9,27.1z M16.4,24.9c0.3-0.1,0.5-0.3,0.8-0.6C16.7,24.3,16.5,24.6,16.4,24.9z M45.2,21.8
	c-0.4-0.2-0.8-0.3-1.3-0.2L45.2,21.8z M50.6,45.2c-0.1,0.4-0.2,0.9-0.4,1.3C50.6,46.1,50.7,45.8,50.6,45.2z M25.2,54.9
	c-0.3-0.3-0.6-0.2-1-0.1C24.5,54.9,24.8,54.9,25.2,54.9L25.2,54.9z M23.3,49.2c0,0.3,0.1,0.5,0.2,0.6c0,0,0,0,0,0c0,0,0,0,0.1,0
	c0,0,0,0,0.1,0c0,0,0,0,0.1,0c0.1-0.1,0.1-0.2,0-0.2C23.6,49.5,23.4,49.4,23.3,49.2z M25.4,22.1c0-0.6-0.1-0.7-0.4-0.7
	C25.1,21.6,25.1,21.8,25.4,22.1z M40.9,46.7c0.4,0.4,0.9,0.6,1.3,0.7C41.8,47.2,41.5,46.8,40.9,46.7L40.9,46.7z M41.7,44.2
	c-0.3-0.2-0.4-0.6-0.9-0.2L41.7,44.2z M30.4,52c0,0.3-0.3,0.6-0.3,1C30.3,52.7,30.4,52.3,30.4,52L30.4,52z M43.6,43.1
	c0.3,0.3,0.3,0.3,0.7-0.1L43.6,43.1z M50.5,42.3c0,0.5,0,0.5,0.2,0.7C50.7,42.8,50.7,42.5,50.5,42.3L50.5,42.3z M31.2,31.2
	c0.1-0.3,0.1-0.4-0.2-0.6C30.9,30.9,31.1,31.1,31.2,31.2L31.2,31.2z M24.2,51.3c0,0.4,0.1,0.5,0.5,0.2L24.2,51.3z M41.9,44.9
	c0.3,0.1,0.4,0.1,0.6-0.1C42.3,44.7,42.1,44.8,41.9,44.9z M16.3,37.2c0.1-0.3,0.2-0.5,0.2-0.8C16.1,36.7,16.1,36.7,16.3,37.2
	L16.3,37.2z M30.9,34.6c-0.2,0.3-0.3,0.5-0.1,0.9C30.8,35.2,30.9,34.9,30.9,34.6z M39.8,41.6c0.1-0.2,0.1-0.4,0-0.5c0,0-0.1,0-0.1,0
	C39.5,41.3,39.7,41.4,39.8,41.6L39.8,41.6z M45.4,51.5c-0.3,0-0.5,0-0.6,0.2c0.1,0,0.2,0,0.3,0C45.3,51.6,45.4,51.6,45.4,51.5
	L45.4,51.5z M32.9,32.7c-0.1,0.2-0.1,0.3-0.1,0.5C33,33,32.9,32.9,32.9,32.7z M44.8,51.7c-0.1,0-0.2,0-0.2,0c-0.1,0-0.2,0.1-0.2,0.1
	C44.5,51.9,44.7,51.9,44.8,51.7z M13.6,26c-0.1,0-0.1,0.1-0.1,0.2s0,0.1,0,0.2L13.6,26z M44.6,48.4C44.5,48.4,44.5,48.3,44.6,48.4
	c-0.1-0.1-0.1-0.1-0.1,0c0,0,0,0.1,0,0.1C44.5,48.4,44.5,48.4,44.6,48.4L44.6,48.4z M43.8,21.5C43.8,21.5,43.7,21.5,43.8,21.5
	c-0.1-0.1-0.1,0-0.1,0C43.7,21.5,43.7,21.5,43.8,21.5C43.7,21.5,43.8,21.5,43.8,21.5z M15.9,34.7L15.9,34.7L15.9,34.7L15.9,34.7z
	 M16.3,42.3C16.3,42.2,16.3,42.2,16.3,42.3C16.3,42.2,16.2,42.2,16.3,42.3C16.2,42.2,16.2,42.3,16.3,42.3
	C16.2,42.3,16.3,42.3,16.3,42.3L16.3,42.3z M48.3,47.9C48.3,47.9,48.3,47.9,48.3,47.9C48.3,47.9,48.3,47.9,48.3,47.9
	C48.3,47.9,48.3,47.9,48.3,47.9C48.3,47.9,48.3,47.9,48.3,47.9L48.3,47.9z M47.5,46.2C47.5,46.2,47.5,46.2,47.5,46.2
	C47.5,46.3,47.5,46.3,47.5,46.2C47.5,46.3,47.5,46.3,47.5,46.2C47.6,46.3,47.6,46.2,47.5,46.2L47.5,46.2z M22.6,46.4L22.6,46.4
	C22.6,46.3,22.6,46.3,22.6,46.4C22.6,46.4,22.6,46.4,22.6,46.4L22.6,46.4z M32.2,38.6L32.2,38.6L32.2,38.6L32.2,38.6z M27,55
	C27,55,27,55,27,55C27,55,26.9,55,27,55C26.9,55,26.9,55,27,55C27,55.1,27,55,27,55z"/>
<path class="st2" d="M36.9,13c0.9-1.9,2.2-3.1,4.2-3.7c1.3-0.4,2.6-0.7,4-0.9c0.5-0.1,1,0,1.5,0.2c0.2,0.1,0.3,0.2,0.4,0.3
	c0.2,0.5,0.2,0.5-0.2,0.8c-0.4,0.3-0.7,0.5-1.1,0.8c-0.1,0-0.1,0.1-0.2,0.2c-0.4,0.9-1.2,1.6-1.8,2.4c-0.1,0.1-0.2,0.2,0,0.2
	c0.2,0.1,0.1,0.3,0,0.4c-0.3,0.3-0.5,0.5-0.8,0.7c-1.4,1-2.6,2.2-3.9,3.3c-0.6,0.5-1.2,1.1-1.9,1.4c-0.3,0.1-0.5,0.1-0.8,0
	c-0.4-0.1-0.6-0.5-0.5-0.9c0.4-1.4,0.5-2.9,0.9-4.3C36.6,13.6,36.8,13.3,36.9,13z M38.8,16.8l2.5-1.7C40.3,15.5,39.4,15.9,38.8,16.8
	c-0.1-0.1-0.2,0-0.1,0.1L38.8,16.8z M43.7,12.3c-0.2,0.1-0.3,0.3-0.5,0.4c-0.6,0.6-1.2,1.1-1.8,1.8l-0.1,0l0,0.1c0,0,0,0,0.1,0
	c0.1,0,0.1,0,0.2-0.1C42.5,14.1,43,13.2,43.7,12.3c0.1,0,0.2,0,0.1-0.1L43.7,12.3z M40.6,13.2c0.6-0.3,1.2-0.7,1.9-1
	c0.6-0.2,1.1-0.8,1.6-1.3C42.7,11.1,41.6,12,40.6,13.2c-0.1,0-0.2,0-0.1,0.1L40.6,13.2z M41.9,12.9c-1.5,1-3.1,1.7-4,3.5
	C39.2,15.3,40.7,14.3,41.9,12.9C41.9,12.9,41.9,12.8,41.9,12.9C41.9,12.8,41.9,12.8,41.9,12.9L41.9,12.9z M42.7,10.9
	c-0.2-0.1-0.4,0-0.5,0.1c-1.5,1.1-2.8,2.4-4.2,3.7c-0.3,0.3-0.6,0.8-0.7,1.3C39.1,14.4,40.6,12.3,42.7,10.9c0.5-0.1,1-0.4,1.6-0.4
	c0.3,0,0.4,0.1,0.3,0.5c0.2-0.3,0.5-0.3,0.4-0.6c0-0.2-0.3-0.3-0.5-0.4C44,9.9,43.5,9.9,43,10.2c-0.2,0.1-0.2,0.1-0.1,0.2
	C43.2,10.6,42.8,10.7,42.7,10.9L42.7,10.9z M38,17c-0.3,0.1-0.5,0.4-0.8,0.6c-0.1,0.1-0.3,0.2-0.4,0.3c0,0-0.1,0-0.1,0
	c0,0-0.1,0-0.1-0.1c-0.1-0.1,0-0.2,0.1-0.2c0.2-0.3,0.1-0.6,0.1-0.9c0-0.2-0.2-0.1-0.3,0.1c-0.2,0.4-0.3,0.8-0.4,1.2
	c-0.1,0.2-0.1,0.5,0,0.7c0.1,0.1,0.2,0.2,0.3,0.2c0.1,0,0.3,0,0.4,0c1-0.4,1.7-1.1,2.5-1.9c-0.5,0.3-0.9,0.6-1.3,0.8
	c-0.1,0.1-0.2,0.2-0.3,0c-0.1-0.1,0-0.2,0.1-0.3C37.8,17.3,37.9,17.2,38,17C38,17,38,17,38,17C38,16.9,38,17,38,17z M36.4,16.2
	c0.5-0.7,1-1.3,1.5-1.9c1.3-1.6,2.6-3.2,4.4-4.1c0.9-0.5,1.8-0.9,2.6-0.3c0.6,0.5,0.9,0.1,1.4-0.2c0.1-0.1,0.2-0.1,0.3-0.2
	c0.3-0.2,0.3-0.4,0-0.6c-0.1-0.1-0.3-0.1-0.4-0.1c-0.4-0.1-0.9-0.1-1.4,0c-1.4,0.2-2.7,0.5-4,1c-2,0.7-3.2,2.2-3.9,4.2
	C36.6,14.7,36.5,15.5,36.4,16.2L36.4,16.2z M37.1,17c0.4-0.1,0.4-0.4,0.4-0.7C37.4,16.6,37.2,16.7,37.1,17L37.1,17z"/>
<path class="st2" d="M32.9,32.7c0.1,0.2,0.2,0.3-0.1,0.5C32.8,33,32.8,32.9,32.9,32.7z"/>
<path class="st2" d="M30.4,33.3C30.5,33.3,30.5,33.4,30.4,33.3c0,0.1,0,0.1,0,0.1C30.4,33.4,30.4,33.4,30.4,33.3L30.4,33.3z"/>
<path class="st2" d="M24.5,34c0,0.1,0.1,0.1,0,0.2l0,0L24.5,34L24.5,34z"/>
<path class="st2" d="M14.3,44c0,0.1,0,0.1,0,0.2C14.3,44.1,14.3,44,14.3,44L14.3,44z"/>
<path class="st2" d="M32.9,32.4C32.9,32.4,32.9,32.4,32.9,32.4C32.9,32.4,32.9,32.5,32.9,32.4c0,0.1,0,0.1,0,0.1c0,0,0,0,0,0
	c0,0,0,0-0.1,0C32.9,32.5,32.9,32.4,32.9,32.4L32.9,32.4z"/>
<path class="st2" d="M22.5,42.8l0.1,0.1c0,0,0,0,0,0C22.6,43,22.6,43,22.5,42.8C22.6,42.9,22.5,42.9,22.5,42.8
	C22.5,42.9,22.5,42.9,22.5,42.8C22.5,42.9,22.5,42.9,22.5,42.8L22.5,42.8z"/>
<path class="st2" d="M32.9,32.4c-0.1,0,0-0.1,0-0.1c0,0,0,0,0,0L32.9,32.4L32.9,32.4z"/>
<path class="st2" d="M47.3,27.2l-0.1,0.1c0,0,0,0,0-0.1s0,0,0,0C47.2,27.2,47.2,27.2,47.3,27.2C47.2,27.1,47.2,27.1,47.3,27.2
	L47.3,27.2z"/>
<path class="st2" d="M23.8,41.7c0-0.1-0.1-0.2,0-0.2C23.9,41.5,23.9,41.6,23.8,41.7L23.8,41.7z"/>
<path class="st2" d="M13.4,37.5L13.4,37.5L13.4,37.5L13.4,37.5z"/>
<path class="st2" d="M27,43.4L27,43.4C27,43.5,27,43.5,27,43.4C27,43.5,27,43.4,27,43.4L27,43.4z"/>
<path class="st2" d="M12,36.8L12,36.8L12,36.8C12,36.8,12,36.8,12,36.8L12,36.8z"/>
<path class="st2" d="M13.5,37.7l0-0.1C13.5,37.5,13.5,37.6,13.5,37.7C13.5,37.6,13.5,37.6,13.5,37.7L13.5,37.7z"/>
<path class="st2" d="M42.4,49.9L42.4,49.9C42.3,49.9,42.3,49.9,42.4,49.9L42.4,49.9z"/>
<path class="st2" d="M23.9,41.7c0,0,0,0.1,0,0.1C23.9,41.8,23.9,41.8,23.9,41.7L23.9,41.7z"/>
<path class="st2" d="M21.3,40.6C21.2,40.6,21.2,40.5,21.3,40.6C21.3,40.5,21.3,40.6,21.3,40.6L21.3,40.6z"/>
<path class="st2" d="M21.6,41.7L21.6,41.7C21.6,41.7,21.7,41.7,21.6,41.7L21.6,41.7z"/>
<path class="st2" d="M22,42C22,42,22,42,22,42C22.1,41.9,22.1,42,22,42L22,42z"/>
<path class="st2" d="M21.6,40.1l0,0.1L21.6,40.1L21.6,40.1z"/>
<path class="st2" d="M22.5,42.8l-0.1-0.1c0,0,0,0,0,0C22.5,42.8,22.6,42.8,22.5,42.8L22.5,42.8z"/>
<path class="st2" d="M13.5,39.2l0-0.1C13.5,39.1,13.5,39.1,13.5,39.2L13.5,39.2z"/>
<path class="st2" d="M13.5,39.2L13.5,39.2L13.5,39.2L13.5,39.2z"/>
<path class="st2" d="M47.3,50.7C47.3,50.7,47.3,50.7,47.3,50.7C47.3,50.7,47.3,50.7,47.3,50.7L47.3,50.7L47.3,50.7z"/>
<path class="st2" d="M15.9,35c0,0,0-0.1,0-0.1C15.9,34.9,16,35,15.9,35C16,35,15.9,35,15.9,35z"/>
<path class="st2" d="M15.9,34.7L15.9,34.7L15.9,34.7L15.9,34.7z"/>
<path class="st2" d="M16.3,42.3C16.3,42.3,16.2,42.3,16.3,42.3C16.2,42.3,16.2,42.2,16.3,42.3C16.2,42.2,16.3,42.2,16.3,42.3
	C16.3,42.2,16.3,42.3,16.3,42.3z"/>
<path class="st2" d="M16.3,42.5C16.3,42.4,16.3,42.4,16.3,42.5C16.4,42.4,16.4,42.4,16.3,42.5L16.3,42.5z"/>
<path class="st2" d="M48.3,47.9C48.3,47.9,48.3,47.9,48.3,47.9C48.3,47.9,48.3,47.9,48.3,47.9C48.3,47.9,48.3,47.9,48.3,47.9
	C48.3,47.9,48.3,47.9,48.3,47.9z"/>
<path class="st2" d="M43.7,24.8l0.1,0c0,0,0,0.1-0.1,0.1L43.7,24.8z"/>
<path class="st2" d="M32.2,39.8L32.2,39.8C32.3,39.7,32.2,39.8,32.2,39.8L32.2,39.8z"/>
<path class="st2" d="M16.8,43.4L16.8,43.4L16.8,43.4C16.8,43.4,16.8,43.4,16.8,43.4L16.8,43.4z"/>
<path class="st2" d="M47.5,46.2C47.5,46.2,47.6,46.3,47.5,46.2C47.5,46.3,47.5,46.3,47.5,46.2C47.5,46.3,47.5,46.3,47.5,46.2
	C47.5,46.2,47.5,46.2,47.5,46.2z"/>
<path class="st2" d="M24.5,35.6L24.5,35.6L24.5,35.6L24.5,35.6L24.5,35.6z"/>
<path class="st2" d="M32.2,38.6L32.2,38.6L32.2,38.6L32.2,38.6z"/>
<path class="st2" d="M16.7,44.7L16.7,44.7C16.7,44.8,16.7,44.7,16.7,44.7L16.7,44.7z"/>
<path class="st2" d="M45,43.5C45,43.5,45,43.6,45,43.5C44.9,43.5,45,43.5,45,43.5L45,43.5z"/>
<path class="st2" d="M24.5,34.2L24.5,34.2C24.4,34.3,24.5,34.2,24.5,34.2L24.5,34.2z"/>
<path class="st2" d="M43.6,42.2L43.6,42.2L43.6,42.2C43.6,42.2,43.6,42.2,43.6,42.2L43.6,42.2z"/>
<path class="st2" d="M17.6,45.8L17.6,45.8C17.6,45.8,17.6,45.8,17.6,45.8C17.6,45.8,17.6,45.8,17.6,45.8L17.6,45.8z"/>
<path class="st2" d="M41.2,40.2L41.2,40.2L41.2,40.2C41.2,40.2,41.2,40.2,41.2,40.2L41.2,40.2z"/>
<path class="st2" d="M46.7,42.1L46.7,42.1L46.7,42.1C46.7,42,46.7,42,46.7,42.1z"/>
<path class="st2" d="M22.5,30.9L22.5,30.9L22.5,30.9C22.5,30.9,22.5,30.9,22.5,30.9L22.5,30.9z"/>
<path class="st2" d="M15.1,47.8L15.1,47.8L15.1,47.8C15.1,47.8,15.1,47.8,15.1,47.8L15.1,47.8z"/>
<path class="st2" d="M16.1,48.5C16.1,48.5,16.1,48.5,16.1,48.5C16.1,48.5,16.1,48.5,16.1,48.5C16.1,48.5,16.1,48.5,16.1,48.5
	L16.1,48.5z"/>
<path class="st2" d="M43.3,33.8L43.3,33.8C43.4,33.8,43.4,33.8,43.3,33.8C43.3,33.8,43.3,33.8,43.3,33.8z"/>
<path class="st2" d="M17.7,49.6L17.7,49.6L17.7,49.6C17.7,49.6,17.7,49.6,17.7,49.6L17.7,49.6z"/>
<path class="st2" d="M43.1,33.4L43.1,33.4C43.1,33.4,43.1,33.4,43.1,33.4C43.1,33.4,43.1,33.4,43.1,33.4L43.1,33.4z"/>
<path class="st2" d="M44.6,33.1L44.6,33.1L44.6,33.1L44.6,33.1L44.6,33.1z"/>
<path class="st2" d="M44.1,33C44.1,33,44.2,32.9,44.1,33C44.2,33,44.2,33,44.1,33L44.1,33z"/>
<path class="st2" d="M16.9,50.3L16.9,50.3L16.9,50.3C16.9,50.3,16.9,50.3,16.9,50.3L16.9,50.3z"/>
<path class="st2" d="M43.1,30.3C43.1,30.3,43.1,30.3,43.1,30.3C43.1,30.3,43.1,30.4,43.1,30.3L43.1,30.3z"/>
<path class="st2" d="M46.6,48.7L46.6,48.7L46.6,48.7L46.6,48.7z"/>
<path class="st2" d="M37.1,17c0.1-0.3,0.3-0.5,0.4-0.7C37.4,16.6,37.5,16.9,37.1,17z"/>
<path class="st2" d="M38.8,16.8l-0.1,0.1C38.6,16.8,38.7,16.7,38.8,16.8L38.8,16.8z"/>
<path class="st2" d="M38,17C38,17,38,16.9,38,17C38,17,38,17,38,17L38,17z"/>
<path class="st0" d="M41.4,14.6L41.4,14.6L41.4,14.6L41.4,14.6L41.4,14.6z"/>
<path class="st0" d="M41.8,12.9C41.9,12.8,41.9,12.8,41.8,12.9C41.9,12.8,41.9,12.9,41.8,12.9L41.8,12.9z"/>
</svg>
