<svg width="60" height="22" viewBox="0 0 60 22" fill="none" xmlns="http://www.w3.org/2000/svg">
<path d="M6.944 1.256C8.464 1.256 9.664 1.656 10.544 2.456C11.424 3.24 11.864 4.32 11.864 5.696V6.056C11.864 7.432 11.424 8.52 10.544 9.32C9.664 10.104 8.464 10.496 6.944 10.496H2.936V17H0.68V1.256H6.944ZM6.896 8.48C7.792 8.48 8.472 8.272 8.936 7.856C9.4 7.44 9.632 6.84 9.632 6.056V5.696C9.632 4.928 9.392 4.336 8.912 3.92C8.448 3.504 7.776 3.296 6.896 3.296H2.936V8.48H6.896ZM17.9173 17C16.9412 17 16.1812 16.744 15.6372 16.232C15.1092 15.704 14.8452 14.96 14.8452 14V0.295999H17.0052V13.784C17.0052 14.616 17.4132 15.032 18.2292 15.032H19.1653V17H17.9173ZM32.4808 15.032V17H31.2087C30.6328 17 30.1288 16.904 29.6967 16.712C29.2808 16.504 28.9607 16.208 28.7367 15.824C27.8567 16.8 26.6087 17.288 24.9927 17.288C23.7127 17.288 22.6967 16.984 21.9447 16.376C21.1927 15.768 20.8167 14.928 20.8167 13.856C20.8167 12.88 21.1367 12.112 21.7767 11.552C22.4167 10.992 23.4007 10.624 24.7287 10.448L28.3047 9.968V9.2C28.3047 8.432 28.0807 7.848 27.6328 7.448C27.2007 7.048 26.5607 6.848 25.7127 6.848C24.8807 6.848 24.2327 7.048 23.7687 7.448C23.3207 7.832 23.0967 8.376 23.0967 9.08V9.248H20.9127V9.08C20.9127 7.768 21.3447 6.728 22.2087 5.96C23.0887 5.192 24.2807 4.808 25.7847 4.808C27.2887 4.808 28.4487 5.2 29.2647 5.984C30.0807 6.752 30.4887 7.84 30.4887 9.248V13.832C30.4887 14.632 30.8727 15.032 31.6407 15.032H32.4808ZM25.1367 15.416C25.8407 15.416 26.4647 15.264 27.0087 14.96C27.5687 14.656 28.0007 14.24 28.3047 13.712V11.672L25.0887 12.152C23.6807 12.376 22.9767 12.936 22.9767 13.832C22.9767 14.328 23.1687 14.72 23.5527 15.008C23.9527 15.28 24.4807 15.416 25.1367 15.416ZM44.4271 5.096V5.432L39.4591 18.392C39.0911 19.352 38.6191 20.04 38.0431 20.456C37.4831 20.872 36.7071 21.08 35.7151 21.08H33.8191V19.112H35.5231C36.0191 19.112 36.4031 19.024 36.6751 18.848C36.9631 18.672 37.2111 18.304 37.4191 17.744L37.6351 17.144L32.9551 5.432V5.096H35.1631L38.7631 14.336L42.2191 5.096H44.4271ZM59.3834 13.544H56.8394V17H54.6314V13.544H46.7594V11.456C47.5274 9.776 48.1594 8.12 48.6554 6.488C49.1514 4.856 49.5514 3.112 49.8554 1.256H52.1354V1.616C51.5594 5.104 50.5834 8.384 49.2074 11.456H54.6314V4.04H56.8394V11.456H59.3834V13.544Z" fill="#FF009B"/>
</svg>
