<svg width="27" height="319" viewBox="0 0 27 319" fill="none" xmlns="http://www.w3.org/2000/svg">
<path d="M25.9619 1.45251C25.5634 17.2996 7.56907 16.8471 7.17054 32.6942C6.77202 48.5412 24.7663 48.9938 24.3678 64.8409C23.9693 80.6879 5.97496 80.2354 5.57736 96.0453C5.17882 111.893 23.1731 112.345 22.7755 128.155C22.377 144.002 4.3827 143.55 3.98511 159.359C3.58658 175.207 21.5809 175.659 21.1824 191.506C20.7838 207.353 2.78953 206.9 2.39099 222.748C1.99248 238.594 19.9868 239.047 19.5883 254.894C19.1897 270.742 1.19541 270.289 0.796867 286.136C0.398359 301.983 18.3927 302.435 17.9941 318.283" stroke="black" stroke-miterlimit="10" stroke-linecap="round"/>
</svg>
