<svg width="29" height="321" viewBox="0 0 29 321" fill="none" xmlns="http://www.w3.org/2000/svg">
<path d="M26.9619 2.45251C26.5634 18.2996 8.56907 17.8471 8.17054 33.6942C7.77202 49.5412 25.7663 49.9938 25.3678 65.8409C24.9693 81.6879 6.97496 81.2354 6.57736 97.0453C6.17882 112.893 24.1731 113.345 23.7755 129.155C23.377 145.002 5.3827 144.55 4.98511 160.359C4.58658 176.207 22.5809 176.659 22.1824 192.506C21.7838 208.353 3.78953 207.9 3.39099 223.748C2.99248 239.594 20.9868 240.047 20.5883 255.894C20.1897 271.742 2.19541 271.289 1.79687 287.136C1.39836 302.983 19.3927 303.435 18.9941 319.283" stroke="black" stroke-width="3" stroke-miterlimit="10" stroke-linecap="round"/>
</svg>
