<svg width="32" height="324" viewBox="0 0 32 324" fill="none" xmlns="http://www.w3.org/2000/svg">
<path d="M28.9619 3.45251C28.5634 19.2996 10.5691 18.8471 10.1705 34.6942C9.77202 50.5412 27.7663 50.9938 27.3678 66.8409C26.9693 82.6879 8.97496 82.2354 8.57736 98.0453C8.17882 113.893 26.1731 114.345 25.7755 130.155C25.377 146.002 7.3827 145.55 6.98511 161.359C6.58658 177.207 24.5809 177.659 24.1824 193.506C23.7838 209.353 5.78953 208.9 5.39099 224.748C4.99248 240.594 22.9868 241.047 22.5883 256.894C22.1897 272.742 4.19541 272.289 3.79687 288.136C3.39836 303.983 21.3927 304.435 20.9941 320.283" stroke="black" stroke-width="6" stroke-miterlimit="10" stroke-linecap="round"/>
</svg>
