<svg width="28" height="320" viewBox="0 0 28 320" fill="none" xmlns="http://www.w3.org/2000/svg">
<path d="M26.9619 1.45251C26.5634 17.2996 8.56907 16.8471 8.17054 32.6942C7.77202 48.5412 25.7663 48.9938 25.3678 64.8409C24.9693 80.6879 6.97496 80.2354 6.57736 96.0453C6.17882 111.893 24.1731 112.345 23.7755 128.155C23.377 144.002 5.3827 143.55 4.98511 159.359C4.58658 175.207 22.5809 175.659 22.1824 191.506C21.7838 207.353 3.78953 206.9 3.39099 222.748C2.99248 238.594 20.9868 239.047 20.5883 254.894C20.1897 270.742 2.19541 270.289 1.79687 286.136C1.39836 301.983 19.3927 302.435 18.9941 318.283" stroke="black" stroke-width="2" stroke-miterlimit="10" stroke-linecap="round"/>
</svg>
