<svg width="30" height="322" viewBox="0 0 30 322" fill="none" xmlns="http://www.w3.org/2000/svg">
<path d="M27.9619 2.45251C27.5634 18.2996 9.56907 17.8471 9.17054 33.6942C8.77202 49.5412 26.7663 49.9938 26.3678 65.8409C25.9693 81.6879 7.97496 81.2354 7.57736 97.0453C7.17882 112.893 25.1731 113.345 24.7755 129.155C24.377 145.002 6.3827 144.55 5.98511 160.359C5.58658 176.207 23.5809 176.659 23.1824 192.506C22.7838 208.353 4.78953 207.9 4.39099 223.748C3.99248 239.594 21.9868 240.047 21.5883 255.894C21.1897 271.742 3.19541 271.289 2.79687 287.136C2.39836 302.983 20.3927 303.435 19.9941 319.283" stroke="black" stroke-width="4" stroke-miterlimit="10" stroke-linecap="round"/>
</svg>
