<svg width="31" height="323" viewBox="0 0 31 323" fill="none" xmlns="http://www.w3.org/2000/svg">
<path d="M27.9619 3.45251C27.5634 19.2996 9.56907 18.8471 9.17054 34.6942C8.77202 50.5412 26.7663 50.9938 26.3678 66.8409C25.9693 82.6879 7.97496 82.2354 7.57736 98.0453C7.17882 113.893 25.1731 114.345 24.7755 130.155C24.377 146.002 6.3827 145.55 5.98511 161.359C5.58658 177.207 23.5809 177.659 23.1824 193.506C22.7838 209.353 4.78953 208.9 4.39099 224.748C3.99248 240.594 21.9868 241.047 21.5883 256.894C21.1897 272.742 3.19541 272.289 2.79687 288.136C2.39836 303.983 20.3927 304.435 19.9941 320.283" stroke="black" stroke-width="5" stroke-miterlimit="10" stroke-linecap="round"/>
</svg>
